M48
; DRILL file {KiCad (5.1.6)-1} date 09/16/20 23:28:43
; FORMAT={-:-/ absolute / inch / decimal}
; #@! TF.CreationDate,2020-09-16T23:28:43-05:00
; #@! TF.GenerationSoftware,Kicad,Pcbnew,(5.1.6)-1
; #@! TF.FileFunction,Plated,1,2,PTH
FMAT,2
INCH
T1C0.0157
T2C0.0300
T3C0.0394
T4C0.0512
%
G90
G05
T1
X4.6Y-3.3
X4.65Y-4.0
X4.65Y-4.2
X4.65Y-4.45
X4.65Y-4.7
X4.9Y-4.9
X4.95Y-3.5
X4.95Y-3.6
X4.95Y-3.8
X4.95Y-4.8
X4.95Y-4.95
X5.0Y-4.95
X5.05Y-3.5
X5.05Y-4.8
X5.05Y-4.95
X5.1Y-4.9
X5.15Y-3.5
X5.25Y-3.5
X5.25Y-3.6
X5.25Y-3.75
X5.3Y-3.5
X5.3Y-3.6
X5.3Y-3.75
X5.3Y-3.9
X5.3Y-4.05
X5.3Y-4.25
X5.3Y-4.4
X5.35Y-3.4
X5.35Y-3.5
X5.35Y-3.6
X5.35Y-3.75
X5.4Y-3.25
X5.4Y-3.5
X5.4Y-3.6
X5.45Y-3.5
X5.45Y-3.6
X5.5Y-3.25
X5.5Y-3.5
X5.5Y-3.6
X5.55Y-3.5
X5.55Y-3.6
X5.65Y-3.85
X5.65Y-3.95
X5.65Y-4.05
X5.65Y-4.15
X5.65Y-4.25
X5.8Y-4.2
X5.83Y-3.5
X5.95Y-4.2
X6.03Y-3.74
X6.05Y-4.4
X6.1Y-4.2
X6.15Y-4.15
X6.15Y-4.25
X6.18Y-3.81
X6.2Y-4.05
X6.25Y-4.4
X6.28Y-3.81
X6.3Y-4.3
X6.35Y-3.3
X6.4Y-4.1
X6.45Y-4.1
X6.45Y-4.3
X6.45Y-4.65
X6.45Y-4.75
X6.45Y-4.85
X6.45Y-4.95
X6.5Y-3.3
X6.5Y-3.45
X6.5Y-4.3
T2
X5.68Y-3.4
X5.68Y-3.7
X5.78Y-3.4
X5.78Y-3.7
X5.88Y-3.4
X5.88Y-3.7
X5.98Y-3.4
X5.98Y-3.7
X6.08Y-3.4
X6.08Y-3.7
X6.18Y-3.4
X6.18Y-3.7
T3
X4.5902Y-3.15
X4.6902Y-3.15
X4.7902Y-3.15
X4.8902Y-3.15
X4.95Y-5.05
X4.9902Y-3.15
X5.05Y-5.05
X5.0902Y-3.15
X5.15Y-5.05
X5.1902Y-3.15
X5.25Y-5.05
X5.2902Y-3.15
X5.35Y-5.05
X5.3902Y-3.15
X5.45Y-5.05
X5.4902Y-3.15
X5.55Y-5.05
X5.65Y-3.15
X5.65Y-5.05
X5.75Y-3.15
X5.85Y-3.15
X5.85Y-5.05
X5.95Y-3.15
X5.95Y-5.05
X6.05Y-3.15
X6.05Y-5.05
X6.15Y-3.15
X6.15Y-5.05
X6.25Y-3.15
X6.25Y-5.05
X6.35Y-3.15
X6.35Y-5.05
T4
X4.65Y-3.5531
X4.65Y-3.75
T0
M30
