%TF.GenerationSoftware,KiCad,Pcbnew,(5.1.6)-1*%
%TF.CreationDate,2020-09-16T22:31:17-05:00*%
%TF.ProjectId,voltmeter,766f6c74-6d65-4746-9572-2e6b69636164,rev?*%
%TF.SameCoordinates,Original*%
%TF.FileFunction,Copper,L2,Bot*%
%TF.FilePolarity,Positive*%
%FSLAX46Y46*%
G04 Gerber Fmt 4.6, Leading zero omitted, Abs format (unit mm)*
G04 Created by KiCad (PCBNEW (5.1.6)-1) date 2020-09-16 22:31:17*
%MOMM*%
%LPD*%
G01*
G04 APERTURE LIST*
%TA.AperFunction,ComponentPad*%
%ADD10O,1.600000X1.600000*%
%TD*%
%TA.AperFunction,ComponentPad*%
%ADD11R,1.600000X1.600000*%
%TD*%
%TA.AperFunction,ComponentPad*%
%ADD12C,1.270000*%
%TD*%
%TA.AperFunction,ComponentPad*%
%ADD13R,1.270000X1.270000*%
%TD*%
%TA.AperFunction,ComponentPad*%
%ADD14C,2.300000*%
%TD*%
%TA.AperFunction,ComponentPad*%
%ADD15R,2.300000X2.300000*%
%TD*%
%TA.AperFunction,ViaPad*%
%ADD16C,0.800000*%
%TD*%
%TA.AperFunction,Conductor*%
%ADD17C,0.250000*%
%TD*%
%TA.AperFunction,Conductor*%
%ADD18C,0.254000*%
%TD*%
G04 APERTURE END LIST*
D10*
%TO.P,A0,16*%
%TO.N,5vLeg*%
X158750000Y-80010000D03*
%TO.P,A0,15*%
%TO.N,1.2vLeg*%
X161290000Y-80010000D03*
%TO.P,A0,30*%
%TO.N,AREF_4.096v*%
X121670000Y-80010000D03*
%TO.P,A0,14*%
%TO.N,Net-(A0-Pad14)*%
X161290000Y-128270000D03*
%TO.P,A0,29*%
%TO.N,GND*%
X124210000Y-80010000D03*
%TO.P,A0,13*%
%TO.N,Net-(A0-Pad13)*%
X158750000Y-128270000D03*
%TO.P,A0,28*%
%TO.N,Net-(A0-Pad28)*%
X126750000Y-80010000D03*
%TO.P,A0,12*%
%TO.N,Net-(A0-Pad12)*%
X156210000Y-128270000D03*
%TO.P,A0,27*%
%TO.N,Net-(A0-Pad27)*%
X129290000Y-80010000D03*
%TO.P,A0,11*%
%TO.N,Net-(A0-Pad11)*%
X153670000Y-128270000D03*
%TO.P,A0,26*%
%TO.N,Net-(A0-Pad26)*%
X131830000Y-80010000D03*
%TO.P,A0,10*%
%TO.N,ADC-Gain*%
X151130000Y-128270000D03*
%TO.P,A0,25*%
%TO.N,Net-(A0-Pad25)*%
X134370000Y-80010000D03*
%TO.P,A0,9*%
%TO.N,ADC-Unity*%
X148590000Y-128270000D03*
%TO.P,A0,24*%
%TO.N,Net-(A0-Pad24)*%
X136910000Y-80010000D03*
%TO.P,A0,8*%
%TO.N,Net-(A0-Pad8)*%
X143510000Y-128270000D03*
%TO.P,A0,23*%
%TO.N,Net-(A0-Pad23)*%
X139450000Y-80010000D03*
%TO.P,A0,7*%
%TO.N,GND*%
X140970000Y-128270000D03*
%TO.P,A0,22*%
%TO.N,Net-(A0-Pad22)*%
X143510000Y-80010000D03*
%TO.P,A0,6*%
%TO.N,GND*%
X138430000Y-128270000D03*
%TO.P,A0,21*%
%TO.N,Net-(A0-Pad21)*%
X146050000Y-80010000D03*
%TO.P,A0,5*%
%TO.N,VCC*%
X135890000Y-128270000D03*
%TO.P,A0,20*%
%TO.N,Net-(A0-Pad20)*%
X148590000Y-80010000D03*
%TO.P,A0,4*%
%TO.N,Net-(A0-Pad4)*%
X133350000Y-128270000D03*
%TO.P,A0,19*%
%TO.N,Net-(A0-Pad19)*%
X151130000Y-80010000D03*
%TO.P,A0,3*%
%TO.N,Net-(A0-Pad3)*%
X130810000Y-128270000D03*
%TO.P,A0,18*%
%TO.N,30vLeg*%
X153670000Y-80010000D03*
%TO.P,A0,2*%
%TO.N,Net-(A0-Pad2)*%
X128270000Y-128270000D03*
%TO.P,A0,17*%
%TO.N,15vLeg*%
X156210000Y-80010000D03*
D11*
%TO.P,A0,1*%
%TO.N,Net-(A0-Pad1)*%
X125730000Y-128270000D03*
D10*
%TO.P,A0,31*%
%TO.N,Net-(A0-Pad31)*%
X119130000Y-80010000D03*
%TO.P,A0,32*%
%TO.N,Net-(A0-Pad32)*%
X116590000Y-80010000D03*
%TD*%
D12*
%TO.P,LED1,12*%
%TO.N,Net-(A0-Pad22)*%
X143510000Y-86360000D03*
%TO.P,LED1,11*%
%TO.N,Net-(A0-Pad21)*%
X146050000Y-86360000D03*
%TO.P,LED1,10*%
%TO.N,Net-(A0-Pad20)*%
X148590000Y-86360000D03*
%TO.P,LED1,9*%
%TO.N,Net-(LED1-Pad9)*%
X151130000Y-86360000D03*
%TO.P,LED1,8*%
%TO.N,Net-(LED1-Pad8)*%
X153670000Y-86360000D03*
%TO.P,LED1,7*%
%TO.N,Net-(LED1-Pad7)*%
X156210000Y-86360000D03*
%TO.P,LED1,6*%
%TO.N,Net-(LED1-Pad6)*%
X156210000Y-93980000D03*
%TO.P,LED1,5*%
%TO.N,Net-(LED1-Pad5)*%
X153670000Y-93980000D03*
%TO.P,LED1,4*%
%TO.N,Net-(LED1-Pad4)*%
X151130000Y-93980000D03*
%TO.P,LED1,3*%
%TO.N,Net-(LED1-Pad3)*%
X148590000Y-93980000D03*
%TO.P,LED1,2*%
%TO.N,Net-(LED1-Pad2)*%
X146050000Y-93980000D03*
D13*
%TO.P,LED1,1*%
%TO.N,Net-(A0-Pad19)*%
X143510000Y-93980000D03*
%TD*%
D14*
%TO.P,J0,2*%
%TO.N,Net-(J0-Pad2)*%
X118110000Y-90250000D03*
D15*
%TO.P,J0,1*%
%TO.N,GND*%
X118110000Y-95250000D03*
%TD*%
D16*
%TO.N,5vLeg*%
X134620000Y-107950000D03*
X139700000Y-91440000D03*
X139700000Y-88900000D03*
%TO.N,1.2vLeg*%
X134620000Y-111760000D03*
X140970000Y-91440000D03*
X140970000Y-88900000D03*
%TO.N,AREF_4.096v*%
X125730000Y-96520000D03*
%TO.N,GND*%
X125730000Y-91440000D03*
X130810000Y-88900000D03*
X128270000Y-88900000D03*
X116840000Y-83820000D03*
X118110000Y-101600000D03*
X118110000Y-106680000D03*
X118110000Y-113030000D03*
X118110000Y-119380000D03*
X143510000Y-102870000D03*
X143510000Y-105410000D03*
X143510000Y-107950000D03*
X156210000Y-105410000D03*
X156210000Y-107950000D03*
X147320000Y-106680000D03*
X151130000Y-106680000D03*
X154940000Y-106680000D03*
X163830000Y-109220000D03*
X165100000Y-109220000D03*
X160020000Y-109220000D03*
X163830000Y-120650000D03*
X163830000Y-123190000D03*
X163830000Y-125730000D03*
X125730000Y-121920000D03*
X128270000Y-121920000D03*
X124460000Y-124460000D03*
X125730000Y-125730000D03*
X127000000Y-125730000D03*
X128270000Y-125730000D03*
X129540000Y-124460000D03*
X161290000Y-83820000D03*
X165100000Y-83820000D03*
X165100000Y-87630000D03*
X137160000Y-82550000D03*
X139700000Y-82550000D03*
X143510000Y-97790000D03*
X143510000Y-100330000D03*
%TO.N,Net-(A0-Pad28)*%
X135890000Y-95250000D03*
X135890000Y-88900000D03*
X135890000Y-91440000D03*
X135890000Y-86360000D03*
%TO.N,Net-(A0-Pad26)*%
X133350000Y-95250000D03*
X133350000Y-91440000D03*
X133350000Y-88900000D03*
%TO.N,Net-(A0-Pad25)*%
X134620000Y-95250000D03*
X134620000Y-88900000D03*
X134620000Y-91440000D03*
%TO.N,ADC-Unity*%
X163830000Y-104140000D03*
%TO.N,VCC*%
X163830000Y-118110000D03*
X158750000Y-111760000D03*
%TO.N,30vLeg*%
X134620000Y-99060000D03*
X137160000Y-91440000D03*
X137160000Y-88900000D03*
%TO.N,15vLeg*%
X134620000Y-102870000D03*
X138430000Y-91440000D03*
X138430000Y-88900000D03*
%TO.N,/VoltageDivider*%
X162560000Y-104140000D03*
X125730000Y-88900000D03*
%TO.N,Net-(R10-Pad2)*%
X153670000Y-111760000D03*
X157480000Y-102870000D03*
%TD*%
D17*
%TO.N,5vLeg*%
X134620000Y-107950000D02*
X139700000Y-102870000D01*
X139700000Y-102870000D02*
X139700000Y-91440000D01*
X139700000Y-88112788D02*
X144442798Y-83369990D01*
X139700000Y-88900000D02*
X139700000Y-88112788D01*
X155390010Y-83369990D02*
X158750000Y-80010000D01*
X144442798Y-83369990D02*
X155390010Y-83369990D01*
%TO.N,1.2vLeg*%
X134620000Y-111760000D02*
X137160000Y-111760000D01*
X137160000Y-111760000D02*
X140970000Y-107950000D01*
X140970000Y-107950000D02*
X140970000Y-91440000D01*
X140970000Y-87479198D02*
X144629198Y-83820000D01*
X140970000Y-88900000D02*
X140970000Y-87479198D01*
X157480000Y-83820000D02*
X161290000Y-80010000D01*
X144629198Y-83820000D02*
X157480000Y-83820000D01*
%TO.N,AREF_4.096v*%
X121670000Y-92460000D02*
X121670000Y-80010000D01*
X125730000Y-96520000D02*
X121670000Y-92460000D01*
%TO.N,Net-(A0-Pad28)*%
X135890000Y-95250000D02*
X135890000Y-91440000D01*
X135890000Y-88900000D02*
X135890000Y-86360000D01*
%TO.N,Net-(A0-Pad26)*%
X133350000Y-95250000D02*
X133350000Y-91440000D01*
X133350000Y-81530000D02*
X131830000Y-80010000D01*
X133350000Y-88900000D02*
X133350000Y-81530000D01*
%TO.N,Net-(A0-Pad25)*%
X134620000Y-80260000D02*
X134370000Y-80010000D01*
X134620000Y-88900000D02*
X134620000Y-80260000D01*
X134620000Y-91440000D02*
X134620000Y-95250000D01*
%TO.N,ADC-Unity*%
X148590000Y-119380000D02*
X148590000Y-128270000D01*
X163830000Y-104140000D02*
X148590000Y-119380000D01*
%TO.N,VCC*%
X163830000Y-118110000D02*
X158750000Y-113030000D01*
X158750000Y-113030000D02*
X158750000Y-111760000D01*
%TO.N,30vLeg*%
X134620000Y-99060000D02*
X137160000Y-96520000D01*
X137160000Y-96520000D02*
X137160000Y-91440000D01*
X137160000Y-88900000D02*
X143960010Y-82099990D01*
X151580010Y-82099990D02*
X153670000Y-80010000D01*
X143960010Y-82099990D02*
X151580010Y-82099990D01*
%TO.N,15vLeg*%
X134620000Y-102870000D02*
X138430000Y-99060000D01*
X138430000Y-99060000D02*
X138430000Y-91440000D01*
X153670000Y-82550000D02*
X156210000Y-80010000D01*
X144214315Y-82550000D02*
X153670000Y-82550000D01*
X138430000Y-88900000D02*
X138430000Y-88334315D01*
X138430000Y-88334315D02*
X144214315Y-82550000D01*
%TO.N,/VoltageDivider*%
X162560000Y-104140000D02*
X162560000Y-90170000D01*
X162560000Y-90170000D02*
X128270000Y-90170000D01*
X127000000Y-90170000D02*
X125730000Y-88900000D01*
X128270000Y-90170000D02*
X127000000Y-90170000D01*
%TO.N,Net-(R10-Pad2)*%
X153670000Y-111760000D02*
X154940000Y-111760000D01*
X154940000Y-111760000D02*
X157480000Y-109220000D01*
X157480000Y-109220000D02*
X157480000Y-102870000D01*
%TD*%
D18*
%TO.N,GND*%
G36*
X166980001Y-130150000D02*
G01*
X114960000Y-130150000D01*
X114960000Y-127470000D01*
X124291928Y-127470000D01*
X124291928Y-129070000D01*
X124304188Y-129194482D01*
X124340498Y-129314180D01*
X124399463Y-129424494D01*
X124478815Y-129521185D01*
X124575506Y-129600537D01*
X124685820Y-129659502D01*
X124805518Y-129695812D01*
X124930000Y-129708072D01*
X126530000Y-129708072D01*
X126654482Y-129695812D01*
X126774180Y-129659502D01*
X126884494Y-129600537D01*
X126981185Y-129521185D01*
X127060537Y-129424494D01*
X127119502Y-129314180D01*
X127155812Y-129194482D01*
X127156643Y-129186039D01*
X127355241Y-129384637D01*
X127590273Y-129541680D01*
X127851426Y-129649853D01*
X128128665Y-129705000D01*
X128411335Y-129705000D01*
X128688574Y-129649853D01*
X128949727Y-129541680D01*
X129184759Y-129384637D01*
X129384637Y-129184759D01*
X129540000Y-128952241D01*
X129695363Y-129184759D01*
X129895241Y-129384637D01*
X130130273Y-129541680D01*
X130391426Y-129649853D01*
X130668665Y-129705000D01*
X130951335Y-129705000D01*
X131228574Y-129649853D01*
X131489727Y-129541680D01*
X131724759Y-129384637D01*
X131924637Y-129184759D01*
X132080000Y-128952241D01*
X132235363Y-129184759D01*
X132435241Y-129384637D01*
X132670273Y-129541680D01*
X132931426Y-129649853D01*
X133208665Y-129705000D01*
X133491335Y-129705000D01*
X133768574Y-129649853D01*
X134029727Y-129541680D01*
X134264759Y-129384637D01*
X134464637Y-129184759D01*
X134620000Y-128952241D01*
X134775363Y-129184759D01*
X134975241Y-129384637D01*
X135210273Y-129541680D01*
X135471426Y-129649853D01*
X135748665Y-129705000D01*
X136031335Y-129705000D01*
X136308574Y-129649853D01*
X136569727Y-129541680D01*
X136804759Y-129384637D01*
X137004637Y-129184759D01*
X137161680Y-128949727D01*
X137166067Y-128939135D01*
X137277615Y-129125131D01*
X137466586Y-129333519D01*
X137692580Y-129501037D01*
X137946913Y-129621246D01*
X138080961Y-129661904D01*
X138303000Y-129539915D01*
X138303000Y-128397000D01*
X138557000Y-128397000D01*
X138557000Y-129539915D01*
X138779039Y-129661904D01*
X138913087Y-129621246D01*
X139167420Y-129501037D01*
X139393414Y-129333519D01*
X139582385Y-129125131D01*
X139700000Y-128929018D01*
X139817615Y-129125131D01*
X140006586Y-129333519D01*
X140232580Y-129501037D01*
X140486913Y-129621246D01*
X140620961Y-129661904D01*
X140843000Y-129539915D01*
X140843000Y-128397000D01*
X138557000Y-128397000D01*
X138303000Y-128397000D01*
X138283000Y-128397000D01*
X138283000Y-128143000D01*
X138303000Y-128143000D01*
X138303000Y-127000085D01*
X138557000Y-127000085D01*
X138557000Y-128143000D01*
X140843000Y-128143000D01*
X140843000Y-127000085D01*
X141097000Y-127000085D01*
X141097000Y-128143000D01*
X141117000Y-128143000D01*
X141117000Y-128397000D01*
X141097000Y-128397000D01*
X141097000Y-129539915D01*
X141319039Y-129661904D01*
X141453087Y-129621246D01*
X141707420Y-129501037D01*
X141933414Y-129333519D01*
X142122385Y-129125131D01*
X142233933Y-128939135D01*
X142238320Y-128949727D01*
X142395363Y-129184759D01*
X142595241Y-129384637D01*
X142830273Y-129541680D01*
X143091426Y-129649853D01*
X143368665Y-129705000D01*
X143651335Y-129705000D01*
X143928574Y-129649853D01*
X144189727Y-129541680D01*
X144424759Y-129384637D01*
X144624637Y-129184759D01*
X144781680Y-128949727D01*
X144889853Y-128688574D01*
X144945000Y-128411335D01*
X144945000Y-128128665D01*
X144889853Y-127851426D01*
X144781680Y-127590273D01*
X144624637Y-127355241D01*
X144424759Y-127155363D01*
X144189727Y-126998320D01*
X143928574Y-126890147D01*
X143651335Y-126835000D01*
X143368665Y-126835000D01*
X143091426Y-126890147D01*
X142830273Y-126998320D01*
X142595241Y-127155363D01*
X142395363Y-127355241D01*
X142238320Y-127590273D01*
X142233933Y-127600865D01*
X142122385Y-127414869D01*
X141933414Y-127206481D01*
X141707420Y-127038963D01*
X141453087Y-126918754D01*
X141319039Y-126878096D01*
X141097000Y-127000085D01*
X140843000Y-127000085D01*
X140620961Y-126878096D01*
X140486913Y-126918754D01*
X140232580Y-127038963D01*
X140006586Y-127206481D01*
X139817615Y-127414869D01*
X139700000Y-127610982D01*
X139582385Y-127414869D01*
X139393414Y-127206481D01*
X139167420Y-127038963D01*
X138913087Y-126918754D01*
X138779039Y-126878096D01*
X138557000Y-127000085D01*
X138303000Y-127000085D01*
X138080961Y-126878096D01*
X137946913Y-126918754D01*
X137692580Y-127038963D01*
X137466586Y-127206481D01*
X137277615Y-127414869D01*
X137166067Y-127600865D01*
X137161680Y-127590273D01*
X137004637Y-127355241D01*
X136804759Y-127155363D01*
X136569727Y-126998320D01*
X136308574Y-126890147D01*
X136031335Y-126835000D01*
X135748665Y-126835000D01*
X135471426Y-126890147D01*
X135210273Y-126998320D01*
X134975241Y-127155363D01*
X134775363Y-127355241D01*
X134620000Y-127587759D01*
X134464637Y-127355241D01*
X134264759Y-127155363D01*
X134029727Y-126998320D01*
X133768574Y-126890147D01*
X133491335Y-126835000D01*
X133208665Y-126835000D01*
X132931426Y-126890147D01*
X132670273Y-126998320D01*
X132435241Y-127155363D01*
X132235363Y-127355241D01*
X132080000Y-127587759D01*
X131924637Y-127355241D01*
X131724759Y-127155363D01*
X131489727Y-126998320D01*
X131228574Y-126890147D01*
X130951335Y-126835000D01*
X130668665Y-126835000D01*
X130391426Y-126890147D01*
X130130273Y-126998320D01*
X129895241Y-127155363D01*
X129695363Y-127355241D01*
X129540000Y-127587759D01*
X129384637Y-127355241D01*
X129184759Y-127155363D01*
X128949727Y-126998320D01*
X128688574Y-126890147D01*
X128411335Y-126835000D01*
X128128665Y-126835000D01*
X127851426Y-126890147D01*
X127590273Y-126998320D01*
X127355241Y-127155363D01*
X127156643Y-127353961D01*
X127155812Y-127345518D01*
X127119502Y-127225820D01*
X127060537Y-127115506D01*
X126981185Y-127018815D01*
X126884494Y-126939463D01*
X126774180Y-126880498D01*
X126654482Y-126844188D01*
X126530000Y-126831928D01*
X124930000Y-126831928D01*
X124805518Y-126844188D01*
X124685820Y-126880498D01*
X124575506Y-126939463D01*
X124478815Y-127018815D01*
X124399463Y-127115506D01*
X124340498Y-127225820D01*
X124304188Y-127345518D01*
X124291928Y-127470000D01*
X114960000Y-127470000D01*
X114960000Y-96400000D01*
X116321928Y-96400000D01*
X116334188Y-96524482D01*
X116370498Y-96644180D01*
X116429463Y-96754494D01*
X116508815Y-96851185D01*
X116605506Y-96930537D01*
X116715820Y-96989502D01*
X116835518Y-97025812D01*
X116960000Y-97038072D01*
X117824250Y-97035000D01*
X117983000Y-96876250D01*
X117983000Y-95377000D01*
X118237000Y-95377000D01*
X118237000Y-96876250D01*
X118395750Y-97035000D01*
X119260000Y-97038072D01*
X119384482Y-97025812D01*
X119504180Y-96989502D01*
X119614494Y-96930537D01*
X119711185Y-96851185D01*
X119790537Y-96754494D01*
X119849502Y-96644180D01*
X119885812Y-96524482D01*
X119898072Y-96400000D01*
X119895000Y-95535750D01*
X119736250Y-95377000D01*
X118237000Y-95377000D01*
X117983000Y-95377000D01*
X116483750Y-95377000D01*
X116325000Y-95535750D01*
X116321928Y-96400000D01*
X114960000Y-96400000D01*
X114960000Y-94100000D01*
X116321928Y-94100000D01*
X116325000Y-94964250D01*
X116483750Y-95123000D01*
X117983000Y-95123000D01*
X117983000Y-93623750D01*
X118237000Y-93623750D01*
X118237000Y-95123000D01*
X119736250Y-95123000D01*
X119895000Y-94964250D01*
X119898072Y-94100000D01*
X119885812Y-93975518D01*
X119849502Y-93855820D01*
X119790537Y-93745506D01*
X119711185Y-93648815D01*
X119614494Y-93569463D01*
X119504180Y-93510498D01*
X119384482Y-93474188D01*
X119260000Y-93461928D01*
X118395750Y-93465000D01*
X118237000Y-93623750D01*
X117983000Y-93623750D01*
X117824250Y-93465000D01*
X116960000Y-93461928D01*
X116835518Y-93474188D01*
X116715820Y-93510498D01*
X116605506Y-93569463D01*
X116508815Y-93648815D01*
X116429463Y-93745506D01*
X116370498Y-93855820D01*
X116334188Y-93975518D01*
X116321928Y-94100000D01*
X114960000Y-94100000D01*
X114960000Y-90074193D01*
X116325000Y-90074193D01*
X116325000Y-90425807D01*
X116393596Y-90770665D01*
X116528153Y-91095515D01*
X116723500Y-91387871D01*
X116972129Y-91636500D01*
X117264485Y-91831847D01*
X117589335Y-91966404D01*
X117934193Y-92035000D01*
X118285807Y-92035000D01*
X118630665Y-91966404D01*
X118955515Y-91831847D01*
X119247871Y-91636500D01*
X119496500Y-91387871D01*
X119691847Y-91095515D01*
X119826404Y-90770665D01*
X119895000Y-90425807D01*
X119895000Y-90074193D01*
X119826404Y-89729335D01*
X119691847Y-89404485D01*
X119496500Y-89112129D01*
X119247871Y-88863500D01*
X118955515Y-88668153D01*
X118630665Y-88533596D01*
X118285807Y-88465000D01*
X117934193Y-88465000D01*
X117589335Y-88533596D01*
X117264485Y-88668153D01*
X116972129Y-88863500D01*
X116723500Y-89112129D01*
X116528153Y-89404485D01*
X116393596Y-89729335D01*
X116325000Y-90074193D01*
X114960000Y-90074193D01*
X114960000Y-79868665D01*
X115155000Y-79868665D01*
X115155000Y-80151335D01*
X115210147Y-80428574D01*
X115318320Y-80689727D01*
X115475363Y-80924759D01*
X115675241Y-81124637D01*
X115910273Y-81281680D01*
X116171426Y-81389853D01*
X116448665Y-81445000D01*
X116731335Y-81445000D01*
X117008574Y-81389853D01*
X117269727Y-81281680D01*
X117504759Y-81124637D01*
X117704637Y-80924759D01*
X117860000Y-80692241D01*
X118015363Y-80924759D01*
X118215241Y-81124637D01*
X118450273Y-81281680D01*
X118711426Y-81389853D01*
X118988665Y-81445000D01*
X119271335Y-81445000D01*
X119548574Y-81389853D01*
X119809727Y-81281680D01*
X120044759Y-81124637D01*
X120244637Y-80924759D01*
X120400000Y-80692241D01*
X120555363Y-80924759D01*
X120755241Y-81124637D01*
X120910001Y-81228044D01*
X120910000Y-92422678D01*
X120906324Y-92460000D01*
X120910000Y-92497322D01*
X120910000Y-92497332D01*
X120920997Y-92608985D01*
X120950707Y-92706928D01*
X120964454Y-92752246D01*
X121035026Y-92884276D01*
X121042855Y-92893815D01*
X121129999Y-93000001D01*
X121159003Y-93023804D01*
X124695000Y-96559802D01*
X124695000Y-96621939D01*
X124734774Y-96821898D01*
X124812795Y-97010256D01*
X124926063Y-97179774D01*
X125070226Y-97323937D01*
X125239744Y-97437205D01*
X125428102Y-97515226D01*
X125628061Y-97555000D01*
X125831939Y-97555000D01*
X126031898Y-97515226D01*
X126220256Y-97437205D01*
X126389774Y-97323937D01*
X126533937Y-97179774D01*
X126647205Y-97010256D01*
X126725226Y-96821898D01*
X126765000Y-96621939D01*
X126765000Y-96418061D01*
X126725226Y-96218102D01*
X126647205Y-96029744D01*
X126533937Y-95860226D01*
X126389774Y-95716063D01*
X126220256Y-95602795D01*
X126031898Y-95524774D01*
X125831939Y-95485000D01*
X125769802Y-95485000D01*
X122430000Y-92145199D01*
X122430000Y-81228043D01*
X122584759Y-81124637D01*
X122784637Y-80924759D01*
X122941680Y-80689727D01*
X122946067Y-80679135D01*
X123057615Y-80865131D01*
X123246586Y-81073519D01*
X123472580Y-81241037D01*
X123726913Y-81361246D01*
X123860961Y-81401904D01*
X124083000Y-81279915D01*
X124083000Y-80137000D01*
X124063000Y-80137000D01*
X124063000Y-79883000D01*
X124083000Y-79883000D01*
X124083000Y-78740085D01*
X124337000Y-78740085D01*
X124337000Y-79883000D01*
X124357000Y-79883000D01*
X124357000Y-80137000D01*
X124337000Y-80137000D01*
X124337000Y-81279915D01*
X124559039Y-81401904D01*
X124693087Y-81361246D01*
X124947420Y-81241037D01*
X125173414Y-81073519D01*
X125362385Y-80865131D01*
X125473933Y-80679135D01*
X125478320Y-80689727D01*
X125635363Y-80924759D01*
X125835241Y-81124637D01*
X126070273Y-81281680D01*
X126331426Y-81389853D01*
X126608665Y-81445000D01*
X126891335Y-81445000D01*
X127168574Y-81389853D01*
X127429727Y-81281680D01*
X127664759Y-81124637D01*
X127864637Y-80924759D01*
X128020000Y-80692241D01*
X128175363Y-80924759D01*
X128375241Y-81124637D01*
X128610273Y-81281680D01*
X128871426Y-81389853D01*
X129148665Y-81445000D01*
X129431335Y-81445000D01*
X129708574Y-81389853D01*
X129969727Y-81281680D01*
X130204759Y-81124637D01*
X130404637Y-80924759D01*
X130560000Y-80692241D01*
X130715363Y-80924759D01*
X130915241Y-81124637D01*
X131150273Y-81281680D01*
X131411426Y-81389853D01*
X131688665Y-81445000D01*
X131971335Y-81445000D01*
X132153886Y-81408688D01*
X132590001Y-81844803D01*
X132590000Y-88196289D01*
X132546063Y-88240226D01*
X132432795Y-88409744D01*
X132354774Y-88598102D01*
X132315000Y-88798061D01*
X132315000Y-89001939D01*
X132354774Y-89201898D01*
X132432795Y-89390256D01*
X132445987Y-89410000D01*
X127314802Y-89410000D01*
X126765000Y-88860199D01*
X126765000Y-88798061D01*
X126725226Y-88598102D01*
X126647205Y-88409744D01*
X126533937Y-88240226D01*
X126389774Y-88096063D01*
X126220256Y-87982795D01*
X126031898Y-87904774D01*
X125831939Y-87865000D01*
X125628061Y-87865000D01*
X125428102Y-87904774D01*
X125239744Y-87982795D01*
X125070226Y-88096063D01*
X124926063Y-88240226D01*
X124812795Y-88409744D01*
X124734774Y-88598102D01*
X124695000Y-88798061D01*
X124695000Y-89001939D01*
X124734774Y-89201898D01*
X124812795Y-89390256D01*
X124926063Y-89559774D01*
X125070226Y-89703937D01*
X125239744Y-89817205D01*
X125428102Y-89895226D01*
X125628061Y-89935000D01*
X125690199Y-89935000D01*
X126436201Y-90681003D01*
X126459999Y-90710001D01*
X126575724Y-90804974D01*
X126707753Y-90875546D01*
X126851014Y-90919003D01*
X126962667Y-90930000D01*
X126962676Y-90930000D01*
X126999999Y-90933676D01*
X127037322Y-90930000D01*
X132445987Y-90930000D01*
X132432795Y-90949744D01*
X132354774Y-91138102D01*
X132315000Y-91338061D01*
X132315000Y-91541939D01*
X132354774Y-91741898D01*
X132432795Y-91930256D01*
X132546063Y-92099774D01*
X132590001Y-92143712D01*
X132590000Y-94546289D01*
X132546063Y-94590226D01*
X132432795Y-94759744D01*
X132354774Y-94948102D01*
X132315000Y-95148061D01*
X132315000Y-95351939D01*
X132354774Y-95551898D01*
X132432795Y-95740256D01*
X132546063Y-95909774D01*
X132690226Y-96053937D01*
X132859744Y-96167205D01*
X133048102Y-96245226D01*
X133248061Y-96285000D01*
X133451939Y-96285000D01*
X133651898Y-96245226D01*
X133840256Y-96167205D01*
X133985000Y-96070490D01*
X134129744Y-96167205D01*
X134318102Y-96245226D01*
X134518061Y-96285000D01*
X134721939Y-96285000D01*
X134921898Y-96245226D01*
X135110256Y-96167205D01*
X135255000Y-96070490D01*
X135399744Y-96167205D01*
X135588102Y-96245226D01*
X135788061Y-96285000D01*
X135991939Y-96285000D01*
X136191898Y-96245226D01*
X136380256Y-96167205D01*
X136400000Y-96154012D01*
X136400000Y-96205197D01*
X134580199Y-98025000D01*
X134518061Y-98025000D01*
X134318102Y-98064774D01*
X134129744Y-98142795D01*
X133960226Y-98256063D01*
X133816063Y-98400226D01*
X133702795Y-98569744D01*
X133624774Y-98758102D01*
X133585000Y-98958061D01*
X133585000Y-99161939D01*
X133624774Y-99361898D01*
X133702795Y-99550256D01*
X133816063Y-99719774D01*
X133960226Y-99863937D01*
X134129744Y-99977205D01*
X134318102Y-100055226D01*
X134518061Y-100095000D01*
X134721939Y-100095000D01*
X134921898Y-100055226D01*
X135110256Y-99977205D01*
X135279774Y-99863937D01*
X135423937Y-99719774D01*
X135537205Y-99550256D01*
X135615226Y-99361898D01*
X135655000Y-99161939D01*
X135655000Y-99099801D01*
X137670000Y-97084803D01*
X137670000Y-98745198D01*
X134580199Y-101835000D01*
X134518061Y-101835000D01*
X134318102Y-101874774D01*
X134129744Y-101952795D01*
X133960226Y-102066063D01*
X133816063Y-102210226D01*
X133702795Y-102379744D01*
X133624774Y-102568102D01*
X133585000Y-102768061D01*
X133585000Y-102971939D01*
X133624774Y-103171898D01*
X133702795Y-103360256D01*
X133816063Y-103529774D01*
X133960226Y-103673937D01*
X134129744Y-103787205D01*
X134318102Y-103865226D01*
X134518061Y-103905000D01*
X134721939Y-103905000D01*
X134921898Y-103865226D01*
X135110256Y-103787205D01*
X135279774Y-103673937D01*
X135423937Y-103529774D01*
X135537205Y-103360256D01*
X135615226Y-103171898D01*
X135655000Y-102971939D01*
X135655000Y-102909801D01*
X138940000Y-99624802D01*
X138940000Y-102555198D01*
X134580199Y-106915000D01*
X134518061Y-106915000D01*
X134318102Y-106954774D01*
X134129744Y-107032795D01*
X133960226Y-107146063D01*
X133816063Y-107290226D01*
X133702795Y-107459744D01*
X133624774Y-107648102D01*
X133585000Y-107848061D01*
X133585000Y-108051939D01*
X133624774Y-108251898D01*
X133702795Y-108440256D01*
X133816063Y-108609774D01*
X133960226Y-108753937D01*
X134129744Y-108867205D01*
X134318102Y-108945226D01*
X134518061Y-108985000D01*
X134721939Y-108985000D01*
X134921898Y-108945226D01*
X135110256Y-108867205D01*
X135279774Y-108753937D01*
X135423937Y-108609774D01*
X135537205Y-108440256D01*
X135615226Y-108251898D01*
X135655000Y-108051939D01*
X135655000Y-107989801D01*
X140210000Y-103434802D01*
X140210000Y-107635198D01*
X136845199Y-111000000D01*
X135323711Y-111000000D01*
X135279774Y-110956063D01*
X135110256Y-110842795D01*
X134921898Y-110764774D01*
X134721939Y-110725000D01*
X134518061Y-110725000D01*
X134318102Y-110764774D01*
X134129744Y-110842795D01*
X133960226Y-110956063D01*
X133816063Y-111100226D01*
X133702795Y-111269744D01*
X133624774Y-111458102D01*
X133585000Y-111658061D01*
X133585000Y-111861939D01*
X133624774Y-112061898D01*
X133702795Y-112250256D01*
X133816063Y-112419774D01*
X133960226Y-112563937D01*
X134129744Y-112677205D01*
X134318102Y-112755226D01*
X134518061Y-112795000D01*
X134721939Y-112795000D01*
X134921898Y-112755226D01*
X135110256Y-112677205D01*
X135279774Y-112563937D01*
X135323711Y-112520000D01*
X137122678Y-112520000D01*
X137160000Y-112523676D01*
X137197322Y-112520000D01*
X137197333Y-112520000D01*
X137308986Y-112509003D01*
X137452247Y-112465546D01*
X137584276Y-112394974D01*
X137700001Y-112300001D01*
X137723804Y-112270997D01*
X141481004Y-108513798D01*
X141510001Y-108490001D01*
X141604974Y-108374276D01*
X141675546Y-108242247D01*
X141719003Y-108098986D01*
X141730000Y-107987333D01*
X141730000Y-107987325D01*
X141733676Y-107950000D01*
X141730000Y-107912675D01*
X141730000Y-93345000D01*
X142236928Y-93345000D01*
X142236928Y-94615000D01*
X142249188Y-94739482D01*
X142285498Y-94859180D01*
X142344463Y-94969494D01*
X142423815Y-95066185D01*
X142520506Y-95145537D01*
X142630820Y-95204502D01*
X142750518Y-95240812D01*
X142875000Y-95253072D01*
X144145000Y-95253072D01*
X144269482Y-95240812D01*
X144389180Y-95204502D01*
X144499494Y-95145537D01*
X144596185Y-95066185D01*
X144675537Y-94969494D01*
X144734502Y-94859180D01*
X144770812Y-94739482D01*
X144783072Y-94615000D01*
X144783072Y-94120528D01*
X144828805Y-94350445D01*
X144924541Y-94581571D01*
X145063527Y-94789578D01*
X145240422Y-94966473D01*
X145448429Y-95105459D01*
X145679555Y-95201195D01*
X145924916Y-95250000D01*
X146175084Y-95250000D01*
X146420445Y-95201195D01*
X146651571Y-95105459D01*
X146859578Y-94966473D01*
X147036473Y-94789578D01*
X147175459Y-94581571D01*
X147271195Y-94350445D01*
X147320000Y-94105084D01*
X147368805Y-94350445D01*
X147464541Y-94581571D01*
X147603527Y-94789578D01*
X147780422Y-94966473D01*
X147988429Y-95105459D01*
X148219555Y-95201195D01*
X148464916Y-95250000D01*
X148715084Y-95250000D01*
X148960445Y-95201195D01*
X149191571Y-95105459D01*
X149399578Y-94966473D01*
X149576473Y-94789578D01*
X149715459Y-94581571D01*
X149811195Y-94350445D01*
X149860000Y-94105084D01*
X149908805Y-94350445D01*
X150004541Y-94581571D01*
X150143527Y-94789578D01*
X150320422Y-94966473D01*
X150528429Y-95105459D01*
X150759555Y-95201195D01*
X151004916Y-95250000D01*
X151255084Y-95250000D01*
X151500445Y-95201195D01*
X151731571Y-95105459D01*
X151939578Y-94966473D01*
X152116473Y-94789578D01*
X152255459Y-94581571D01*
X152351195Y-94350445D01*
X152400000Y-94105084D01*
X152448805Y-94350445D01*
X152544541Y-94581571D01*
X152683527Y-94789578D01*
X152860422Y-94966473D01*
X153068429Y-95105459D01*
X153299555Y-95201195D01*
X153544916Y-95250000D01*
X153795084Y-95250000D01*
X154040445Y-95201195D01*
X154271571Y-95105459D01*
X154479578Y-94966473D01*
X154656473Y-94789578D01*
X154795459Y-94581571D01*
X154891195Y-94350445D01*
X154940000Y-94105084D01*
X154988805Y-94350445D01*
X155084541Y-94581571D01*
X155223527Y-94789578D01*
X155400422Y-94966473D01*
X155608429Y-95105459D01*
X155839555Y-95201195D01*
X156084916Y-95250000D01*
X156335084Y-95250000D01*
X156580445Y-95201195D01*
X156811571Y-95105459D01*
X157019578Y-94966473D01*
X157196473Y-94789578D01*
X157335459Y-94581571D01*
X157431195Y-94350445D01*
X157480000Y-94105084D01*
X157480000Y-93854916D01*
X157431195Y-93609555D01*
X157335459Y-93378429D01*
X157196473Y-93170422D01*
X157019578Y-92993527D01*
X156811571Y-92854541D01*
X156580445Y-92758805D01*
X156335084Y-92710000D01*
X156084916Y-92710000D01*
X155839555Y-92758805D01*
X155608429Y-92854541D01*
X155400422Y-92993527D01*
X155223527Y-93170422D01*
X155084541Y-93378429D01*
X154988805Y-93609555D01*
X154940000Y-93854916D01*
X154891195Y-93609555D01*
X154795459Y-93378429D01*
X154656473Y-93170422D01*
X154479578Y-92993527D01*
X154271571Y-92854541D01*
X154040445Y-92758805D01*
X153795084Y-92710000D01*
X153544916Y-92710000D01*
X153299555Y-92758805D01*
X153068429Y-92854541D01*
X152860422Y-92993527D01*
X152683527Y-93170422D01*
X152544541Y-93378429D01*
X152448805Y-93609555D01*
X152400000Y-93854916D01*
X152351195Y-93609555D01*
X152255459Y-93378429D01*
X152116473Y-93170422D01*
X151939578Y-92993527D01*
X151731571Y-92854541D01*
X151500445Y-92758805D01*
X151255084Y-92710000D01*
X151004916Y-92710000D01*
X150759555Y-92758805D01*
X150528429Y-92854541D01*
X150320422Y-92993527D01*
X150143527Y-93170422D01*
X150004541Y-93378429D01*
X149908805Y-93609555D01*
X149860000Y-93854916D01*
X149811195Y-93609555D01*
X149715459Y-93378429D01*
X149576473Y-93170422D01*
X149399578Y-92993527D01*
X149191571Y-92854541D01*
X148960445Y-92758805D01*
X148715084Y-92710000D01*
X148464916Y-92710000D01*
X148219555Y-92758805D01*
X147988429Y-92854541D01*
X147780422Y-92993527D01*
X147603527Y-93170422D01*
X147464541Y-93378429D01*
X147368805Y-93609555D01*
X147320000Y-93854916D01*
X147271195Y-93609555D01*
X147175459Y-93378429D01*
X147036473Y-93170422D01*
X146859578Y-92993527D01*
X146651571Y-92854541D01*
X146420445Y-92758805D01*
X146175084Y-92710000D01*
X145924916Y-92710000D01*
X145679555Y-92758805D01*
X145448429Y-92854541D01*
X145240422Y-92993527D01*
X145063527Y-93170422D01*
X144924541Y-93378429D01*
X144828805Y-93609555D01*
X144783072Y-93839472D01*
X144783072Y-93345000D01*
X144770812Y-93220518D01*
X144734502Y-93100820D01*
X144675537Y-92990506D01*
X144596185Y-92893815D01*
X144499494Y-92814463D01*
X144389180Y-92755498D01*
X144269482Y-92719188D01*
X144145000Y-92706928D01*
X142875000Y-92706928D01*
X142750518Y-92719188D01*
X142630820Y-92755498D01*
X142520506Y-92814463D01*
X142423815Y-92893815D01*
X142344463Y-92990506D01*
X142285498Y-93100820D01*
X142249188Y-93220518D01*
X142236928Y-93345000D01*
X141730000Y-93345000D01*
X141730000Y-92143711D01*
X141773937Y-92099774D01*
X141887205Y-91930256D01*
X141965226Y-91741898D01*
X142005000Y-91541939D01*
X142005000Y-91338061D01*
X141965226Y-91138102D01*
X141887205Y-90949744D01*
X141874013Y-90930000D01*
X161800001Y-90930000D01*
X161800000Y-103436289D01*
X161756063Y-103480226D01*
X161642795Y-103649744D01*
X161564774Y-103838102D01*
X161525000Y-104038061D01*
X161525000Y-104241939D01*
X161564774Y-104441898D01*
X161642795Y-104630256D01*
X161756063Y-104799774D01*
X161900226Y-104943937D01*
X161930819Y-104964379D01*
X158240000Y-108655198D01*
X158240000Y-103573711D01*
X158283937Y-103529774D01*
X158397205Y-103360256D01*
X158475226Y-103171898D01*
X158515000Y-102971939D01*
X158515000Y-102768061D01*
X158475226Y-102568102D01*
X158397205Y-102379744D01*
X158283937Y-102210226D01*
X158139774Y-102066063D01*
X157970256Y-101952795D01*
X157781898Y-101874774D01*
X157581939Y-101835000D01*
X157378061Y-101835000D01*
X157178102Y-101874774D01*
X156989744Y-101952795D01*
X156820226Y-102066063D01*
X156676063Y-102210226D01*
X156562795Y-102379744D01*
X156484774Y-102568102D01*
X156445000Y-102768061D01*
X156445000Y-102971939D01*
X156484774Y-103171898D01*
X156562795Y-103360256D01*
X156676063Y-103529774D01*
X156720001Y-103573712D01*
X156720000Y-108905197D01*
X154625199Y-111000000D01*
X154373711Y-111000000D01*
X154329774Y-110956063D01*
X154160256Y-110842795D01*
X153971898Y-110764774D01*
X153771939Y-110725000D01*
X153568061Y-110725000D01*
X153368102Y-110764774D01*
X153179744Y-110842795D01*
X153010226Y-110956063D01*
X152866063Y-111100226D01*
X152752795Y-111269744D01*
X152674774Y-111458102D01*
X152635000Y-111658061D01*
X152635000Y-111861939D01*
X152674774Y-112061898D01*
X152752795Y-112250256D01*
X152866063Y-112419774D01*
X153010226Y-112563937D01*
X153179744Y-112677205D01*
X153368102Y-112755226D01*
X153568061Y-112795000D01*
X153771939Y-112795000D01*
X153971898Y-112755226D01*
X154160256Y-112677205D01*
X154329774Y-112563937D01*
X154373711Y-112520000D01*
X154375199Y-112520000D01*
X148079003Y-118816196D01*
X148049999Y-118839999D01*
X147994871Y-118907174D01*
X147955026Y-118955724D01*
X147884455Y-119087753D01*
X147884454Y-119087754D01*
X147840997Y-119231015D01*
X147830000Y-119342668D01*
X147830000Y-119342678D01*
X147826324Y-119380000D01*
X147830000Y-119417322D01*
X147830001Y-127051956D01*
X147675241Y-127155363D01*
X147475363Y-127355241D01*
X147318320Y-127590273D01*
X147210147Y-127851426D01*
X147155000Y-128128665D01*
X147155000Y-128411335D01*
X147210147Y-128688574D01*
X147318320Y-128949727D01*
X147475363Y-129184759D01*
X147675241Y-129384637D01*
X147910273Y-129541680D01*
X148171426Y-129649853D01*
X148448665Y-129705000D01*
X148731335Y-129705000D01*
X149008574Y-129649853D01*
X149269727Y-129541680D01*
X149504759Y-129384637D01*
X149704637Y-129184759D01*
X149860000Y-128952241D01*
X150015363Y-129184759D01*
X150215241Y-129384637D01*
X150450273Y-129541680D01*
X150711426Y-129649853D01*
X150988665Y-129705000D01*
X151271335Y-129705000D01*
X151548574Y-129649853D01*
X151809727Y-129541680D01*
X152044759Y-129384637D01*
X152244637Y-129184759D01*
X152400000Y-128952241D01*
X152555363Y-129184759D01*
X152755241Y-129384637D01*
X152990273Y-129541680D01*
X153251426Y-129649853D01*
X153528665Y-129705000D01*
X153811335Y-129705000D01*
X154088574Y-129649853D01*
X154349727Y-129541680D01*
X154584759Y-129384637D01*
X154784637Y-129184759D01*
X154940000Y-128952241D01*
X155095363Y-129184759D01*
X155295241Y-129384637D01*
X155530273Y-129541680D01*
X155791426Y-129649853D01*
X156068665Y-129705000D01*
X156351335Y-129705000D01*
X156628574Y-129649853D01*
X156889727Y-129541680D01*
X157124759Y-129384637D01*
X157324637Y-129184759D01*
X157480000Y-128952241D01*
X157635363Y-129184759D01*
X157835241Y-129384637D01*
X158070273Y-129541680D01*
X158331426Y-129649853D01*
X158608665Y-129705000D01*
X158891335Y-129705000D01*
X159168574Y-129649853D01*
X159429727Y-129541680D01*
X159664759Y-129384637D01*
X159864637Y-129184759D01*
X160020000Y-128952241D01*
X160175363Y-129184759D01*
X160375241Y-129384637D01*
X160610273Y-129541680D01*
X160871426Y-129649853D01*
X161148665Y-129705000D01*
X161431335Y-129705000D01*
X161708574Y-129649853D01*
X161969727Y-129541680D01*
X162204759Y-129384637D01*
X162404637Y-129184759D01*
X162561680Y-128949727D01*
X162669853Y-128688574D01*
X162725000Y-128411335D01*
X162725000Y-128128665D01*
X162669853Y-127851426D01*
X162561680Y-127590273D01*
X162404637Y-127355241D01*
X162204759Y-127155363D01*
X161969727Y-126998320D01*
X161708574Y-126890147D01*
X161431335Y-126835000D01*
X161148665Y-126835000D01*
X160871426Y-126890147D01*
X160610273Y-126998320D01*
X160375241Y-127155363D01*
X160175363Y-127355241D01*
X160020000Y-127587759D01*
X159864637Y-127355241D01*
X159664759Y-127155363D01*
X159429727Y-126998320D01*
X159168574Y-126890147D01*
X158891335Y-126835000D01*
X158608665Y-126835000D01*
X158331426Y-126890147D01*
X158070273Y-126998320D01*
X157835241Y-127155363D01*
X157635363Y-127355241D01*
X157480000Y-127587759D01*
X157324637Y-127355241D01*
X157124759Y-127155363D01*
X156889727Y-126998320D01*
X156628574Y-126890147D01*
X156351335Y-126835000D01*
X156068665Y-126835000D01*
X155791426Y-126890147D01*
X155530273Y-126998320D01*
X155295241Y-127155363D01*
X155095363Y-127355241D01*
X154940000Y-127587759D01*
X154784637Y-127355241D01*
X154584759Y-127155363D01*
X154349727Y-126998320D01*
X154088574Y-126890147D01*
X153811335Y-126835000D01*
X153528665Y-126835000D01*
X153251426Y-126890147D01*
X152990273Y-126998320D01*
X152755241Y-127155363D01*
X152555363Y-127355241D01*
X152400000Y-127587759D01*
X152244637Y-127355241D01*
X152044759Y-127155363D01*
X151809727Y-126998320D01*
X151548574Y-126890147D01*
X151271335Y-126835000D01*
X150988665Y-126835000D01*
X150711426Y-126890147D01*
X150450273Y-126998320D01*
X150215241Y-127155363D01*
X150015363Y-127355241D01*
X149860000Y-127587759D01*
X149704637Y-127355241D01*
X149504759Y-127155363D01*
X149350000Y-127051957D01*
X149350000Y-119694801D01*
X157386740Y-111658061D01*
X157715000Y-111658061D01*
X157715000Y-111861939D01*
X157754774Y-112061898D01*
X157832795Y-112250256D01*
X157946063Y-112419774D01*
X157990000Y-112463711D01*
X157990000Y-112992677D01*
X157986324Y-113030000D01*
X157990000Y-113067322D01*
X157990000Y-113067332D01*
X158000997Y-113178985D01*
X158044454Y-113322246D01*
X158115026Y-113454276D01*
X158154871Y-113502826D01*
X158209999Y-113570001D01*
X158239003Y-113593804D01*
X162795000Y-118149802D01*
X162795000Y-118211939D01*
X162834774Y-118411898D01*
X162912795Y-118600256D01*
X163026063Y-118769774D01*
X163170226Y-118913937D01*
X163339744Y-119027205D01*
X163528102Y-119105226D01*
X163728061Y-119145000D01*
X163931939Y-119145000D01*
X164131898Y-119105226D01*
X164320256Y-119027205D01*
X164489774Y-118913937D01*
X164633937Y-118769774D01*
X164747205Y-118600256D01*
X164825226Y-118411898D01*
X164865000Y-118211939D01*
X164865000Y-118008061D01*
X164825226Y-117808102D01*
X164747205Y-117619744D01*
X164633937Y-117450226D01*
X164489774Y-117306063D01*
X164320256Y-117192795D01*
X164131898Y-117114774D01*
X163931939Y-117075000D01*
X163869802Y-117075000D01*
X159510000Y-112715199D01*
X159510000Y-112463711D01*
X159553937Y-112419774D01*
X159667205Y-112250256D01*
X159745226Y-112061898D01*
X159785000Y-111861939D01*
X159785000Y-111658061D01*
X159745226Y-111458102D01*
X159667205Y-111269744D01*
X159553937Y-111100226D01*
X159409774Y-110956063D01*
X159240256Y-110842795D01*
X159051898Y-110764774D01*
X158851939Y-110725000D01*
X158648061Y-110725000D01*
X158448102Y-110764774D01*
X158259744Y-110842795D01*
X158090226Y-110956063D01*
X157946063Y-111100226D01*
X157832795Y-111269744D01*
X157754774Y-111458102D01*
X157715000Y-111658061D01*
X157386740Y-111658061D01*
X163869802Y-105175000D01*
X163931939Y-105175000D01*
X164131898Y-105135226D01*
X164320256Y-105057205D01*
X164489774Y-104943937D01*
X164633937Y-104799774D01*
X164747205Y-104630256D01*
X164825226Y-104441898D01*
X164865000Y-104241939D01*
X164865000Y-104038061D01*
X164825226Y-103838102D01*
X164747205Y-103649744D01*
X164633937Y-103480226D01*
X164489774Y-103336063D01*
X164320256Y-103222795D01*
X164131898Y-103144774D01*
X163931939Y-103105000D01*
X163728061Y-103105000D01*
X163528102Y-103144774D01*
X163339744Y-103222795D01*
X163320000Y-103235987D01*
X163320000Y-90207333D01*
X163323677Y-90170000D01*
X163309003Y-90021014D01*
X163265546Y-89877753D01*
X163194974Y-89745724D01*
X163100001Y-89629999D01*
X162984276Y-89535026D01*
X162852247Y-89464454D01*
X162708986Y-89420997D01*
X162597333Y-89410000D01*
X162560000Y-89406323D01*
X162522667Y-89410000D01*
X141874013Y-89410000D01*
X141887205Y-89390256D01*
X141965226Y-89201898D01*
X142005000Y-89001939D01*
X142005000Y-88798061D01*
X141965226Y-88598102D01*
X141887205Y-88409744D01*
X141773937Y-88240226D01*
X141730000Y-88196289D01*
X141730000Y-87793999D01*
X142455793Y-87068207D01*
X142523527Y-87169578D01*
X142700422Y-87346473D01*
X142908429Y-87485459D01*
X143139555Y-87581195D01*
X143384916Y-87630000D01*
X143635084Y-87630000D01*
X143880445Y-87581195D01*
X144111571Y-87485459D01*
X144319578Y-87346473D01*
X144496473Y-87169578D01*
X144635459Y-86961571D01*
X144731195Y-86730445D01*
X144780000Y-86485084D01*
X144828805Y-86730445D01*
X144924541Y-86961571D01*
X145063527Y-87169578D01*
X145240422Y-87346473D01*
X145448429Y-87485459D01*
X145679555Y-87581195D01*
X145924916Y-87630000D01*
X146175084Y-87630000D01*
X146420445Y-87581195D01*
X146651571Y-87485459D01*
X146859578Y-87346473D01*
X147036473Y-87169578D01*
X147175459Y-86961571D01*
X147271195Y-86730445D01*
X147320000Y-86485084D01*
X147368805Y-86730445D01*
X147464541Y-86961571D01*
X147603527Y-87169578D01*
X147780422Y-87346473D01*
X147988429Y-87485459D01*
X148219555Y-87581195D01*
X148464916Y-87630000D01*
X148715084Y-87630000D01*
X148960445Y-87581195D01*
X149191571Y-87485459D01*
X149399578Y-87346473D01*
X149576473Y-87169578D01*
X149715459Y-86961571D01*
X149811195Y-86730445D01*
X149860000Y-86485084D01*
X149908805Y-86730445D01*
X150004541Y-86961571D01*
X150143527Y-87169578D01*
X150320422Y-87346473D01*
X150528429Y-87485459D01*
X150759555Y-87581195D01*
X151004916Y-87630000D01*
X151255084Y-87630000D01*
X151500445Y-87581195D01*
X151731571Y-87485459D01*
X151939578Y-87346473D01*
X152116473Y-87169578D01*
X152255459Y-86961571D01*
X152351195Y-86730445D01*
X152400000Y-86485084D01*
X152448805Y-86730445D01*
X152544541Y-86961571D01*
X152683527Y-87169578D01*
X152860422Y-87346473D01*
X153068429Y-87485459D01*
X153299555Y-87581195D01*
X153544916Y-87630000D01*
X153795084Y-87630000D01*
X154040445Y-87581195D01*
X154271571Y-87485459D01*
X154479578Y-87346473D01*
X154656473Y-87169578D01*
X154795459Y-86961571D01*
X154891195Y-86730445D01*
X154940000Y-86485084D01*
X154988805Y-86730445D01*
X155084541Y-86961571D01*
X155223527Y-87169578D01*
X155400422Y-87346473D01*
X155608429Y-87485459D01*
X155839555Y-87581195D01*
X156084916Y-87630000D01*
X156335084Y-87630000D01*
X156580445Y-87581195D01*
X156811571Y-87485459D01*
X157019578Y-87346473D01*
X157196473Y-87169578D01*
X157335459Y-86961571D01*
X157431195Y-86730445D01*
X157480000Y-86485084D01*
X157480000Y-86234916D01*
X157431195Y-85989555D01*
X157335459Y-85758429D01*
X157196473Y-85550422D01*
X157019578Y-85373527D01*
X156811571Y-85234541D01*
X156580445Y-85138805D01*
X156335084Y-85090000D01*
X156084916Y-85090000D01*
X155839555Y-85138805D01*
X155608429Y-85234541D01*
X155400422Y-85373527D01*
X155223527Y-85550422D01*
X155084541Y-85758429D01*
X154988805Y-85989555D01*
X154940000Y-86234916D01*
X154891195Y-85989555D01*
X154795459Y-85758429D01*
X154656473Y-85550422D01*
X154479578Y-85373527D01*
X154271571Y-85234541D01*
X154040445Y-85138805D01*
X153795084Y-85090000D01*
X153544916Y-85090000D01*
X153299555Y-85138805D01*
X153068429Y-85234541D01*
X152860422Y-85373527D01*
X152683527Y-85550422D01*
X152544541Y-85758429D01*
X152448805Y-85989555D01*
X152400000Y-86234916D01*
X152351195Y-85989555D01*
X152255459Y-85758429D01*
X152116473Y-85550422D01*
X151939578Y-85373527D01*
X151731571Y-85234541D01*
X151500445Y-85138805D01*
X151255084Y-85090000D01*
X151004916Y-85090000D01*
X150759555Y-85138805D01*
X150528429Y-85234541D01*
X150320422Y-85373527D01*
X150143527Y-85550422D01*
X150004541Y-85758429D01*
X149908805Y-85989555D01*
X149860000Y-86234916D01*
X149811195Y-85989555D01*
X149715459Y-85758429D01*
X149576473Y-85550422D01*
X149399578Y-85373527D01*
X149191571Y-85234541D01*
X148960445Y-85138805D01*
X148715084Y-85090000D01*
X148464916Y-85090000D01*
X148219555Y-85138805D01*
X147988429Y-85234541D01*
X147780422Y-85373527D01*
X147603527Y-85550422D01*
X147464541Y-85758429D01*
X147368805Y-85989555D01*
X147320000Y-86234916D01*
X147271195Y-85989555D01*
X147175459Y-85758429D01*
X147036473Y-85550422D01*
X146859578Y-85373527D01*
X146651571Y-85234541D01*
X146420445Y-85138805D01*
X146175084Y-85090000D01*
X145924916Y-85090000D01*
X145679555Y-85138805D01*
X145448429Y-85234541D01*
X145240422Y-85373527D01*
X145063527Y-85550422D01*
X144924541Y-85758429D01*
X144828805Y-85989555D01*
X144780000Y-86234916D01*
X144731195Y-85989555D01*
X144635459Y-85758429D01*
X144496473Y-85550422D01*
X144319578Y-85373527D01*
X144218207Y-85305793D01*
X144944001Y-84580000D01*
X157442678Y-84580000D01*
X157480000Y-84583676D01*
X157517322Y-84580000D01*
X157517333Y-84580000D01*
X157628986Y-84569003D01*
X157772247Y-84525546D01*
X157904276Y-84454974D01*
X158020001Y-84360001D01*
X158043804Y-84330997D01*
X160966114Y-81408688D01*
X161148665Y-81445000D01*
X161431335Y-81445000D01*
X161708574Y-81389853D01*
X161969727Y-81281680D01*
X162204759Y-81124637D01*
X162404637Y-80924759D01*
X162561680Y-80689727D01*
X162669853Y-80428574D01*
X162725000Y-80151335D01*
X162725000Y-79868665D01*
X162669853Y-79591426D01*
X162561680Y-79330273D01*
X162404637Y-79095241D01*
X162204759Y-78895363D01*
X161969727Y-78738320D01*
X161708574Y-78630147D01*
X161431335Y-78575000D01*
X161148665Y-78575000D01*
X160871426Y-78630147D01*
X160610273Y-78738320D01*
X160375241Y-78895363D01*
X160175363Y-79095241D01*
X160020000Y-79327759D01*
X159864637Y-79095241D01*
X159664759Y-78895363D01*
X159429727Y-78738320D01*
X159168574Y-78630147D01*
X158891335Y-78575000D01*
X158608665Y-78575000D01*
X158331426Y-78630147D01*
X158070273Y-78738320D01*
X157835241Y-78895363D01*
X157635363Y-79095241D01*
X157480000Y-79327759D01*
X157324637Y-79095241D01*
X157124759Y-78895363D01*
X156889727Y-78738320D01*
X156628574Y-78630147D01*
X156351335Y-78575000D01*
X156068665Y-78575000D01*
X155791426Y-78630147D01*
X155530273Y-78738320D01*
X155295241Y-78895363D01*
X155095363Y-79095241D01*
X154940000Y-79327759D01*
X154784637Y-79095241D01*
X154584759Y-78895363D01*
X154349727Y-78738320D01*
X154088574Y-78630147D01*
X153811335Y-78575000D01*
X153528665Y-78575000D01*
X153251426Y-78630147D01*
X152990273Y-78738320D01*
X152755241Y-78895363D01*
X152555363Y-79095241D01*
X152400000Y-79327759D01*
X152244637Y-79095241D01*
X152044759Y-78895363D01*
X151809727Y-78738320D01*
X151548574Y-78630147D01*
X151271335Y-78575000D01*
X150988665Y-78575000D01*
X150711426Y-78630147D01*
X150450273Y-78738320D01*
X150215241Y-78895363D01*
X150015363Y-79095241D01*
X149860000Y-79327759D01*
X149704637Y-79095241D01*
X149504759Y-78895363D01*
X149269727Y-78738320D01*
X149008574Y-78630147D01*
X148731335Y-78575000D01*
X148448665Y-78575000D01*
X148171426Y-78630147D01*
X147910273Y-78738320D01*
X147675241Y-78895363D01*
X147475363Y-79095241D01*
X147320000Y-79327759D01*
X147164637Y-79095241D01*
X146964759Y-78895363D01*
X146729727Y-78738320D01*
X146468574Y-78630147D01*
X146191335Y-78575000D01*
X145908665Y-78575000D01*
X145631426Y-78630147D01*
X145370273Y-78738320D01*
X145135241Y-78895363D01*
X144935363Y-79095241D01*
X144780000Y-79327759D01*
X144624637Y-79095241D01*
X144424759Y-78895363D01*
X144189727Y-78738320D01*
X143928574Y-78630147D01*
X143651335Y-78575000D01*
X143368665Y-78575000D01*
X143091426Y-78630147D01*
X142830273Y-78738320D01*
X142595241Y-78895363D01*
X142395363Y-79095241D01*
X142238320Y-79330273D01*
X142130147Y-79591426D01*
X142075000Y-79868665D01*
X142075000Y-80151335D01*
X142130147Y-80428574D01*
X142238320Y-80689727D01*
X142395363Y-80924759D01*
X142595241Y-81124637D01*
X142830273Y-81281680D01*
X143091426Y-81389853D01*
X143368665Y-81445000D01*
X143573181Y-81445000D01*
X143535734Y-81465016D01*
X143420009Y-81559989D01*
X143396211Y-81588987D01*
X137120199Y-87865000D01*
X137058061Y-87865000D01*
X136858102Y-87904774D01*
X136669744Y-87982795D01*
X136650000Y-87995987D01*
X136650000Y-87063711D01*
X136693937Y-87019774D01*
X136807205Y-86850256D01*
X136885226Y-86661898D01*
X136925000Y-86461939D01*
X136925000Y-86258061D01*
X136885226Y-86058102D01*
X136807205Y-85869744D01*
X136693937Y-85700226D01*
X136549774Y-85556063D01*
X136380256Y-85442795D01*
X136191898Y-85364774D01*
X135991939Y-85325000D01*
X135788061Y-85325000D01*
X135588102Y-85364774D01*
X135399744Y-85442795D01*
X135380000Y-85455987D01*
X135380000Y-81029396D01*
X135484637Y-80924759D01*
X135640000Y-80692241D01*
X135795363Y-80924759D01*
X135995241Y-81124637D01*
X136230273Y-81281680D01*
X136491426Y-81389853D01*
X136768665Y-81445000D01*
X137051335Y-81445000D01*
X137328574Y-81389853D01*
X137589727Y-81281680D01*
X137824759Y-81124637D01*
X138024637Y-80924759D01*
X138180000Y-80692241D01*
X138335363Y-80924759D01*
X138535241Y-81124637D01*
X138770273Y-81281680D01*
X139031426Y-81389853D01*
X139308665Y-81445000D01*
X139591335Y-81445000D01*
X139868574Y-81389853D01*
X140129727Y-81281680D01*
X140364759Y-81124637D01*
X140564637Y-80924759D01*
X140721680Y-80689727D01*
X140829853Y-80428574D01*
X140885000Y-80151335D01*
X140885000Y-79868665D01*
X140829853Y-79591426D01*
X140721680Y-79330273D01*
X140564637Y-79095241D01*
X140364759Y-78895363D01*
X140129727Y-78738320D01*
X139868574Y-78630147D01*
X139591335Y-78575000D01*
X139308665Y-78575000D01*
X139031426Y-78630147D01*
X138770273Y-78738320D01*
X138535241Y-78895363D01*
X138335363Y-79095241D01*
X138180000Y-79327759D01*
X138024637Y-79095241D01*
X137824759Y-78895363D01*
X137589727Y-78738320D01*
X137328574Y-78630147D01*
X137051335Y-78575000D01*
X136768665Y-78575000D01*
X136491426Y-78630147D01*
X136230273Y-78738320D01*
X135995241Y-78895363D01*
X135795363Y-79095241D01*
X135640000Y-79327759D01*
X135484637Y-79095241D01*
X135284759Y-78895363D01*
X135049727Y-78738320D01*
X134788574Y-78630147D01*
X134511335Y-78575000D01*
X134228665Y-78575000D01*
X133951426Y-78630147D01*
X133690273Y-78738320D01*
X133455241Y-78895363D01*
X133255363Y-79095241D01*
X133100000Y-79327759D01*
X132944637Y-79095241D01*
X132744759Y-78895363D01*
X132509727Y-78738320D01*
X132248574Y-78630147D01*
X131971335Y-78575000D01*
X131688665Y-78575000D01*
X131411426Y-78630147D01*
X131150273Y-78738320D01*
X130915241Y-78895363D01*
X130715363Y-79095241D01*
X130560000Y-79327759D01*
X130404637Y-79095241D01*
X130204759Y-78895363D01*
X129969727Y-78738320D01*
X129708574Y-78630147D01*
X129431335Y-78575000D01*
X129148665Y-78575000D01*
X128871426Y-78630147D01*
X128610273Y-78738320D01*
X128375241Y-78895363D01*
X128175363Y-79095241D01*
X128020000Y-79327759D01*
X127864637Y-79095241D01*
X127664759Y-78895363D01*
X127429727Y-78738320D01*
X127168574Y-78630147D01*
X126891335Y-78575000D01*
X126608665Y-78575000D01*
X126331426Y-78630147D01*
X126070273Y-78738320D01*
X125835241Y-78895363D01*
X125635363Y-79095241D01*
X125478320Y-79330273D01*
X125473933Y-79340865D01*
X125362385Y-79154869D01*
X125173414Y-78946481D01*
X124947420Y-78778963D01*
X124693087Y-78658754D01*
X124559039Y-78618096D01*
X124337000Y-78740085D01*
X124083000Y-78740085D01*
X123860961Y-78618096D01*
X123726913Y-78658754D01*
X123472580Y-78778963D01*
X123246586Y-78946481D01*
X123057615Y-79154869D01*
X122946067Y-79340865D01*
X122941680Y-79330273D01*
X122784637Y-79095241D01*
X122584759Y-78895363D01*
X122349727Y-78738320D01*
X122088574Y-78630147D01*
X121811335Y-78575000D01*
X121528665Y-78575000D01*
X121251426Y-78630147D01*
X120990273Y-78738320D01*
X120755241Y-78895363D01*
X120555363Y-79095241D01*
X120400000Y-79327759D01*
X120244637Y-79095241D01*
X120044759Y-78895363D01*
X119809727Y-78738320D01*
X119548574Y-78630147D01*
X119271335Y-78575000D01*
X118988665Y-78575000D01*
X118711426Y-78630147D01*
X118450273Y-78738320D01*
X118215241Y-78895363D01*
X118015363Y-79095241D01*
X117860000Y-79327759D01*
X117704637Y-79095241D01*
X117504759Y-78895363D01*
X117269727Y-78738320D01*
X117008574Y-78630147D01*
X116731335Y-78575000D01*
X116448665Y-78575000D01*
X116171426Y-78630147D01*
X115910273Y-78738320D01*
X115675241Y-78895363D01*
X115475363Y-79095241D01*
X115318320Y-79330273D01*
X115210147Y-79591426D01*
X115155000Y-79868665D01*
X114960000Y-79868665D01*
X114960000Y-78130000D01*
X166980000Y-78130000D01*
X166980001Y-130150000D01*
G37*
X166980001Y-130150000D02*
X114960000Y-130150000D01*
X114960000Y-127470000D01*
X124291928Y-127470000D01*
X124291928Y-129070000D01*
X124304188Y-129194482D01*
X124340498Y-129314180D01*
X124399463Y-129424494D01*
X124478815Y-129521185D01*
X124575506Y-129600537D01*
X124685820Y-129659502D01*
X124805518Y-129695812D01*
X124930000Y-129708072D01*
X126530000Y-129708072D01*
X126654482Y-129695812D01*
X126774180Y-129659502D01*
X126884494Y-129600537D01*
X126981185Y-129521185D01*
X127060537Y-129424494D01*
X127119502Y-129314180D01*
X127155812Y-129194482D01*
X127156643Y-129186039D01*
X127355241Y-129384637D01*
X127590273Y-129541680D01*
X127851426Y-129649853D01*
X128128665Y-129705000D01*
X128411335Y-129705000D01*
X128688574Y-129649853D01*
X128949727Y-129541680D01*
X129184759Y-129384637D01*
X129384637Y-129184759D01*
X129540000Y-128952241D01*
X129695363Y-129184759D01*
X129895241Y-129384637D01*
X130130273Y-129541680D01*
X130391426Y-129649853D01*
X130668665Y-129705000D01*
X130951335Y-129705000D01*
X131228574Y-129649853D01*
X131489727Y-129541680D01*
X131724759Y-129384637D01*
X131924637Y-129184759D01*
X132080000Y-128952241D01*
X132235363Y-129184759D01*
X132435241Y-129384637D01*
X132670273Y-129541680D01*
X132931426Y-129649853D01*
X133208665Y-129705000D01*
X133491335Y-129705000D01*
X133768574Y-129649853D01*
X134029727Y-129541680D01*
X134264759Y-129384637D01*
X134464637Y-129184759D01*
X134620000Y-128952241D01*
X134775363Y-129184759D01*
X134975241Y-129384637D01*
X135210273Y-129541680D01*
X135471426Y-129649853D01*
X135748665Y-129705000D01*
X136031335Y-129705000D01*
X136308574Y-129649853D01*
X136569727Y-129541680D01*
X136804759Y-129384637D01*
X137004637Y-129184759D01*
X137161680Y-128949727D01*
X137166067Y-128939135D01*
X137277615Y-129125131D01*
X137466586Y-129333519D01*
X137692580Y-129501037D01*
X137946913Y-129621246D01*
X138080961Y-129661904D01*
X138303000Y-129539915D01*
X138303000Y-128397000D01*
X138557000Y-128397000D01*
X138557000Y-129539915D01*
X138779039Y-129661904D01*
X138913087Y-129621246D01*
X139167420Y-129501037D01*
X139393414Y-129333519D01*
X139582385Y-129125131D01*
X139700000Y-128929018D01*
X139817615Y-129125131D01*
X140006586Y-129333519D01*
X140232580Y-129501037D01*
X140486913Y-129621246D01*
X140620961Y-129661904D01*
X140843000Y-129539915D01*
X140843000Y-128397000D01*
X138557000Y-128397000D01*
X138303000Y-128397000D01*
X138283000Y-128397000D01*
X138283000Y-128143000D01*
X138303000Y-128143000D01*
X138303000Y-127000085D01*
X138557000Y-127000085D01*
X138557000Y-128143000D01*
X140843000Y-128143000D01*
X140843000Y-127000085D01*
X141097000Y-127000085D01*
X141097000Y-128143000D01*
X141117000Y-128143000D01*
X141117000Y-128397000D01*
X141097000Y-128397000D01*
X141097000Y-129539915D01*
X141319039Y-129661904D01*
X141453087Y-129621246D01*
X141707420Y-129501037D01*
X141933414Y-129333519D01*
X142122385Y-129125131D01*
X142233933Y-128939135D01*
X142238320Y-128949727D01*
X142395363Y-129184759D01*
X142595241Y-129384637D01*
X142830273Y-129541680D01*
X143091426Y-129649853D01*
X143368665Y-129705000D01*
X143651335Y-129705000D01*
X143928574Y-129649853D01*
X144189727Y-129541680D01*
X144424759Y-129384637D01*
X144624637Y-129184759D01*
X144781680Y-128949727D01*
X144889853Y-128688574D01*
X144945000Y-128411335D01*
X144945000Y-128128665D01*
X144889853Y-127851426D01*
X144781680Y-127590273D01*
X144624637Y-127355241D01*
X144424759Y-127155363D01*
X144189727Y-126998320D01*
X143928574Y-126890147D01*
X143651335Y-126835000D01*
X143368665Y-126835000D01*
X143091426Y-126890147D01*
X142830273Y-126998320D01*
X142595241Y-127155363D01*
X142395363Y-127355241D01*
X142238320Y-127590273D01*
X142233933Y-127600865D01*
X142122385Y-127414869D01*
X141933414Y-127206481D01*
X141707420Y-127038963D01*
X141453087Y-126918754D01*
X141319039Y-126878096D01*
X141097000Y-127000085D01*
X140843000Y-127000085D01*
X140620961Y-126878096D01*
X140486913Y-126918754D01*
X140232580Y-127038963D01*
X140006586Y-127206481D01*
X139817615Y-127414869D01*
X139700000Y-127610982D01*
X139582385Y-127414869D01*
X139393414Y-127206481D01*
X139167420Y-127038963D01*
X138913087Y-126918754D01*
X138779039Y-126878096D01*
X138557000Y-127000085D01*
X138303000Y-127000085D01*
X138080961Y-126878096D01*
X137946913Y-126918754D01*
X137692580Y-127038963D01*
X137466586Y-127206481D01*
X137277615Y-127414869D01*
X137166067Y-127600865D01*
X137161680Y-127590273D01*
X137004637Y-127355241D01*
X136804759Y-127155363D01*
X136569727Y-126998320D01*
X136308574Y-126890147D01*
X136031335Y-126835000D01*
X135748665Y-126835000D01*
X135471426Y-126890147D01*
X135210273Y-126998320D01*
X134975241Y-127155363D01*
X134775363Y-127355241D01*
X134620000Y-127587759D01*
X134464637Y-127355241D01*
X134264759Y-127155363D01*
X134029727Y-126998320D01*
X133768574Y-126890147D01*
X133491335Y-126835000D01*
X133208665Y-126835000D01*
X132931426Y-126890147D01*
X132670273Y-126998320D01*
X132435241Y-127155363D01*
X132235363Y-127355241D01*
X132080000Y-127587759D01*
X131924637Y-127355241D01*
X131724759Y-127155363D01*
X131489727Y-126998320D01*
X131228574Y-126890147D01*
X130951335Y-126835000D01*
X130668665Y-126835000D01*
X130391426Y-126890147D01*
X130130273Y-126998320D01*
X129895241Y-127155363D01*
X129695363Y-127355241D01*
X129540000Y-127587759D01*
X129384637Y-127355241D01*
X129184759Y-127155363D01*
X128949727Y-126998320D01*
X128688574Y-126890147D01*
X128411335Y-126835000D01*
X128128665Y-126835000D01*
X127851426Y-126890147D01*
X127590273Y-126998320D01*
X127355241Y-127155363D01*
X127156643Y-127353961D01*
X127155812Y-127345518D01*
X127119502Y-127225820D01*
X127060537Y-127115506D01*
X126981185Y-127018815D01*
X126884494Y-126939463D01*
X126774180Y-126880498D01*
X126654482Y-126844188D01*
X126530000Y-126831928D01*
X124930000Y-126831928D01*
X124805518Y-126844188D01*
X124685820Y-126880498D01*
X124575506Y-126939463D01*
X124478815Y-127018815D01*
X124399463Y-127115506D01*
X124340498Y-127225820D01*
X124304188Y-127345518D01*
X124291928Y-127470000D01*
X114960000Y-127470000D01*
X114960000Y-96400000D01*
X116321928Y-96400000D01*
X116334188Y-96524482D01*
X116370498Y-96644180D01*
X116429463Y-96754494D01*
X116508815Y-96851185D01*
X116605506Y-96930537D01*
X116715820Y-96989502D01*
X116835518Y-97025812D01*
X116960000Y-97038072D01*
X117824250Y-97035000D01*
X117983000Y-96876250D01*
X117983000Y-95377000D01*
X118237000Y-95377000D01*
X118237000Y-96876250D01*
X118395750Y-97035000D01*
X119260000Y-97038072D01*
X119384482Y-97025812D01*
X119504180Y-96989502D01*
X119614494Y-96930537D01*
X119711185Y-96851185D01*
X119790537Y-96754494D01*
X119849502Y-96644180D01*
X119885812Y-96524482D01*
X119898072Y-96400000D01*
X119895000Y-95535750D01*
X119736250Y-95377000D01*
X118237000Y-95377000D01*
X117983000Y-95377000D01*
X116483750Y-95377000D01*
X116325000Y-95535750D01*
X116321928Y-96400000D01*
X114960000Y-96400000D01*
X114960000Y-94100000D01*
X116321928Y-94100000D01*
X116325000Y-94964250D01*
X116483750Y-95123000D01*
X117983000Y-95123000D01*
X117983000Y-93623750D01*
X118237000Y-93623750D01*
X118237000Y-95123000D01*
X119736250Y-95123000D01*
X119895000Y-94964250D01*
X119898072Y-94100000D01*
X119885812Y-93975518D01*
X119849502Y-93855820D01*
X119790537Y-93745506D01*
X119711185Y-93648815D01*
X119614494Y-93569463D01*
X119504180Y-93510498D01*
X119384482Y-93474188D01*
X119260000Y-93461928D01*
X118395750Y-93465000D01*
X118237000Y-93623750D01*
X117983000Y-93623750D01*
X117824250Y-93465000D01*
X116960000Y-93461928D01*
X116835518Y-93474188D01*
X116715820Y-93510498D01*
X116605506Y-93569463D01*
X116508815Y-93648815D01*
X116429463Y-93745506D01*
X116370498Y-93855820D01*
X116334188Y-93975518D01*
X116321928Y-94100000D01*
X114960000Y-94100000D01*
X114960000Y-90074193D01*
X116325000Y-90074193D01*
X116325000Y-90425807D01*
X116393596Y-90770665D01*
X116528153Y-91095515D01*
X116723500Y-91387871D01*
X116972129Y-91636500D01*
X117264485Y-91831847D01*
X117589335Y-91966404D01*
X117934193Y-92035000D01*
X118285807Y-92035000D01*
X118630665Y-91966404D01*
X118955515Y-91831847D01*
X119247871Y-91636500D01*
X119496500Y-91387871D01*
X119691847Y-91095515D01*
X119826404Y-90770665D01*
X119895000Y-90425807D01*
X119895000Y-90074193D01*
X119826404Y-89729335D01*
X119691847Y-89404485D01*
X119496500Y-89112129D01*
X119247871Y-88863500D01*
X118955515Y-88668153D01*
X118630665Y-88533596D01*
X118285807Y-88465000D01*
X117934193Y-88465000D01*
X117589335Y-88533596D01*
X117264485Y-88668153D01*
X116972129Y-88863500D01*
X116723500Y-89112129D01*
X116528153Y-89404485D01*
X116393596Y-89729335D01*
X116325000Y-90074193D01*
X114960000Y-90074193D01*
X114960000Y-79868665D01*
X115155000Y-79868665D01*
X115155000Y-80151335D01*
X115210147Y-80428574D01*
X115318320Y-80689727D01*
X115475363Y-80924759D01*
X115675241Y-81124637D01*
X115910273Y-81281680D01*
X116171426Y-81389853D01*
X116448665Y-81445000D01*
X116731335Y-81445000D01*
X117008574Y-81389853D01*
X117269727Y-81281680D01*
X117504759Y-81124637D01*
X117704637Y-80924759D01*
X117860000Y-80692241D01*
X118015363Y-80924759D01*
X118215241Y-81124637D01*
X118450273Y-81281680D01*
X118711426Y-81389853D01*
X118988665Y-81445000D01*
X119271335Y-81445000D01*
X119548574Y-81389853D01*
X119809727Y-81281680D01*
X120044759Y-81124637D01*
X120244637Y-80924759D01*
X120400000Y-80692241D01*
X120555363Y-80924759D01*
X120755241Y-81124637D01*
X120910001Y-81228044D01*
X120910000Y-92422678D01*
X120906324Y-92460000D01*
X120910000Y-92497322D01*
X120910000Y-92497332D01*
X120920997Y-92608985D01*
X120950707Y-92706928D01*
X120964454Y-92752246D01*
X121035026Y-92884276D01*
X121042855Y-92893815D01*
X121129999Y-93000001D01*
X121159003Y-93023804D01*
X124695000Y-96559802D01*
X124695000Y-96621939D01*
X124734774Y-96821898D01*
X124812795Y-97010256D01*
X124926063Y-97179774D01*
X125070226Y-97323937D01*
X125239744Y-97437205D01*
X125428102Y-97515226D01*
X125628061Y-97555000D01*
X125831939Y-97555000D01*
X126031898Y-97515226D01*
X126220256Y-97437205D01*
X126389774Y-97323937D01*
X126533937Y-97179774D01*
X126647205Y-97010256D01*
X126725226Y-96821898D01*
X126765000Y-96621939D01*
X126765000Y-96418061D01*
X126725226Y-96218102D01*
X126647205Y-96029744D01*
X126533937Y-95860226D01*
X126389774Y-95716063D01*
X126220256Y-95602795D01*
X126031898Y-95524774D01*
X125831939Y-95485000D01*
X125769802Y-95485000D01*
X122430000Y-92145199D01*
X122430000Y-81228043D01*
X122584759Y-81124637D01*
X122784637Y-80924759D01*
X122941680Y-80689727D01*
X122946067Y-80679135D01*
X123057615Y-80865131D01*
X123246586Y-81073519D01*
X123472580Y-81241037D01*
X123726913Y-81361246D01*
X123860961Y-81401904D01*
X124083000Y-81279915D01*
X124083000Y-80137000D01*
X124063000Y-80137000D01*
X124063000Y-79883000D01*
X124083000Y-79883000D01*
X124083000Y-78740085D01*
X124337000Y-78740085D01*
X124337000Y-79883000D01*
X124357000Y-79883000D01*
X124357000Y-80137000D01*
X124337000Y-80137000D01*
X124337000Y-81279915D01*
X124559039Y-81401904D01*
X124693087Y-81361246D01*
X124947420Y-81241037D01*
X125173414Y-81073519D01*
X125362385Y-80865131D01*
X125473933Y-80679135D01*
X125478320Y-80689727D01*
X125635363Y-80924759D01*
X125835241Y-81124637D01*
X126070273Y-81281680D01*
X126331426Y-81389853D01*
X126608665Y-81445000D01*
X126891335Y-81445000D01*
X127168574Y-81389853D01*
X127429727Y-81281680D01*
X127664759Y-81124637D01*
X127864637Y-80924759D01*
X128020000Y-80692241D01*
X128175363Y-80924759D01*
X128375241Y-81124637D01*
X128610273Y-81281680D01*
X128871426Y-81389853D01*
X129148665Y-81445000D01*
X129431335Y-81445000D01*
X129708574Y-81389853D01*
X129969727Y-81281680D01*
X130204759Y-81124637D01*
X130404637Y-80924759D01*
X130560000Y-80692241D01*
X130715363Y-80924759D01*
X130915241Y-81124637D01*
X131150273Y-81281680D01*
X131411426Y-81389853D01*
X131688665Y-81445000D01*
X131971335Y-81445000D01*
X132153886Y-81408688D01*
X132590001Y-81844803D01*
X132590000Y-88196289D01*
X132546063Y-88240226D01*
X132432795Y-88409744D01*
X132354774Y-88598102D01*
X132315000Y-88798061D01*
X132315000Y-89001939D01*
X132354774Y-89201898D01*
X132432795Y-89390256D01*
X132445987Y-89410000D01*
X127314802Y-89410000D01*
X126765000Y-88860199D01*
X126765000Y-88798061D01*
X126725226Y-88598102D01*
X126647205Y-88409744D01*
X126533937Y-88240226D01*
X126389774Y-88096063D01*
X126220256Y-87982795D01*
X126031898Y-87904774D01*
X125831939Y-87865000D01*
X125628061Y-87865000D01*
X125428102Y-87904774D01*
X125239744Y-87982795D01*
X125070226Y-88096063D01*
X124926063Y-88240226D01*
X124812795Y-88409744D01*
X124734774Y-88598102D01*
X124695000Y-88798061D01*
X124695000Y-89001939D01*
X124734774Y-89201898D01*
X124812795Y-89390256D01*
X124926063Y-89559774D01*
X125070226Y-89703937D01*
X125239744Y-89817205D01*
X125428102Y-89895226D01*
X125628061Y-89935000D01*
X125690199Y-89935000D01*
X126436201Y-90681003D01*
X126459999Y-90710001D01*
X126575724Y-90804974D01*
X126707753Y-90875546D01*
X126851014Y-90919003D01*
X126962667Y-90930000D01*
X126962676Y-90930000D01*
X126999999Y-90933676D01*
X127037322Y-90930000D01*
X132445987Y-90930000D01*
X132432795Y-90949744D01*
X132354774Y-91138102D01*
X132315000Y-91338061D01*
X132315000Y-91541939D01*
X132354774Y-91741898D01*
X132432795Y-91930256D01*
X132546063Y-92099774D01*
X132590001Y-92143712D01*
X132590000Y-94546289D01*
X132546063Y-94590226D01*
X132432795Y-94759744D01*
X132354774Y-94948102D01*
X132315000Y-95148061D01*
X132315000Y-95351939D01*
X132354774Y-95551898D01*
X132432795Y-95740256D01*
X132546063Y-95909774D01*
X132690226Y-96053937D01*
X132859744Y-96167205D01*
X133048102Y-96245226D01*
X133248061Y-96285000D01*
X133451939Y-96285000D01*
X133651898Y-96245226D01*
X133840256Y-96167205D01*
X133985000Y-96070490D01*
X134129744Y-96167205D01*
X134318102Y-96245226D01*
X134518061Y-96285000D01*
X134721939Y-96285000D01*
X134921898Y-96245226D01*
X135110256Y-96167205D01*
X135255000Y-96070490D01*
X135399744Y-96167205D01*
X135588102Y-96245226D01*
X135788061Y-96285000D01*
X135991939Y-96285000D01*
X136191898Y-96245226D01*
X136380256Y-96167205D01*
X136400000Y-96154012D01*
X136400000Y-96205197D01*
X134580199Y-98025000D01*
X134518061Y-98025000D01*
X134318102Y-98064774D01*
X134129744Y-98142795D01*
X133960226Y-98256063D01*
X133816063Y-98400226D01*
X133702795Y-98569744D01*
X133624774Y-98758102D01*
X133585000Y-98958061D01*
X133585000Y-99161939D01*
X133624774Y-99361898D01*
X133702795Y-99550256D01*
X133816063Y-99719774D01*
X133960226Y-99863937D01*
X134129744Y-99977205D01*
X134318102Y-100055226D01*
X134518061Y-100095000D01*
X134721939Y-100095000D01*
X134921898Y-100055226D01*
X135110256Y-99977205D01*
X135279774Y-99863937D01*
X135423937Y-99719774D01*
X135537205Y-99550256D01*
X135615226Y-99361898D01*
X135655000Y-99161939D01*
X135655000Y-99099801D01*
X137670000Y-97084803D01*
X137670000Y-98745198D01*
X134580199Y-101835000D01*
X134518061Y-101835000D01*
X134318102Y-101874774D01*
X134129744Y-101952795D01*
X133960226Y-102066063D01*
X133816063Y-102210226D01*
X133702795Y-102379744D01*
X133624774Y-102568102D01*
X133585000Y-102768061D01*
X133585000Y-102971939D01*
X133624774Y-103171898D01*
X133702795Y-103360256D01*
X133816063Y-103529774D01*
X133960226Y-103673937D01*
X134129744Y-103787205D01*
X134318102Y-103865226D01*
X134518061Y-103905000D01*
X134721939Y-103905000D01*
X134921898Y-103865226D01*
X135110256Y-103787205D01*
X135279774Y-103673937D01*
X135423937Y-103529774D01*
X135537205Y-103360256D01*
X135615226Y-103171898D01*
X135655000Y-102971939D01*
X135655000Y-102909801D01*
X138940000Y-99624802D01*
X138940000Y-102555198D01*
X134580199Y-106915000D01*
X134518061Y-106915000D01*
X134318102Y-106954774D01*
X134129744Y-107032795D01*
X133960226Y-107146063D01*
X133816063Y-107290226D01*
X133702795Y-107459744D01*
X133624774Y-107648102D01*
X133585000Y-107848061D01*
X133585000Y-108051939D01*
X133624774Y-108251898D01*
X133702795Y-108440256D01*
X133816063Y-108609774D01*
X133960226Y-108753937D01*
X134129744Y-108867205D01*
X134318102Y-108945226D01*
X134518061Y-108985000D01*
X134721939Y-108985000D01*
X134921898Y-108945226D01*
X135110256Y-108867205D01*
X135279774Y-108753937D01*
X135423937Y-108609774D01*
X135537205Y-108440256D01*
X135615226Y-108251898D01*
X135655000Y-108051939D01*
X135655000Y-107989801D01*
X140210000Y-103434802D01*
X140210000Y-107635198D01*
X136845199Y-111000000D01*
X135323711Y-111000000D01*
X135279774Y-110956063D01*
X135110256Y-110842795D01*
X134921898Y-110764774D01*
X134721939Y-110725000D01*
X134518061Y-110725000D01*
X134318102Y-110764774D01*
X134129744Y-110842795D01*
X133960226Y-110956063D01*
X133816063Y-111100226D01*
X133702795Y-111269744D01*
X133624774Y-111458102D01*
X133585000Y-111658061D01*
X133585000Y-111861939D01*
X133624774Y-112061898D01*
X133702795Y-112250256D01*
X133816063Y-112419774D01*
X133960226Y-112563937D01*
X134129744Y-112677205D01*
X134318102Y-112755226D01*
X134518061Y-112795000D01*
X134721939Y-112795000D01*
X134921898Y-112755226D01*
X135110256Y-112677205D01*
X135279774Y-112563937D01*
X135323711Y-112520000D01*
X137122678Y-112520000D01*
X137160000Y-112523676D01*
X137197322Y-112520000D01*
X137197333Y-112520000D01*
X137308986Y-112509003D01*
X137452247Y-112465546D01*
X137584276Y-112394974D01*
X137700001Y-112300001D01*
X137723804Y-112270997D01*
X141481004Y-108513798D01*
X141510001Y-108490001D01*
X141604974Y-108374276D01*
X141675546Y-108242247D01*
X141719003Y-108098986D01*
X141730000Y-107987333D01*
X141730000Y-107987325D01*
X141733676Y-107950000D01*
X141730000Y-107912675D01*
X141730000Y-93345000D01*
X142236928Y-93345000D01*
X142236928Y-94615000D01*
X142249188Y-94739482D01*
X142285498Y-94859180D01*
X142344463Y-94969494D01*
X142423815Y-95066185D01*
X142520506Y-95145537D01*
X142630820Y-95204502D01*
X142750518Y-95240812D01*
X142875000Y-95253072D01*
X144145000Y-95253072D01*
X144269482Y-95240812D01*
X144389180Y-95204502D01*
X144499494Y-95145537D01*
X144596185Y-95066185D01*
X144675537Y-94969494D01*
X144734502Y-94859180D01*
X144770812Y-94739482D01*
X144783072Y-94615000D01*
X144783072Y-94120528D01*
X144828805Y-94350445D01*
X144924541Y-94581571D01*
X145063527Y-94789578D01*
X145240422Y-94966473D01*
X145448429Y-95105459D01*
X145679555Y-95201195D01*
X145924916Y-95250000D01*
X146175084Y-95250000D01*
X146420445Y-95201195D01*
X146651571Y-95105459D01*
X146859578Y-94966473D01*
X147036473Y-94789578D01*
X147175459Y-94581571D01*
X147271195Y-94350445D01*
X147320000Y-94105084D01*
X147368805Y-94350445D01*
X147464541Y-94581571D01*
X147603527Y-94789578D01*
X147780422Y-94966473D01*
X147988429Y-95105459D01*
X148219555Y-95201195D01*
X148464916Y-95250000D01*
X148715084Y-95250000D01*
X148960445Y-95201195D01*
X149191571Y-95105459D01*
X149399578Y-94966473D01*
X149576473Y-94789578D01*
X149715459Y-94581571D01*
X149811195Y-94350445D01*
X149860000Y-94105084D01*
X149908805Y-94350445D01*
X150004541Y-94581571D01*
X150143527Y-94789578D01*
X150320422Y-94966473D01*
X150528429Y-95105459D01*
X150759555Y-95201195D01*
X151004916Y-95250000D01*
X151255084Y-95250000D01*
X151500445Y-95201195D01*
X151731571Y-95105459D01*
X151939578Y-94966473D01*
X152116473Y-94789578D01*
X152255459Y-94581571D01*
X152351195Y-94350445D01*
X152400000Y-94105084D01*
X152448805Y-94350445D01*
X152544541Y-94581571D01*
X152683527Y-94789578D01*
X152860422Y-94966473D01*
X153068429Y-95105459D01*
X153299555Y-95201195D01*
X153544916Y-95250000D01*
X153795084Y-95250000D01*
X154040445Y-95201195D01*
X154271571Y-95105459D01*
X154479578Y-94966473D01*
X154656473Y-94789578D01*
X154795459Y-94581571D01*
X154891195Y-94350445D01*
X154940000Y-94105084D01*
X154988805Y-94350445D01*
X155084541Y-94581571D01*
X155223527Y-94789578D01*
X155400422Y-94966473D01*
X155608429Y-95105459D01*
X155839555Y-95201195D01*
X156084916Y-95250000D01*
X156335084Y-95250000D01*
X156580445Y-95201195D01*
X156811571Y-95105459D01*
X157019578Y-94966473D01*
X157196473Y-94789578D01*
X157335459Y-94581571D01*
X157431195Y-94350445D01*
X157480000Y-94105084D01*
X157480000Y-93854916D01*
X157431195Y-93609555D01*
X157335459Y-93378429D01*
X157196473Y-93170422D01*
X157019578Y-92993527D01*
X156811571Y-92854541D01*
X156580445Y-92758805D01*
X156335084Y-92710000D01*
X156084916Y-92710000D01*
X155839555Y-92758805D01*
X155608429Y-92854541D01*
X155400422Y-92993527D01*
X155223527Y-93170422D01*
X155084541Y-93378429D01*
X154988805Y-93609555D01*
X154940000Y-93854916D01*
X154891195Y-93609555D01*
X154795459Y-93378429D01*
X154656473Y-93170422D01*
X154479578Y-92993527D01*
X154271571Y-92854541D01*
X154040445Y-92758805D01*
X153795084Y-92710000D01*
X153544916Y-92710000D01*
X153299555Y-92758805D01*
X153068429Y-92854541D01*
X152860422Y-92993527D01*
X152683527Y-93170422D01*
X152544541Y-93378429D01*
X152448805Y-93609555D01*
X152400000Y-93854916D01*
X152351195Y-93609555D01*
X152255459Y-93378429D01*
X152116473Y-93170422D01*
X151939578Y-92993527D01*
X151731571Y-92854541D01*
X151500445Y-92758805D01*
X151255084Y-92710000D01*
X151004916Y-92710000D01*
X150759555Y-92758805D01*
X150528429Y-92854541D01*
X150320422Y-92993527D01*
X150143527Y-93170422D01*
X150004541Y-93378429D01*
X149908805Y-93609555D01*
X149860000Y-93854916D01*
X149811195Y-93609555D01*
X149715459Y-93378429D01*
X149576473Y-93170422D01*
X149399578Y-92993527D01*
X149191571Y-92854541D01*
X148960445Y-92758805D01*
X148715084Y-92710000D01*
X148464916Y-92710000D01*
X148219555Y-92758805D01*
X147988429Y-92854541D01*
X147780422Y-92993527D01*
X147603527Y-93170422D01*
X147464541Y-93378429D01*
X147368805Y-93609555D01*
X147320000Y-93854916D01*
X147271195Y-93609555D01*
X147175459Y-93378429D01*
X147036473Y-93170422D01*
X146859578Y-92993527D01*
X146651571Y-92854541D01*
X146420445Y-92758805D01*
X146175084Y-92710000D01*
X145924916Y-92710000D01*
X145679555Y-92758805D01*
X145448429Y-92854541D01*
X145240422Y-92993527D01*
X145063527Y-93170422D01*
X144924541Y-93378429D01*
X144828805Y-93609555D01*
X144783072Y-93839472D01*
X144783072Y-93345000D01*
X144770812Y-93220518D01*
X144734502Y-93100820D01*
X144675537Y-92990506D01*
X144596185Y-92893815D01*
X144499494Y-92814463D01*
X144389180Y-92755498D01*
X144269482Y-92719188D01*
X144145000Y-92706928D01*
X142875000Y-92706928D01*
X142750518Y-92719188D01*
X142630820Y-92755498D01*
X142520506Y-92814463D01*
X142423815Y-92893815D01*
X142344463Y-92990506D01*
X142285498Y-93100820D01*
X142249188Y-93220518D01*
X142236928Y-93345000D01*
X141730000Y-93345000D01*
X141730000Y-92143711D01*
X141773937Y-92099774D01*
X141887205Y-91930256D01*
X141965226Y-91741898D01*
X142005000Y-91541939D01*
X142005000Y-91338061D01*
X141965226Y-91138102D01*
X141887205Y-90949744D01*
X141874013Y-90930000D01*
X161800001Y-90930000D01*
X161800000Y-103436289D01*
X161756063Y-103480226D01*
X161642795Y-103649744D01*
X161564774Y-103838102D01*
X161525000Y-104038061D01*
X161525000Y-104241939D01*
X161564774Y-104441898D01*
X161642795Y-104630256D01*
X161756063Y-104799774D01*
X161900226Y-104943937D01*
X161930819Y-104964379D01*
X158240000Y-108655198D01*
X158240000Y-103573711D01*
X158283937Y-103529774D01*
X158397205Y-103360256D01*
X158475226Y-103171898D01*
X158515000Y-102971939D01*
X158515000Y-102768061D01*
X158475226Y-102568102D01*
X158397205Y-102379744D01*
X158283937Y-102210226D01*
X158139774Y-102066063D01*
X157970256Y-101952795D01*
X157781898Y-101874774D01*
X157581939Y-101835000D01*
X157378061Y-101835000D01*
X157178102Y-101874774D01*
X156989744Y-101952795D01*
X156820226Y-102066063D01*
X156676063Y-102210226D01*
X156562795Y-102379744D01*
X156484774Y-102568102D01*
X156445000Y-102768061D01*
X156445000Y-102971939D01*
X156484774Y-103171898D01*
X156562795Y-103360256D01*
X156676063Y-103529774D01*
X156720001Y-103573712D01*
X156720000Y-108905197D01*
X154625199Y-111000000D01*
X154373711Y-111000000D01*
X154329774Y-110956063D01*
X154160256Y-110842795D01*
X153971898Y-110764774D01*
X153771939Y-110725000D01*
X153568061Y-110725000D01*
X153368102Y-110764774D01*
X153179744Y-110842795D01*
X153010226Y-110956063D01*
X152866063Y-111100226D01*
X152752795Y-111269744D01*
X152674774Y-111458102D01*
X152635000Y-111658061D01*
X152635000Y-111861939D01*
X152674774Y-112061898D01*
X152752795Y-112250256D01*
X152866063Y-112419774D01*
X153010226Y-112563937D01*
X153179744Y-112677205D01*
X153368102Y-112755226D01*
X153568061Y-112795000D01*
X153771939Y-112795000D01*
X153971898Y-112755226D01*
X154160256Y-112677205D01*
X154329774Y-112563937D01*
X154373711Y-112520000D01*
X154375199Y-112520000D01*
X148079003Y-118816196D01*
X148049999Y-118839999D01*
X147994871Y-118907174D01*
X147955026Y-118955724D01*
X147884455Y-119087753D01*
X147884454Y-119087754D01*
X147840997Y-119231015D01*
X147830000Y-119342668D01*
X147830000Y-119342678D01*
X147826324Y-119380000D01*
X147830000Y-119417322D01*
X147830001Y-127051956D01*
X147675241Y-127155363D01*
X147475363Y-127355241D01*
X147318320Y-127590273D01*
X147210147Y-127851426D01*
X147155000Y-128128665D01*
X147155000Y-128411335D01*
X147210147Y-128688574D01*
X147318320Y-128949727D01*
X147475363Y-129184759D01*
X147675241Y-129384637D01*
X147910273Y-129541680D01*
X148171426Y-129649853D01*
X148448665Y-129705000D01*
X148731335Y-129705000D01*
X149008574Y-129649853D01*
X149269727Y-129541680D01*
X149504759Y-129384637D01*
X149704637Y-129184759D01*
X149860000Y-128952241D01*
X150015363Y-129184759D01*
X150215241Y-129384637D01*
X150450273Y-129541680D01*
X150711426Y-129649853D01*
X150988665Y-129705000D01*
X151271335Y-129705000D01*
X151548574Y-129649853D01*
X151809727Y-129541680D01*
X152044759Y-129384637D01*
X152244637Y-129184759D01*
X152400000Y-128952241D01*
X152555363Y-129184759D01*
X152755241Y-129384637D01*
X152990273Y-129541680D01*
X153251426Y-129649853D01*
X153528665Y-129705000D01*
X153811335Y-129705000D01*
X154088574Y-129649853D01*
X154349727Y-129541680D01*
X154584759Y-129384637D01*
X154784637Y-129184759D01*
X154940000Y-128952241D01*
X155095363Y-129184759D01*
X155295241Y-129384637D01*
X155530273Y-129541680D01*
X155791426Y-129649853D01*
X156068665Y-129705000D01*
X156351335Y-129705000D01*
X156628574Y-129649853D01*
X156889727Y-129541680D01*
X157124759Y-129384637D01*
X157324637Y-129184759D01*
X157480000Y-128952241D01*
X157635363Y-129184759D01*
X157835241Y-129384637D01*
X158070273Y-129541680D01*
X158331426Y-129649853D01*
X158608665Y-129705000D01*
X158891335Y-129705000D01*
X159168574Y-129649853D01*
X159429727Y-129541680D01*
X159664759Y-129384637D01*
X159864637Y-129184759D01*
X160020000Y-128952241D01*
X160175363Y-129184759D01*
X160375241Y-129384637D01*
X160610273Y-129541680D01*
X160871426Y-129649853D01*
X161148665Y-129705000D01*
X161431335Y-129705000D01*
X161708574Y-129649853D01*
X161969727Y-129541680D01*
X162204759Y-129384637D01*
X162404637Y-129184759D01*
X162561680Y-128949727D01*
X162669853Y-128688574D01*
X162725000Y-128411335D01*
X162725000Y-128128665D01*
X162669853Y-127851426D01*
X162561680Y-127590273D01*
X162404637Y-127355241D01*
X162204759Y-127155363D01*
X161969727Y-126998320D01*
X161708574Y-126890147D01*
X161431335Y-126835000D01*
X161148665Y-126835000D01*
X160871426Y-126890147D01*
X160610273Y-126998320D01*
X160375241Y-127155363D01*
X160175363Y-127355241D01*
X160020000Y-127587759D01*
X159864637Y-127355241D01*
X159664759Y-127155363D01*
X159429727Y-126998320D01*
X159168574Y-126890147D01*
X158891335Y-126835000D01*
X158608665Y-126835000D01*
X158331426Y-126890147D01*
X158070273Y-126998320D01*
X157835241Y-127155363D01*
X157635363Y-127355241D01*
X157480000Y-127587759D01*
X157324637Y-127355241D01*
X157124759Y-127155363D01*
X156889727Y-126998320D01*
X156628574Y-126890147D01*
X156351335Y-126835000D01*
X156068665Y-126835000D01*
X155791426Y-126890147D01*
X155530273Y-126998320D01*
X155295241Y-127155363D01*
X155095363Y-127355241D01*
X154940000Y-127587759D01*
X154784637Y-127355241D01*
X154584759Y-127155363D01*
X154349727Y-126998320D01*
X154088574Y-126890147D01*
X153811335Y-126835000D01*
X153528665Y-126835000D01*
X153251426Y-126890147D01*
X152990273Y-126998320D01*
X152755241Y-127155363D01*
X152555363Y-127355241D01*
X152400000Y-127587759D01*
X152244637Y-127355241D01*
X152044759Y-127155363D01*
X151809727Y-126998320D01*
X151548574Y-126890147D01*
X151271335Y-126835000D01*
X150988665Y-126835000D01*
X150711426Y-126890147D01*
X150450273Y-126998320D01*
X150215241Y-127155363D01*
X150015363Y-127355241D01*
X149860000Y-127587759D01*
X149704637Y-127355241D01*
X149504759Y-127155363D01*
X149350000Y-127051957D01*
X149350000Y-119694801D01*
X157386740Y-111658061D01*
X157715000Y-111658061D01*
X157715000Y-111861939D01*
X157754774Y-112061898D01*
X157832795Y-112250256D01*
X157946063Y-112419774D01*
X157990000Y-112463711D01*
X157990000Y-112992677D01*
X157986324Y-113030000D01*
X157990000Y-113067322D01*
X157990000Y-113067332D01*
X158000997Y-113178985D01*
X158044454Y-113322246D01*
X158115026Y-113454276D01*
X158154871Y-113502826D01*
X158209999Y-113570001D01*
X158239003Y-113593804D01*
X162795000Y-118149802D01*
X162795000Y-118211939D01*
X162834774Y-118411898D01*
X162912795Y-118600256D01*
X163026063Y-118769774D01*
X163170226Y-118913937D01*
X163339744Y-119027205D01*
X163528102Y-119105226D01*
X163728061Y-119145000D01*
X163931939Y-119145000D01*
X164131898Y-119105226D01*
X164320256Y-119027205D01*
X164489774Y-118913937D01*
X164633937Y-118769774D01*
X164747205Y-118600256D01*
X164825226Y-118411898D01*
X164865000Y-118211939D01*
X164865000Y-118008061D01*
X164825226Y-117808102D01*
X164747205Y-117619744D01*
X164633937Y-117450226D01*
X164489774Y-117306063D01*
X164320256Y-117192795D01*
X164131898Y-117114774D01*
X163931939Y-117075000D01*
X163869802Y-117075000D01*
X159510000Y-112715199D01*
X159510000Y-112463711D01*
X159553937Y-112419774D01*
X159667205Y-112250256D01*
X159745226Y-112061898D01*
X159785000Y-111861939D01*
X159785000Y-111658061D01*
X159745226Y-111458102D01*
X159667205Y-111269744D01*
X159553937Y-111100226D01*
X159409774Y-110956063D01*
X159240256Y-110842795D01*
X159051898Y-110764774D01*
X158851939Y-110725000D01*
X158648061Y-110725000D01*
X158448102Y-110764774D01*
X158259744Y-110842795D01*
X158090226Y-110956063D01*
X157946063Y-111100226D01*
X157832795Y-111269744D01*
X157754774Y-111458102D01*
X157715000Y-111658061D01*
X157386740Y-111658061D01*
X163869802Y-105175000D01*
X163931939Y-105175000D01*
X164131898Y-105135226D01*
X164320256Y-105057205D01*
X164489774Y-104943937D01*
X164633937Y-104799774D01*
X164747205Y-104630256D01*
X164825226Y-104441898D01*
X164865000Y-104241939D01*
X164865000Y-104038061D01*
X164825226Y-103838102D01*
X164747205Y-103649744D01*
X164633937Y-103480226D01*
X164489774Y-103336063D01*
X164320256Y-103222795D01*
X164131898Y-103144774D01*
X163931939Y-103105000D01*
X163728061Y-103105000D01*
X163528102Y-103144774D01*
X163339744Y-103222795D01*
X163320000Y-103235987D01*
X163320000Y-90207333D01*
X163323677Y-90170000D01*
X163309003Y-90021014D01*
X163265546Y-89877753D01*
X163194974Y-89745724D01*
X163100001Y-89629999D01*
X162984276Y-89535026D01*
X162852247Y-89464454D01*
X162708986Y-89420997D01*
X162597333Y-89410000D01*
X162560000Y-89406323D01*
X162522667Y-89410000D01*
X141874013Y-89410000D01*
X141887205Y-89390256D01*
X141965226Y-89201898D01*
X142005000Y-89001939D01*
X142005000Y-88798061D01*
X141965226Y-88598102D01*
X141887205Y-88409744D01*
X141773937Y-88240226D01*
X141730000Y-88196289D01*
X141730000Y-87793999D01*
X142455793Y-87068207D01*
X142523527Y-87169578D01*
X142700422Y-87346473D01*
X142908429Y-87485459D01*
X143139555Y-87581195D01*
X143384916Y-87630000D01*
X143635084Y-87630000D01*
X143880445Y-87581195D01*
X144111571Y-87485459D01*
X144319578Y-87346473D01*
X144496473Y-87169578D01*
X144635459Y-86961571D01*
X144731195Y-86730445D01*
X144780000Y-86485084D01*
X144828805Y-86730445D01*
X144924541Y-86961571D01*
X145063527Y-87169578D01*
X145240422Y-87346473D01*
X145448429Y-87485459D01*
X145679555Y-87581195D01*
X145924916Y-87630000D01*
X146175084Y-87630000D01*
X146420445Y-87581195D01*
X146651571Y-87485459D01*
X146859578Y-87346473D01*
X147036473Y-87169578D01*
X147175459Y-86961571D01*
X147271195Y-86730445D01*
X147320000Y-86485084D01*
X147368805Y-86730445D01*
X147464541Y-86961571D01*
X147603527Y-87169578D01*
X147780422Y-87346473D01*
X147988429Y-87485459D01*
X148219555Y-87581195D01*
X148464916Y-87630000D01*
X148715084Y-87630000D01*
X148960445Y-87581195D01*
X149191571Y-87485459D01*
X149399578Y-87346473D01*
X149576473Y-87169578D01*
X149715459Y-86961571D01*
X149811195Y-86730445D01*
X149860000Y-86485084D01*
X149908805Y-86730445D01*
X150004541Y-86961571D01*
X150143527Y-87169578D01*
X150320422Y-87346473D01*
X150528429Y-87485459D01*
X150759555Y-87581195D01*
X151004916Y-87630000D01*
X151255084Y-87630000D01*
X151500445Y-87581195D01*
X151731571Y-87485459D01*
X151939578Y-87346473D01*
X152116473Y-87169578D01*
X152255459Y-86961571D01*
X152351195Y-86730445D01*
X152400000Y-86485084D01*
X152448805Y-86730445D01*
X152544541Y-86961571D01*
X152683527Y-87169578D01*
X152860422Y-87346473D01*
X153068429Y-87485459D01*
X153299555Y-87581195D01*
X153544916Y-87630000D01*
X153795084Y-87630000D01*
X154040445Y-87581195D01*
X154271571Y-87485459D01*
X154479578Y-87346473D01*
X154656473Y-87169578D01*
X154795459Y-86961571D01*
X154891195Y-86730445D01*
X154940000Y-86485084D01*
X154988805Y-86730445D01*
X155084541Y-86961571D01*
X155223527Y-87169578D01*
X155400422Y-87346473D01*
X155608429Y-87485459D01*
X155839555Y-87581195D01*
X156084916Y-87630000D01*
X156335084Y-87630000D01*
X156580445Y-87581195D01*
X156811571Y-87485459D01*
X157019578Y-87346473D01*
X157196473Y-87169578D01*
X157335459Y-86961571D01*
X157431195Y-86730445D01*
X157480000Y-86485084D01*
X157480000Y-86234916D01*
X157431195Y-85989555D01*
X157335459Y-85758429D01*
X157196473Y-85550422D01*
X157019578Y-85373527D01*
X156811571Y-85234541D01*
X156580445Y-85138805D01*
X156335084Y-85090000D01*
X156084916Y-85090000D01*
X155839555Y-85138805D01*
X155608429Y-85234541D01*
X155400422Y-85373527D01*
X155223527Y-85550422D01*
X155084541Y-85758429D01*
X154988805Y-85989555D01*
X154940000Y-86234916D01*
X154891195Y-85989555D01*
X154795459Y-85758429D01*
X154656473Y-85550422D01*
X154479578Y-85373527D01*
X154271571Y-85234541D01*
X154040445Y-85138805D01*
X153795084Y-85090000D01*
X153544916Y-85090000D01*
X153299555Y-85138805D01*
X153068429Y-85234541D01*
X152860422Y-85373527D01*
X152683527Y-85550422D01*
X152544541Y-85758429D01*
X152448805Y-85989555D01*
X152400000Y-86234916D01*
X152351195Y-85989555D01*
X152255459Y-85758429D01*
X152116473Y-85550422D01*
X151939578Y-85373527D01*
X151731571Y-85234541D01*
X151500445Y-85138805D01*
X151255084Y-85090000D01*
X151004916Y-85090000D01*
X150759555Y-85138805D01*
X150528429Y-85234541D01*
X150320422Y-85373527D01*
X150143527Y-85550422D01*
X150004541Y-85758429D01*
X149908805Y-85989555D01*
X149860000Y-86234916D01*
X149811195Y-85989555D01*
X149715459Y-85758429D01*
X149576473Y-85550422D01*
X149399578Y-85373527D01*
X149191571Y-85234541D01*
X148960445Y-85138805D01*
X148715084Y-85090000D01*
X148464916Y-85090000D01*
X148219555Y-85138805D01*
X147988429Y-85234541D01*
X147780422Y-85373527D01*
X147603527Y-85550422D01*
X147464541Y-85758429D01*
X147368805Y-85989555D01*
X147320000Y-86234916D01*
X147271195Y-85989555D01*
X147175459Y-85758429D01*
X147036473Y-85550422D01*
X146859578Y-85373527D01*
X146651571Y-85234541D01*
X146420445Y-85138805D01*
X146175084Y-85090000D01*
X145924916Y-85090000D01*
X145679555Y-85138805D01*
X145448429Y-85234541D01*
X145240422Y-85373527D01*
X145063527Y-85550422D01*
X144924541Y-85758429D01*
X144828805Y-85989555D01*
X144780000Y-86234916D01*
X144731195Y-85989555D01*
X144635459Y-85758429D01*
X144496473Y-85550422D01*
X144319578Y-85373527D01*
X144218207Y-85305793D01*
X144944001Y-84580000D01*
X157442678Y-84580000D01*
X157480000Y-84583676D01*
X157517322Y-84580000D01*
X157517333Y-84580000D01*
X157628986Y-84569003D01*
X157772247Y-84525546D01*
X157904276Y-84454974D01*
X158020001Y-84360001D01*
X158043804Y-84330997D01*
X160966114Y-81408688D01*
X161148665Y-81445000D01*
X161431335Y-81445000D01*
X161708574Y-81389853D01*
X161969727Y-81281680D01*
X162204759Y-81124637D01*
X162404637Y-80924759D01*
X162561680Y-80689727D01*
X162669853Y-80428574D01*
X162725000Y-80151335D01*
X162725000Y-79868665D01*
X162669853Y-79591426D01*
X162561680Y-79330273D01*
X162404637Y-79095241D01*
X162204759Y-78895363D01*
X161969727Y-78738320D01*
X161708574Y-78630147D01*
X161431335Y-78575000D01*
X161148665Y-78575000D01*
X160871426Y-78630147D01*
X160610273Y-78738320D01*
X160375241Y-78895363D01*
X160175363Y-79095241D01*
X160020000Y-79327759D01*
X159864637Y-79095241D01*
X159664759Y-78895363D01*
X159429727Y-78738320D01*
X159168574Y-78630147D01*
X158891335Y-78575000D01*
X158608665Y-78575000D01*
X158331426Y-78630147D01*
X158070273Y-78738320D01*
X157835241Y-78895363D01*
X157635363Y-79095241D01*
X157480000Y-79327759D01*
X157324637Y-79095241D01*
X157124759Y-78895363D01*
X156889727Y-78738320D01*
X156628574Y-78630147D01*
X156351335Y-78575000D01*
X156068665Y-78575000D01*
X155791426Y-78630147D01*
X155530273Y-78738320D01*
X155295241Y-78895363D01*
X155095363Y-79095241D01*
X154940000Y-79327759D01*
X154784637Y-79095241D01*
X154584759Y-78895363D01*
X154349727Y-78738320D01*
X154088574Y-78630147D01*
X153811335Y-78575000D01*
X153528665Y-78575000D01*
X153251426Y-78630147D01*
X152990273Y-78738320D01*
X152755241Y-78895363D01*
X152555363Y-79095241D01*
X152400000Y-79327759D01*
X152244637Y-79095241D01*
X152044759Y-78895363D01*
X151809727Y-78738320D01*
X151548574Y-78630147D01*
X151271335Y-78575000D01*
X150988665Y-78575000D01*
X150711426Y-78630147D01*
X150450273Y-78738320D01*
X150215241Y-78895363D01*
X150015363Y-79095241D01*
X149860000Y-79327759D01*
X149704637Y-79095241D01*
X149504759Y-78895363D01*
X149269727Y-78738320D01*
X149008574Y-78630147D01*
X148731335Y-78575000D01*
X148448665Y-78575000D01*
X148171426Y-78630147D01*
X147910273Y-78738320D01*
X147675241Y-78895363D01*
X147475363Y-79095241D01*
X147320000Y-79327759D01*
X147164637Y-79095241D01*
X146964759Y-78895363D01*
X146729727Y-78738320D01*
X146468574Y-78630147D01*
X146191335Y-78575000D01*
X145908665Y-78575000D01*
X145631426Y-78630147D01*
X145370273Y-78738320D01*
X145135241Y-78895363D01*
X144935363Y-79095241D01*
X144780000Y-79327759D01*
X144624637Y-79095241D01*
X144424759Y-78895363D01*
X144189727Y-78738320D01*
X143928574Y-78630147D01*
X143651335Y-78575000D01*
X143368665Y-78575000D01*
X143091426Y-78630147D01*
X142830273Y-78738320D01*
X142595241Y-78895363D01*
X142395363Y-79095241D01*
X142238320Y-79330273D01*
X142130147Y-79591426D01*
X142075000Y-79868665D01*
X142075000Y-80151335D01*
X142130147Y-80428574D01*
X142238320Y-80689727D01*
X142395363Y-80924759D01*
X142595241Y-81124637D01*
X142830273Y-81281680D01*
X143091426Y-81389853D01*
X143368665Y-81445000D01*
X143573181Y-81445000D01*
X143535734Y-81465016D01*
X143420009Y-81559989D01*
X143396211Y-81588987D01*
X137120199Y-87865000D01*
X137058061Y-87865000D01*
X136858102Y-87904774D01*
X136669744Y-87982795D01*
X136650000Y-87995987D01*
X136650000Y-87063711D01*
X136693937Y-87019774D01*
X136807205Y-86850256D01*
X136885226Y-86661898D01*
X136925000Y-86461939D01*
X136925000Y-86258061D01*
X136885226Y-86058102D01*
X136807205Y-85869744D01*
X136693937Y-85700226D01*
X136549774Y-85556063D01*
X136380256Y-85442795D01*
X136191898Y-85364774D01*
X135991939Y-85325000D01*
X135788061Y-85325000D01*
X135588102Y-85364774D01*
X135399744Y-85442795D01*
X135380000Y-85455987D01*
X135380000Y-81029396D01*
X135484637Y-80924759D01*
X135640000Y-80692241D01*
X135795363Y-80924759D01*
X135995241Y-81124637D01*
X136230273Y-81281680D01*
X136491426Y-81389853D01*
X136768665Y-81445000D01*
X137051335Y-81445000D01*
X137328574Y-81389853D01*
X137589727Y-81281680D01*
X137824759Y-81124637D01*
X138024637Y-80924759D01*
X138180000Y-80692241D01*
X138335363Y-80924759D01*
X138535241Y-81124637D01*
X138770273Y-81281680D01*
X139031426Y-81389853D01*
X139308665Y-81445000D01*
X139591335Y-81445000D01*
X139868574Y-81389853D01*
X140129727Y-81281680D01*
X140364759Y-81124637D01*
X140564637Y-80924759D01*
X140721680Y-80689727D01*
X140829853Y-80428574D01*
X140885000Y-80151335D01*
X140885000Y-79868665D01*
X140829853Y-79591426D01*
X140721680Y-79330273D01*
X140564637Y-79095241D01*
X140364759Y-78895363D01*
X140129727Y-78738320D01*
X139868574Y-78630147D01*
X139591335Y-78575000D01*
X139308665Y-78575000D01*
X139031426Y-78630147D01*
X138770273Y-78738320D01*
X138535241Y-78895363D01*
X138335363Y-79095241D01*
X138180000Y-79327759D01*
X138024637Y-79095241D01*
X137824759Y-78895363D01*
X137589727Y-78738320D01*
X137328574Y-78630147D01*
X137051335Y-78575000D01*
X136768665Y-78575000D01*
X136491426Y-78630147D01*
X136230273Y-78738320D01*
X135995241Y-78895363D01*
X135795363Y-79095241D01*
X135640000Y-79327759D01*
X135484637Y-79095241D01*
X135284759Y-78895363D01*
X135049727Y-78738320D01*
X134788574Y-78630147D01*
X134511335Y-78575000D01*
X134228665Y-78575000D01*
X133951426Y-78630147D01*
X133690273Y-78738320D01*
X133455241Y-78895363D01*
X133255363Y-79095241D01*
X133100000Y-79327759D01*
X132944637Y-79095241D01*
X132744759Y-78895363D01*
X132509727Y-78738320D01*
X132248574Y-78630147D01*
X131971335Y-78575000D01*
X131688665Y-78575000D01*
X131411426Y-78630147D01*
X131150273Y-78738320D01*
X130915241Y-78895363D01*
X130715363Y-79095241D01*
X130560000Y-79327759D01*
X130404637Y-79095241D01*
X130204759Y-78895363D01*
X129969727Y-78738320D01*
X129708574Y-78630147D01*
X129431335Y-78575000D01*
X129148665Y-78575000D01*
X128871426Y-78630147D01*
X128610273Y-78738320D01*
X128375241Y-78895363D01*
X128175363Y-79095241D01*
X128020000Y-79327759D01*
X127864637Y-79095241D01*
X127664759Y-78895363D01*
X127429727Y-78738320D01*
X127168574Y-78630147D01*
X126891335Y-78575000D01*
X126608665Y-78575000D01*
X126331426Y-78630147D01*
X126070273Y-78738320D01*
X125835241Y-78895363D01*
X125635363Y-79095241D01*
X125478320Y-79330273D01*
X125473933Y-79340865D01*
X125362385Y-79154869D01*
X125173414Y-78946481D01*
X124947420Y-78778963D01*
X124693087Y-78658754D01*
X124559039Y-78618096D01*
X124337000Y-78740085D01*
X124083000Y-78740085D01*
X123860961Y-78618096D01*
X123726913Y-78658754D01*
X123472580Y-78778963D01*
X123246586Y-78946481D01*
X123057615Y-79154869D01*
X122946067Y-79340865D01*
X122941680Y-79330273D01*
X122784637Y-79095241D01*
X122584759Y-78895363D01*
X122349727Y-78738320D01*
X122088574Y-78630147D01*
X121811335Y-78575000D01*
X121528665Y-78575000D01*
X121251426Y-78630147D01*
X120990273Y-78738320D01*
X120755241Y-78895363D01*
X120555363Y-79095241D01*
X120400000Y-79327759D01*
X120244637Y-79095241D01*
X120044759Y-78895363D01*
X119809727Y-78738320D01*
X119548574Y-78630147D01*
X119271335Y-78575000D01*
X118988665Y-78575000D01*
X118711426Y-78630147D01*
X118450273Y-78738320D01*
X118215241Y-78895363D01*
X118015363Y-79095241D01*
X117860000Y-79327759D01*
X117704637Y-79095241D01*
X117504759Y-78895363D01*
X117269727Y-78738320D01*
X117008574Y-78630147D01*
X116731335Y-78575000D01*
X116448665Y-78575000D01*
X116171426Y-78630147D01*
X115910273Y-78738320D01*
X115675241Y-78895363D01*
X115475363Y-79095241D01*
X115318320Y-79330273D01*
X115210147Y-79591426D01*
X115155000Y-79868665D01*
X114960000Y-79868665D01*
X114960000Y-78130000D01*
X166980000Y-78130000D01*
X166980001Y-130150000D01*
%TD*%
M02*
