%FSLAX45Y45*%
G04 Gerber Fmt 4.5, Leading zero omitted, Abs format (unit mm)*
G04 Created by KiCad (PCBNEW (5.1.6)-1) date 2020-09-16 22:31:21*
%MOMM*%
%LPD*%
G01*
G04 APERTURE LIST*
%TA.AperFunction,Profile*%
%ADD10C,0.050000*%
%TD*%
%ADD11C,0.200000*%
%ADD12C,0.300000*%
G04 APERTURE END LIST*
D10*
X11430000Y-13081000D02*
X11430000Y-7747000D01*
X16764000Y-13081000D02*
X11430000Y-13081000D01*
X16764000Y-7747000D02*
X16764000Y-13081000D01*
X11430000Y-7747000D02*
X16764000Y-7747000D01*
D11*
D12*
X11713928Y-13549214D02*
X11713928Y-13249214D01*
X11785357Y-13249214D01*
X11828214Y-13263500D01*
X11856786Y-13292071D01*
X11871071Y-13320643D01*
X11885357Y-13377786D01*
X11885357Y-13420643D01*
X11871071Y-13477786D01*
X11856786Y-13506357D01*
X11828214Y-13534929D01*
X11785357Y-13549214D01*
X11713928Y-13549214D01*
X12013928Y-13549214D02*
X12013928Y-13349214D01*
X12013928Y-13406357D02*
X12028214Y-13377786D01*
X12042500Y-13363500D01*
X12071071Y-13349214D01*
X12099643Y-13349214D01*
X12199643Y-13549214D02*
X12199643Y-13349214D01*
X12199643Y-13249214D02*
X12185357Y-13263500D01*
X12199643Y-13277786D01*
X12213928Y-13263500D01*
X12199643Y-13249214D01*
X12199643Y-13277786D01*
X12385357Y-13549214D02*
X12356786Y-13534929D01*
X12342500Y-13506357D01*
X12342500Y-13249214D01*
X12542500Y-13549214D02*
X12513928Y-13534929D01*
X12499643Y-13506357D01*
X12499643Y-13249214D01*
X12885357Y-13549214D02*
X12885357Y-13249214D01*
X12985357Y-13463500D01*
X13085357Y-13249214D01*
X13085357Y-13549214D01*
X13356786Y-13549214D02*
X13356786Y-13392071D01*
X13342500Y-13363500D01*
X13313928Y-13349214D01*
X13256786Y-13349214D01*
X13228214Y-13363500D01*
X13356786Y-13534929D02*
X13328214Y-13549214D01*
X13256786Y-13549214D01*
X13228214Y-13534929D01*
X13213928Y-13506357D01*
X13213928Y-13477786D01*
X13228214Y-13449214D01*
X13256786Y-13434929D01*
X13328214Y-13434929D01*
X13356786Y-13420643D01*
X13499643Y-13349214D02*
X13499643Y-13649214D01*
X13499643Y-13363500D02*
X13528214Y-13349214D01*
X13585357Y-13349214D01*
X13613928Y-13363500D01*
X13628214Y-13377786D01*
X13642500Y-13406357D01*
X13642500Y-13492071D01*
X13628214Y-13520643D01*
X13613928Y-13534929D01*
X13585357Y-13549214D01*
X13528214Y-13549214D01*
X13499643Y-13534929D01*
X13771071Y-13520643D02*
X13785357Y-13534929D01*
X13771071Y-13549214D01*
X13756786Y-13534929D01*
X13771071Y-13520643D01*
X13771071Y-13549214D01*
X13771071Y-13363500D02*
X13785357Y-13377786D01*
X13771071Y-13392071D01*
X13756786Y-13377786D01*
X13771071Y-13363500D01*
X13771071Y-13392071D01*
M02*
