%FSLAX45Y45*%
G04 Gerber Fmt 4.5, Leading zero omitted, Abs format (unit mm)*
G04 Created by KiCad (PCBNEW (5.1.6)-1) date 2020-09-19 20:41:14*
%MOMM*%
%LPD*%
G01*
G04 APERTURE LIST*
%TA.AperFunction,Profile*%
%ADD10C,0.050000*%
%TD*%
%ADD11C,0.200000*%
%ADD12C,0.300000*%
G04 APERTURE END LIST*
D10*
X11430000Y-13081000D02*
X11430000Y-7747000D01*
X16764000Y-13081000D02*
X11430000Y-13081000D01*
X16764000Y-7747000D02*
X16764000Y-13081000D01*
X11430000Y-7747000D02*
X16764000Y-7747000D01*
D11*
X11664000Y-8362000D02*
X11704000Y-8402000D01*
X11704000Y-8362000D02*
X11664000Y-8402000D01*
X11791000Y-10140000D02*
X11831000Y-10180000D01*
X11831000Y-10140000D02*
X11791000Y-10180000D01*
X11791000Y-10648000D02*
X11831000Y-10688000D01*
X11831000Y-10648000D02*
X11791000Y-10688000D01*
X11791000Y-11283000D02*
X11831000Y-11323000D01*
X11831000Y-11283000D02*
X11791000Y-11323000D01*
X11791000Y-11918000D02*
X11831000Y-11958000D01*
X11831000Y-11918000D02*
X11791000Y-11958000D01*
X12426000Y-12426000D02*
X12466000Y-12466000D01*
X12466000Y-12426000D02*
X12426000Y-12466000D01*
X12553000Y-8870000D02*
X12593000Y-8910000D01*
X12593000Y-8870000D02*
X12553000Y-8910000D01*
X12553000Y-9124000D02*
X12593000Y-9164000D01*
X12593000Y-9124000D02*
X12553000Y-9164000D01*
X12553000Y-9632000D02*
X12593000Y-9672000D01*
X12593000Y-9632000D02*
X12553000Y-9672000D01*
X12553000Y-12172000D02*
X12593000Y-12212000D01*
X12593000Y-12172000D02*
X12553000Y-12212000D01*
X12553000Y-12553000D02*
X12593000Y-12593000D01*
X12593000Y-12553000D02*
X12553000Y-12593000D01*
X12680000Y-12553000D02*
X12720000Y-12593000D01*
X12720000Y-12553000D02*
X12680000Y-12593000D01*
X12807000Y-8870000D02*
X12847000Y-8910000D01*
X12847000Y-8870000D02*
X12807000Y-8910000D01*
X12807000Y-12172000D02*
X12847000Y-12212000D01*
X12847000Y-12172000D02*
X12807000Y-12212000D01*
X12807000Y-12553000D02*
X12847000Y-12593000D01*
X12847000Y-12553000D02*
X12807000Y-12593000D01*
X12934000Y-12426000D02*
X12974000Y-12466000D01*
X12974000Y-12426000D02*
X12934000Y-12466000D01*
X13061000Y-8870000D02*
X13101000Y-8910000D01*
X13101000Y-8870000D02*
X13061000Y-8910000D01*
X13315000Y-8870000D02*
X13355000Y-8910000D01*
X13355000Y-8870000D02*
X13315000Y-8910000D01*
X13315000Y-9124000D02*
X13355000Y-9164000D01*
X13355000Y-9124000D02*
X13315000Y-9164000D01*
X13315000Y-9505000D02*
X13355000Y-9545000D01*
X13355000Y-9505000D02*
X13315000Y-9545000D01*
X13442000Y-8870000D02*
X13482000Y-8910000D01*
X13482000Y-8870000D02*
X13442000Y-8910000D01*
X13442000Y-9124000D02*
X13482000Y-9164000D01*
X13482000Y-9124000D02*
X13442000Y-9164000D01*
X13442000Y-9505000D02*
X13482000Y-9545000D01*
X13482000Y-9505000D02*
X13442000Y-9545000D01*
X13442000Y-9886000D02*
X13482000Y-9926000D01*
X13482000Y-9886000D02*
X13442000Y-9926000D01*
X13442000Y-10267000D02*
X13482000Y-10307000D01*
X13482000Y-10267000D02*
X13442000Y-10307000D01*
X13442000Y-10775000D02*
X13482000Y-10815000D01*
X13482000Y-10775000D02*
X13442000Y-10815000D01*
X13442000Y-11156000D02*
X13482000Y-11196000D01*
X13482000Y-11156000D02*
X13442000Y-11196000D01*
X13569000Y-8616000D02*
X13609000Y-8656000D01*
X13609000Y-8616000D02*
X13569000Y-8656000D01*
X13569000Y-8870000D02*
X13609000Y-8910000D01*
X13609000Y-8870000D02*
X13569000Y-8910000D01*
X13569000Y-9124000D02*
X13609000Y-9164000D01*
X13609000Y-9124000D02*
X13569000Y-9164000D01*
X13569000Y-9505000D02*
X13609000Y-9545000D01*
X13609000Y-9505000D02*
X13569000Y-9545000D01*
X13696000Y-8235000D02*
X13736000Y-8275000D01*
X13736000Y-8235000D02*
X13696000Y-8275000D01*
X13696000Y-8870000D02*
X13736000Y-8910000D01*
X13736000Y-8870000D02*
X13696000Y-8910000D01*
X13696000Y-9124000D02*
X13736000Y-9164000D01*
X13736000Y-9124000D02*
X13696000Y-9164000D01*
X13823000Y-8870000D02*
X13863000Y-8910000D01*
X13863000Y-8870000D02*
X13823000Y-8910000D01*
X13823000Y-9124000D02*
X13863000Y-9164000D01*
X13863000Y-9124000D02*
X13823000Y-9164000D01*
X13950000Y-8235000D02*
X13990000Y-8275000D01*
X13990000Y-8235000D02*
X13950000Y-8275000D01*
X13950000Y-8870000D02*
X13990000Y-8910000D01*
X13990000Y-8870000D02*
X13950000Y-8910000D01*
X13950000Y-9124000D02*
X13990000Y-9164000D01*
X13990000Y-9124000D02*
X13950000Y-9164000D01*
X14077000Y-8870000D02*
X14117000Y-8910000D01*
X14117000Y-8870000D02*
X14077000Y-8910000D01*
X14077000Y-9124000D02*
X14117000Y-9164000D01*
X14117000Y-9124000D02*
X14077000Y-9164000D01*
X14331000Y-9759000D02*
X14371000Y-9799000D01*
X14371000Y-9759000D02*
X14331000Y-9799000D01*
X14331000Y-10013000D02*
X14371000Y-10053000D01*
X14371000Y-10013000D02*
X14331000Y-10053000D01*
X14331000Y-10267000D02*
X14371000Y-10307000D01*
X14371000Y-10267000D02*
X14331000Y-10307000D01*
X14331000Y-10521000D02*
X14371000Y-10561000D01*
X14371000Y-10521000D02*
X14331000Y-10561000D01*
X14331000Y-10775000D02*
X14371000Y-10815000D01*
X14371000Y-10775000D02*
X14331000Y-10815000D01*
X14712000Y-10648000D02*
X14752000Y-10688000D01*
X14752000Y-10648000D02*
X14712000Y-10688000D01*
X14788200Y-8870000D02*
X14828200Y-8910000D01*
X14828200Y-8870000D02*
X14788200Y-8910000D01*
X15093000Y-10648000D02*
X15133000Y-10688000D01*
X15133000Y-10648000D02*
X15093000Y-10688000D01*
X15296200Y-9479600D02*
X15336200Y-9519600D01*
X15336200Y-9479600D02*
X15296200Y-9519600D01*
X15347000Y-11156000D02*
X15387000Y-11196000D01*
X15387000Y-11156000D02*
X15347000Y-11196000D01*
X15474000Y-10648000D02*
X15514000Y-10688000D01*
X15514000Y-10648000D02*
X15474000Y-10688000D01*
X15601000Y-10521000D02*
X15641000Y-10561000D01*
X15641000Y-10521000D02*
X15601000Y-10561000D01*
X15601000Y-10775000D02*
X15641000Y-10815000D01*
X15641000Y-10775000D02*
X15601000Y-10815000D01*
X15677200Y-9657400D02*
X15717200Y-9697400D01*
X15717200Y-9657400D02*
X15677200Y-9697400D01*
X15728000Y-10267000D02*
X15768000Y-10307000D01*
X15768000Y-10267000D02*
X15728000Y-10307000D01*
X15855000Y-11156000D02*
X15895000Y-11196000D01*
X15895000Y-11156000D02*
X15855000Y-11196000D01*
X15931200Y-9657400D02*
X15971200Y-9697400D01*
X15971200Y-9657400D02*
X15931200Y-9697400D01*
X15982000Y-10902000D02*
X16022000Y-10942000D01*
X16022000Y-10902000D02*
X15982000Y-10942000D01*
X16109000Y-8362000D02*
X16149000Y-8402000D01*
X16149000Y-8362000D02*
X16109000Y-8402000D01*
X16236000Y-10394000D02*
X16276000Y-10434000D01*
X16276000Y-10394000D02*
X16236000Y-10434000D01*
X16363000Y-10394000D02*
X16403000Y-10434000D01*
X16403000Y-10394000D02*
X16363000Y-10434000D01*
X16363000Y-10902000D02*
X16403000Y-10942000D01*
X16403000Y-10902000D02*
X16363000Y-10942000D01*
X16363000Y-12045000D02*
X16403000Y-12085000D01*
X16403000Y-12045000D02*
X16363000Y-12085000D01*
X16363000Y-12299000D02*
X16403000Y-12339000D01*
X16403000Y-12299000D02*
X16363000Y-12339000D01*
X16363000Y-12553000D02*
X16403000Y-12593000D01*
X16403000Y-12553000D02*
X16363000Y-12593000D01*
X16439200Y-11410000D02*
X16479200Y-11450000D01*
X16479200Y-11410000D02*
X16439200Y-11450000D01*
X16490000Y-8362000D02*
X16530000Y-8402000D01*
X16530000Y-8362000D02*
X16490000Y-8402000D01*
X16490000Y-8743000D02*
X16530000Y-8783000D01*
X16530000Y-8743000D02*
X16490000Y-8783000D01*
X16490000Y-10902000D02*
X16530000Y-10942000D01*
X16530000Y-10902000D02*
X16490000Y-10942000D01*
X14465300Y-8636000D02*
G75*
G03*
X14465300Y-8636000I-38100J0D01*
G01*
X14465300Y-9398000D02*
G75*
G03*
X14465300Y-9398000I-38100J0D01*
G01*
X14719300Y-8636000D02*
G75*
G03*
X14719300Y-8636000I-38100J0D01*
G01*
X14719300Y-9398000D02*
G75*
G03*
X14719300Y-9398000I-38100J0D01*
G01*
X14973300Y-8636000D02*
G75*
G03*
X14973300Y-8636000I-38100J0D01*
G01*
X14973300Y-9398000D02*
G75*
G03*
X14973300Y-9398000I-38100J0D01*
G01*
X15227300Y-8636000D02*
G75*
G03*
X15227300Y-8636000I-38100J0D01*
G01*
X15227300Y-9398000D02*
G75*
G03*
X15227300Y-9398000I-38100J0D01*
G01*
X15481300Y-8636000D02*
G75*
G03*
X15481300Y-8636000I-38100J0D01*
G01*
X15481300Y-9398000D02*
G75*
G03*
X15481300Y-9398000I-38100J0D01*
G01*
X15735300Y-8636000D02*
G75*
G03*
X15735300Y-8636000I-38100J0D01*
G01*
X15735300Y-9398000D02*
G75*
G03*
X15735300Y-9398000I-38100J0D01*
G01*
X11659000Y-7951000D02*
X11659000Y-8051000D01*
X11609000Y-8001000D02*
X11709000Y-8001000D01*
X11913000Y-7951000D02*
X11913000Y-8051000D01*
X11863000Y-8001000D02*
X11963000Y-8001000D01*
X12167000Y-7951000D02*
X12167000Y-8051000D01*
X12117000Y-8001000D02*
X12217000Y-8001000D01*
X12421000Y-7951000D02*
X12421000Y-8051000D01*
X12371000Y-8001000D02*
X12471000Y-8001000D01*
X12573000Y-12777000D02*
X12573000Y-12877000D01*
X12523000Y-12827000D02*
X12623000Y-12827000D01*
X12675000Y-7951000D02*
X12675000Y-8051000D01*
X12625000Y-8001000D02*
X12725000Y-8001000D01*
X12827000Y-12777000D02*
X12827000Y-12877000D01*
X12777000Y-12827000D02*
X12877000Y-12827000D01*
X12929000Y-7951000D02*
X12929000Y-8051000D01*
X12879000Y-8001000D02*
X12979000Y-8001000D01*
X13081000Y-12777000D02*
X13081000Y-12877000D01*
X13031000Y-12827000D02*
X13131000Y-12827000D01*
X13183000Y-7951000D02*
X13183000Y-8051000D01*
X13133000Y-8001000D02*
X13233000Y-8001000D01*
X13335000Y-12777000D02*
X13335000Y-12877000D01*
X13285000Y-12827000D02*
X13385000Y-12827000D01*
X13437000Y-7951000D02*
X13437000Y-8051000D01*
X13387000Y-8001000D02*
X13487000Y-8001000D01*
X13589000Y-12777000D02*
X13589000Y-12877000D01*
X13539000Y-12827000D02*
X13639000Y-12827000D01*
X13691000Y-7951000D02*
X13691000Y-8051000D01*
X13641000Y-8001000D02*
X13741000Y-8001000D01*
X13843000Y-12777000D02*
X13843000Y-12877000D01*
X13793000Y-12827000D02*
X13893000Y-12827000D01*
X13945000Y-7951000D02*
X13945000Y-8051000D01*
X13895000Y-8001000D02*
X13995000Y-8001000D01*
X14097000Y-12777000D02*
X14097000Y-12877000D01*
X14047000Y-12827000D02*
X14147000Y-12827000D01*
X14351000Y-7951000D02*
X14351000Y-8051000D01*
X14301000Y-8001000D02*
X14401000Y-8001000D01*
X14351000Y-12777000D02*
X14351000Y-12877000D01*
X14301000Y-12827000D02*
X14401000Y-12827000D01*
X14605000Y-7951000D02*
X14605000Y-8051000D01*
X14555000Y-8001000D02*
X14655000Y-8001000D01*
X14859000Y-7951000D02*
X14859000Y-8051000D01*
X14809000Y-8001000D02*
X14909000Y-8001000D01*
X14859000Y-12777000D02*
X14859000Y-12877000D01*
X14809000Y-12827000D02*
X14909000Y-12827000D01*
X15113000Y-7951000D02*
X15113000Y-8051000D01*
X15063000Y-8001000D02*
X15163000Y-8001000D01*
X15113000Y-12777000D02*
X15113000Y-12877000D01*
X15063000Y-12827000D02*
X15163000Y-12827000D01*
X15367000Y-7951000D02*
X15367000Y-8051000D01*
X15317000Y-8001000D02*
X15417000Y-8001000D01*
X15367000Y-12777000D02*
X15367000Y-12877000D01*
X15317000Y-12827000D02*
X15417000Y-12827000D01*
X15621000Y-7951000D02*
X15621000Y-8051000D01*
X15571000Y-8001000D02*
X15671000Y-8001000D01*
X15621000Y-12777000D02*
X15621000Y-12877000D01*
X15571000Y-12827000D02*
X15671000Y-12827000D01*
X15875000Y-7951000D02*
X15875000Y-8051000D01*
X15825000Y-8001000D02*
X15925000Y-8001000D01*
X15875000Y-12777000D02*
X15875000Y-12877000D01*
X15825000Y-12827000D02*
X15925000Y-12827000D01*
X16129000Y-7951000D02*
X16129000Y-8051000D01*
X16079000Y-8001000D02*
X16179000Y-8001000D01*
X16129000Y-12777000D02*
X16129000Y-12877000D01*
X16079000Y-12827000D02*
X16179000Y-12827000D01*
X11856962Y-9070962D02*
X11856962Y-8979038D01*
X11765038Y-8979038D01*
X11765038Y-9070962D01*
X11856962Y-9070962D01*
X11856962Y-9570962D02*
X11856962Y-9479038D01*
X11765038Y-9479038D01*
X11765038Y-9570962D01*
X11856962Y-9570962D01*
D12*
X11713928Y-13549214D02*
X11713928Y-13249214D01*
X11785357Y-13249214D01*
X11828214Y-13263500D01*
X11856786Y-13292071D01*
X11871071Y-13320643D01*
X11885357Y-13377786D01*
X11885357Y-13420643D01*
X11871071Y-13477786D01*
X11856786Y-13506357D01*
X11828214Y-13534929D01*
X11785357Y-13549214D01*
X11713928Y-13549214D01*
X12013928Y-13549214D02*
X12013928Y-13349214D01*
X12013928Y-13406357D02*
X12028214Y-13377786D01*
X12042500Y-13363500D01*
X12071071Y-13349214D01*
X12099643Y-13349214D01*
X12199643Y-13549214D02*
X12199643Y-13349214D01*
X12199643Y-13249214D02*
X12185357Y-13263500D01*
X12199643Y-13277786D01*
X12213928Y-13263500D01*
X12199643Y-13249214D01*
X12199643Y-13277786D01*
X12385357Y-13549214D02*
X12356786Y-13534929D01*
X12342500Y-13506357D01*
X12342500Y-13249214D01*
X12542500Y-13549214D02*
X12513928Y-13534929D01*
X12499643Y-13506357D01*
X12499643Y-13249214D01*
X12885357Y-13549214D02*
X12885357Y-13249214D01*
X12985357Y-13463500D01*
X13085357Y-13249214D01*
X13085357Y-13549214D01*
X13356786Y-13549214D02*
X13356786Y-13392071D01*
X13342500Y-13363500D01*
X13313928Y-13349214D01*
X13256786Y-13349214D01*
X13228214Y-13363500D01*
X13356786Y-13534929D02*
X13328214Y-13549214D01*
X13256786Y-13549214D01*
X13228214Y-13534929D01*
X13213928Y-13506357D01*
X13213928Y-13477786D01*
X13228214Y-13449214D01*
X13256786Y-13434929D01*
X13328214Y-13434929D01*
X13356786Y-13420643D01*
X13499643Y-13349214D02*
X13499643Y-13649214D01*
X13499643Y-13363500D02*
X13528214Y-13349214D01*
X13585357Y-13349214D01*
X13613928Y-13363500D01*
X13628214Y-13377786D01*
X13642500Y-13406357D01*
X13642500Y-13492071D01*
X13628214Y-13520643D01*
X13613928Y-13534929D01*
X13585357Y-13549214D01*
X13528214Y-13549214D01*
X13499643Y-13534929D01*
X13771071Y-13520643D02*
X13785357Y-13534929D01*
X13771071Y-13549214D01*
X13756786Y-13534929D01*
X13771071Y-13520643D01*
X13771071Y-13549214D01*
X13771071Y-13363500D02*
X13785357Y-13377786D01*
X13771071Y-13392071D01*
X13756786Y-13377786D01*
X13771071Y-13363500D01*
X13771071Y-13392071D01*
X11387500Y-14023500D02*
X11427500Y-14063500D01*
X11427500Y-14023500D02*
X11387500Y-14063500D01*
X11771071Y-13879214D02*
X11799643Y-13879214D01*
X11828214Y-13893500D01*
X11842500Y-13907786D01*
X11856786Y-13936357D01*
X11871071Y-13993500D01*
X11871071Y-14064929D01*
X11856786Y-14122071D01*
X11842500Y-14150643D01*
X11828214Y-14164929D01*
X11799643Y-14179214D01*
X11771071Y-14179214D01*
X11742500Y-14164929D01*
X11728214Y-14150643D01*
X11713928Y-14122071D01*
X11699643Y-14064929D01*
X11699643Y-13993500D01*
X11713928Y-13936357D01*
X11728214Y-13907786D01*
X11742500Y-13893500D01*
X11771071Y-13879214D01*
X11999643Y-14150643D02*
X12013928Y-14164929D01*
X11999643Y-14179214D01*
X11985357Y-14164929D01*
X11999643Y-14150643D01*
X11999643Y-14179214D01*
X12271071Y-13979214D02*
X12271071Y-14179214D01*
X12199643Y-13864929D02*
X12128214Y-14079214D01*
X12313928Y-14079214D01*
X12485357Y-13879214D02*
X12513928Y-13879214D01*
X12542500Y-13893500D01*
X12556786Y-13907786D01*
X12571071Y-13936357D01*
X12585357Y-13993500D01*
X12585357Y-14064929D01*
X12571071Y-14122071D01*
X12556786Y-14150643D01*
X12542500Y-14164929D01*
X12513928Y-14179214D01*
X12485357Y-14179214D01*
X12456786Y-14164929D01*
X12442500Y-14150643D01*
X12428214Y-14122071D01*
X12413928Y-14064929D01*
X12413928Y-13993500D01*
X12428214Y-13936357D01*
X12442500Y-13907786D01*
X12456786Y-13893500D01*
X12485357Y-13879214D01*
X12713928Y-14179214D02*
X12713928Y-13979214D01*
X12713928Y-14007786D02*
X12728214Y-13993500D01*
X12756786Y-13979214D01*
X12799643Y-13979214D01*
X12828214Y-13993500D01*
X12842500Y-14022071D01*
X12842500Y-14179214D01*
X12842500Y-14022071D02*
X12856786Y-13993500D01*
X12885357Y-13979214D01*
X12928214Y-13979214D01*
X12956786Y-13993500D01*
X12971071Y-14022071D01*
X12971071Y-14179214D01*
X13113928Y-14179214D02*
X13113928Y-13979214D01*
X13113928Y-14007786D02*
X13128214Y-13993500D01*
X13156786Y-13979214D01*
X13199643Y-13979214D01*
X13228214Y-13993500D01*
X13242500Y-14022071D01*
X13242500Y-14179214D01*
X13242500Y-14022071D02*
X13256786Y-13993500D01*
X13285357Y-13979214D01*
X13328214Y-13979214D01*
X13356786Y-13993500D01*
X13371071Y-14022071D01*
X13371071Y-14179214D01*
X13956786Y-13864929D02*
X13699643Y-14250643D01*
X14342500Y-13879214D02*
X14371071Y-13879214D01*
X14399643Y-13893500D01*
X14413928Y-13907786D01*
X14428214Y-13936357D01*
X14442500Y-13993500D01*
X14442500Y-14064929D01*
X14428214Y-14122071D01*
X14413928Y-14150643D01*
X14399643Y-14164929D01*
X14371071Y-14179214D01*
X14342500Y-14179214D01*
X14313928Y-14164929D01*
X14299643Y-14150643D01*
X14285357Y-14122071D01*
X14271071Y-14064929D01*
X14271071Y-13993500D01*
X14285357Y-13936357D01*
X14299643Y-13907786D01*
X14313928Y-13893500D01*
X14342500Y-13879214D01*
X14571071Y-14150643D02*
X14585357Y-14164929D01*
X14571071Y-14179214D01*
X14556786Y-14164929D01*
X14571071Y-14150643D01*
X14571071Y-14179214D01*
X14771071Y-13879214D02*
X14799643Y-13879214D01*
X14828214Y-13893500D01*
X14842500Y-13907786D01*
X14856786Y-13936357D01*
X14871071Y-13993500D01*
X14871071Y-14064929D01*
X14856786Y-14122071D01*
X14842500Y-14150643D01*
X14828214Y-14164929D01*
X14799643Y-14179214D01*
X14771071Y-14179214D01*
X14742500Y-14164929D01*
X14728214Y-14150643D01*
X14713928Y-14122071D01*
X14699643Y-14064929D01*
X14699643Y-13993500D01*
X14713928Y-13936357D01*
X14728214Y-13907786D01*
X14742500Y-13893500D01*
X14771071Y-13879214D01*
X15156786Y-14179214D02*
X14985357Y-14179214D01*
X15071071Y-14179214D02*
X15071071Y-13879214D01*
X15042500Y-13922071D01*
X15013928Y-13950643D01*
X14985357Y-13964929D01*
X15413928Y-13879214D02*
X15356786Y-13879214D01*
X15328214Y-13893500D01*
X15313928Y-13907786D01*
X15285357Y-13950643D01*
X15271071Y-14007786D01*
X15271071Y-14122071D01*
X15285357Y-14150643D01*
X15299643Y-14164929D01*
X15328214Y-14179214D01*
X15385357Y-14179214D01*
X15413928Y-14164929D01*
X15428214Y-14150643D01*
X15442500Y-14122071D01*
X15442500Y-14050643D01*
X15428214Y-14022071D01*
X15413928Y-14007786D01*
X15385357Y-13993500D01*
X15328214Y-13993500D01*
X15299643Y-14007786D01*
X15285357Y-14022071D01*
X15271071Y-14050643D01*
X15556786Y-13879214D02*
X15556786Y-13936357D01*
X15671071Y-13879214D02*
X15671071Y-13936357D01*
X16113928Y-14293500D02*
X16099643Y-14279214D01*
X16071071Y-14236357D01*
X16056786Y-14207786D01*
X16042500Y-14164929D01*
X16028214Y-14093500D01*
X16028214Y-14036357D01*
X16042500Y-13964929D01*
X16056786Y-13922071D01*
X16071071Y-13893500D01*
X16099643Y-13850643D01*
X16113928Y-13836357D01*
X16199643Y-13879214D02*
X16399643Y-13879214D01*
X16271071Y-14179214D01*
X16571071Y-13879214D02*
X16599643Y-13879214D01*
X16628214Y-13893500D01*
X16642500Y-13907786D01*
X16656786Y-13936357D01*
X16671071Y-13993500D01*
X16671071Y-14064929D01*
X16656786Y-14122071D01*
X16642500Y-14150643D01*
X16628214Y-14164929D01*
X16599643Y-14179214D01*
X16571071Y-14179214D01*
X16542500Y-14164929D01*
X16528214Y-14150643D01*
X16513928Y-14122071D01*
X16499643Y-14064929D01*
X16499643Y-13993500D01*
X16513928Y-13936357D01*
X16528214Y-13907786D01*
X16542500Y-13893500D01*
X16571071Y-13879214D01*
X17028214Y-14179214D02*
X17028214Y-13879214D01*
X17156786Y-14179214D02*
X17156786Y-14022071D01*
X17142500Y-13993500D01*
X17113928Y-13979214D01*
X17071071Y-13979214D01*
X17042500Y-13993500D01*
X17028214Y-14007786D01*
X17342500Y-14179214D02*
X17313928Y-14164929D01*
X17299643Y-14150643D01*
X17285357Y-14122071D01*
X17285357Y-14036357D01*
X17299643Y-14007786D01*
X17313928Y-13993500D01*
X17342500Y-13979214D01*
X17385357Y-13979214D01*
X17413928Y-13993500D01*
X17428214Y-14007786D01*
X17442500Y-14036357D01*
X17442500Y-14122071D01*
X17428214Y-14150643D01*
X17413928Y-14164929D01*
X17385357Y-14179214D01*
X17342500Y-14179214D01*
X17613928Y-14179214D02*
X17585357Y-14164929D01*
X17571071Y-14136357D01*
X17571071Y-13879214D01*
X17842500Y-14164929D02*
X17813928Y-14179214D01*
X17756786Y-14179214D01*
X17728214Y-14164929D01*
X17713928Y-14136357D01*
X17713928Y-14022071D01*
X17728214Y-13993500D01*
X17756786Y-13979214D01*
X17813928Y-13979214D01*
X17842500Y-13993500D01*
X17856786Y-14022071D01*
X17856786Y-14050643D01*
X17713928Y-14079214D01*
X17971071Y-14164929D02*
X17999643Y-14179214D01*
X18056786Y-14179214D01*
X18085357Y-14164929D01*
X18099643Y-14136357D01*
X18099643Y-14122071D01*
X18085357Y-14093500D01*
X18056786Y-14079214D01*
X18013928Y-14079214D01*
X17985357Y-14064929D01*
X17971071Y-14036357D01*
X17971071Y-14022071D01*
X17985357Y-13993500D01*
X18013928Y-13979214D01*
X18056786Y-13979214D01*
X18085357Y-13993500D01*
X18199643Y-14293500D02*
X18213928Y-14279214D01*
X18242500Y-14236357D01*
X18256786Y-14207786D01*
X18271071Y-14164929D01*
X18285357Y-14093500D01*
X18285357Y-14036357D01*
X18271071Y-13964929D01*
X18256786Y-13922071D01*
X18242500Y-13893500D01*
X18213928Y-13850643D01*
X18199643Y-13836357D01*
X11427500Y-14439500D02*
G75*
G03*
X11427500Y-14439500I-38100J0D01*
G01*
X11771071Y-14275214D02*
X11799643Y-14275214D01*
X11828214Y-14289500D01*
X11842500Y-14303786D01*
X11856786Y-14332357D01*
X11871071Y-14389500D01*
X11871071Y-14460929D01*
X11856786Y-14518071D01*
X11842500Y-14546643D01*
X11828214Y-14560929D01*
X11799643Y-14575214D01*
X11771071Y-14575214D01*
X11742500Y-14560929D01*
X11728214Y-14546643D01*
X11713928Y-14518071D01*
X11699643Y-14460929D01*
X11699643Y-14389500D01*
X11713928Y-14332357D01*
X11728214Y-14303786D01*
X11742500Y-14289500D01*
X11771071Y-14275214D01*
X11999643Y-14546643D02*
X12013928Y-14560929D01*
X11999643Y-14575214D01*
X11985357Y-14560929D01*
X11999643Y-14546643D01*
X11999643Y-14575214D01*
X12113928Y-14275214D02*
X12313928Y-14275214D01*
X12185357Y-14575214D01*
X12556786Y-14275214D02*
X12499643Y-14275214D01*
X12471071Y-14289500D01*
X12456786Y-14303786D01*
X12428214Y-14346643D01*
X12413928Y-14403786D01*
X12413928Y-14518071D01*
X12428214Y-14546643D01*
X12442500Y-14560929D01*
X12471071Y-14575214D01*
X12528214Y-14575214D01*
X12556786Y-14560929D01*
X12571071Y-14546643D01*
X12585357Y-14518071D01*
X12585357Y-14446643D01*
X12571071Y-14418071D01*
X12556786Y-14403786D01*
X12528214Y-14389500D01*
X12471071Y-14389500D01*
X12442500Y-14403786D01*
X12428214Y-14418071D01*
X12413928Y-14446643D01*
X12713928Y-14575214D02*
X12713928Y-14375214D01*
X12713928Y-14403786D02*
X12728214Y-14389500D01*
X12756786Y-14375214D01*
X12799643Y-14375214D01*
X12828214Y-14389500D01*
X12842500Y-14418071D01*
X12842500Y-14575214D01*
X12842500Y-14418071D02*
X12856786Y-14389500D01*
X12885357Y-14375214D01*
X12928214Y-14375214D01*
X12956786Y-14389500D01*
X12971071Y-14418071D01*
X12971071Y-14575214D01*
X13113928Y-14575214D02*
X13113928Y-14375214D01*
X13113928Y-14403786D02*
X13128214Y-14389500D01*
X13156786Y-14375214D01*
X13199643Y-14375214D01*
X13228214Y-14389500D01*
X13242500Y-14418071D01*
X13242500Y-14575214D01*
X13242500Y-14418071D02*
X13256786Y-14389500D01*
X13285357Y-14375214D01*
X13328214Y-14375214D01*
X13356786Y-14389500D01*
X13371071Y-14418071D01*
X13371071Y-14575214D01*
X13956786Y-14260929D02*
X13699643Y-14646643D01*
X14342500Y-14275214D02*
X14371071Y-14275214D01*
X14399643Y-14289500D01*
X14413928Y-14303786D01*
X14428214Y-14332357D01*
X14442500Y-14389500D01*
X14442500Y-14460929D01*
X14428214Y-14518071D01*
X14413928Y-14546643D01*
X14399643Y-14560929D01*
X14371071Y-14575214D01*
X14342500Y-14575214D01*
X14313928Y-14560929D01*
X14299643Y-14546643D01*
X14285357Y-14518071D01*
X14271071Y-14460929D01*
X14271071Y-14389500D01*
X14285357Y-14332357D01*
X14299643Y-14303786D01*
X14313928Y-14289500D01*
X14342500Y-14275214D01*
X14571071Y-14546643D02*
X14585357Y-14560929D01*
X14571071Y-14575214D01*
X14556786Y-14560929D01*
X14571071Y-14546643D01*
X14571071Y-14575214D01*
X14771071Y-14275214D02*
X14799643Y-14275214D01*
X14828214Y-14289500D01*
X14842500Y-14303786D01*
X14856786Y-14332357D01*
X14871071Y-14389500D01*
X14871071Y-14460929D01*
X14856786Y-14518071D01*
X14842500Y-14546643D01*
X14828214Y-14560929D01*
X14799643Y-14575214D01*
X14771071Y-14575214D01*
X14742500Y-14560929D01*
X14728214Y-14546643D01*
X14713928Y-14518071D01*
X14699643Y-14460929D01*
X14699643Y-14389500D01*
X14713928Y-14332357D01*
X14728214Y-14303786D01*
X14742500Y-14289500D01*
X14771071Y-14275214D01*
X14971071Y-14275214D02*
X15156786Y-14275214D01*
X15056786Y-14389500D01*
X15099643Y-14389500D01*
X15128214Y-14403786D01*
X15142500Y-14418071D01*
X15156786Y-14446643D01*
X15156786Y-14518071D01*
X15142500Y-14546643D01*
X15128214Y-14560929D01*
X15099643Y-14575214D01*
X15013928Y-14575214D01*
X14985357Y-14560929D01*
X14971071Y-14546643D01*
X15342500Y-14275214D02*
X15371071Y-14275214D01*
X15399643Y-14289500D01*
X15413928Y-14303786D01*
X15428214Y-14332357D01*
X15442500Y-14389500D01*
X15442500Y-14460929D01*
X15428214Y-14518071D01*
X15413928Y-14546643D01*
X15399643Y-14560929D01*
X15371071Y-14575214D01*
X15342500Y-14575214D01*
X15313928Y-14560929D01*
X15299643Y-14546643D01*
X15285357Y-14518071D01*
X15271071Y-14460929D01*
X15271071Y-14389500D01*
X15285357Y-14332357D01*
X15299643Y-14303786D01*
X15313928Y-14289500D01*
X15342500Y-14275214D01*
X15556786Y-14275214D02*
X15556786Y-14332357D01*
X15671071Y-14275214D02*
X15671071Y-14332357D01*
X16113928Y-14689500D02*
X16099643Y-14675214D01*
X16071071Y-14632357D01*
X16056786Y-14603786D01*
X16042500Y-14560929D01*
X16028214Y-14489500D01*
X16028214Y-14432357D01*
X16042500Y-14360929D01*
X16056786Y-14318071D01*
X16071071Y-14289500D01*
X16099643Y-14246643D01*
X16113928Y-14232357D01*
X16385357Y-14575214D02*
X16213928Y-14575214D01*
X16299643Y-14575214D02*
X16299643Y-14275214D01*
X16271071Y-14318071D01*
X16242500Y-14346643D01*
X16213928Y-14360929D01*
X16499643Y-14303786D02*
X16513928Y-14289500D01*
X16542500Y-14275214D01*
X16613928Y-14275214D01*
X16642500Y-14289500D01*
X16656786Y-14303786D01*
X16671071Y-14332357D01*
X16671071Y-14360929D01*
X16656786Y-14403786D01*
X16485357Y-14575214D01*
X16671071Y-14575214D01*
X17028214Y-14575214D02*
X17028214Y-14275214D01*
X17156786Y-14575214D02*
X17156786Y-14418071D01*
X17142500Y-14389500D01*
X17113928Y-14375214D01*
X17071071Y-14375214D01*
X17042500Y-14389500D01*
X17028214Y-14403786D01*
X17342500Y-14575214D02*
X17313928Y-14560929D01*
X17299643Y-14546643D01*
X17285357Y-14518071D01*
X17285357Y-14432357D01*
X17299643Y-14403786D01*
X17313928Y-14389500D01*
X17342500Y-14375214D01*
X17385357Y-14375214D01*
X17413928Y-14389500D01*
X17428214Y-14403786D01*
X17442500Y-14432357D01*
X17442500Y-14518071D01*
X17428214Y-14546643D01*
X17413928Y-14560929D01*
X17385357Y-14575214D01*
X17342500Y-14575214D01*
X17613928Y-14575214D02*
X17585357Y-14560929D01*
X17571071Y-14532357D01*
X17571071Y-14275214D01*
X17842500Y-14560929D02*
X17813928Y-14575214D01*
X17756786Y-14575214D01*
X17728214Y-14560929D01*
X17713928Y-14532357D01*
X17713928Y-14418071D01*
X17728214Y-14389500D01*
X17756786Y-14375214D01*
X17813928Y-14375214D01*
X17842500Y-14389500D01*
X17856786Y-14418071D01*
X17856786Y-14446643D01*
X17713928Y-14475214D01*
X17971071Y-14560929D02*
X17999643Y-14575214D01*
X18056786Y-14575214D01*
X18085357Y-14560929D01*
X18099643Y-14532357D01*
X18099643Y-14518071D01*
X18085357Y-14489500D01*
X18056786Y-14475214D01*
X18013928Y-14475214D01*
X17985357Y-14460929D01*
X17971071Y-14432357D01*
X17971071Y-14418071D01*
X17985357Y-14389500D01*
X18013928Y-14375214D01*
X18056786Y-14375214D01*
X18085357Y-14389500D01*
X18199643Y-14689500D02*
X18213928Y-14675214D01*
X18242500Y-14632357D01*
X18256786Y-14603786D01*
X18271071Y-14560929D01*
X18285357Y-14489500D01*
X18285357Y-14432357D01*
X18271071Y-14360929D01*
X18256786Y-14318071D01*
X18242500Y-14289500D01*
X18213928Y-14246643D01*
X18199643Y-14232357D01*
X11377500Y-14785500D02*
X11377500Y-14885500D01*
X11327500Y-14835500D02*
X11427500Y-14835500D01*
X11871071Y-14971214D02*
X11699643Y-14971214D01*
X11785357Y-14971214D02*
X11785357Y-14671214D01*
X11756786Y-14714071D01*
X11728214Y-14742643D01*
X11699643Y-14756929D01*
X11999643Y-14942643D02*
X12013928Y-14956929D01*
X11999643Y-14971214D01*
X11985357Y-14956929D01*
X11999643Y-14942643D01*
X11999643Y-14971214D01*
X12199643Y-14671214D02*
X12228214Y-14671214D01*
X12256786Y-14685500D01*
X12271071Y-14699786D01*
X12285357Y-14728357D01*
X12299643Y-14785500D01*
X12299643Y-14856929D01*
X12285357Y-14914071D01*
X12271071Y-14942643D01*
X12256786Y-14956929D01*
X12228214Y-14971214D01*
X12199643Y-14971214D01*
X12171071Y-14956929D01*
X12156786Y-14942643D01*
X12142500Y-14914071D01*
X12128214Y-14856929D01*
X12128214Y-14785500D01*
X12142500Y-14728357D01*
X12156786Y-14699786D01*
X12171071Y-14685500D01*
X12199643Y-14671214D01*
X12485357Y-14671214D02*
X12513928Y-14671214D01*
X12542500Y-14685500D01*
X12556786Y-14699786D01*
X12571071Y-14728357D01*
X12585357Y-14785500D01*
X12585357Y-14856929D01*
X12571071Y-14914071D01*
X12556786Y-14942643D01*
X12542500Y-14956929D01*
X12513928Y-14971214D01*
X12485357Y-14971214D01*
X12456786Y-14956929D01*
X12442500Y-14942643D01*
X12428214Y-14914071D01*
X12413928Y-14856929D01*
X12413928Y-14785500D01*
X12428214Y-14728357D01*
X12442500Y-14699786D01*
X12456786Y-14685500D01*
X12485357Y-14671214D01*
X12713928Y-14971214D02*
X12713928Y-14771214D01*
X12713928Y-14799786D02*
X12728214Y-14785500D01*
X12756786Y-14771214D01*
X12799643Y-14771214D01*
X12828214Y-14785500D01*
X12842500Y-14814071D01*
X12842500Y-14971214D01*
X12842500Y-14814071D02*
X12856786Y-14785500D01*
X12885357Y-14771214D01*
X12928214Y-14771214D01*
X12956786Y-14785500D01*
X12971071Y-14814071D01*
X12971071Y-14971214D01*
X13113928Y-14971214D02*
X13113928Y-14771214D01*
X13113928Y-14799786D02*
X13128214Y-14785500D01*
X13156786Y-14771214D01*
X13199643Y-14771214D01*
X13228214Y-14785500D01*
X13242500Y-14814071D01*
X13242500Y-14971214D01*
X13242500Y-14814071D02*
X13256786Y-14785500D01*
X13285357Y-14771214D01*
X13328214Y-14771214D01*
X13356786Y-14785500D01*
X13371071Y-14814071D01*
X13371071Y-14971214D01*
X13956786Y-14656929D02*
X13699643Y-15042643D01*
X14342500Y-14671214D02*
X14371071Y-14671214D01*
X14399643Y-14685500D01*
X14413928Y-14699786D01*
X14428214Y-14728357D01*
X14442500Y-14785500D01*
X14442500Y-14856929D01*
X14428214Y-14914071D01*
X14413928Y-14942643D01*
X14399643Y-14956929D01*
X14371071Y-14971214D01*
X14342500Y-14971214D01*
X14313928Y-14956929D01*
X14299643Y-14942643D01*
X14285357Y-14914071D01*
X14271071Y-14856929D01*
X14271071Y-14785500D01*
X14285357Y-14728357D01*
X14299643Y-14699786D01*
X14313928Y-14685500D01*
X14342500Y-14671214D01*
X14571071Y-14942643D02*
X14585357Y-14956929D01*
X14571071Y-14971214D01*
X14556786Y-14956929D01*
X14571071Y-14942643D01*
X14571071Y-14971214D01*
X14771071Y-14671214D02*
X14799643Y-14671214D01*
X14828214Y-14685500D01*
X14842500Y-14699786D01*
X14856786Y-14728357D01*
X14871071Y-14785500D01*
X14871071Y-14856929D01*
X14856786Y-14914071D01*
X14842500Y-14942643D01*
X14828214Y-14956929D01*
X14799643Y-14971214D01*
X14771071Y-14971214D01*
X14742500Y-14956929D01*
X14728214Y-14942643D01*
X14713928Y-14914071D01*
X14699643Y-14856929D01*
X14699643Y-14785500D01*
X14713928Y-14728357D01*
X14728214Y-14699786D01*
X14742500Y-14685500D01*
X14771071Y-14671214D01*
X14971071Y-14671214D02*
X15156786Y-14671214D01*
X15056786Y-14785500D01*
X15099643Y-14785500D01*
X15128214Y-14799786D01*
X15142500Y-14814071D01*
X15156786Y-14842643D01*
X15156786Y-14914071D01*
X15142500Y-14942643D01*
X15128214Y-14956929D01*
X15099643Y-14971214D01*
X15013928Y-14971214D01*
X14985357Y-14956929D01*
X14971071Y-14942643D01*
X15299643Y-14971214D02*
X15356786Y-14971214D01*
X15385357Y-14956929D01*
X15399643Y-14942643D01*
X15428214Y-14899786D01*
X15442500Y-14842643D01*
X15442500Y-14728357D01*
X15428214Y-14699786D01*
X15413928Y-14685500D01*
X15385357Y-14671214D01*
X15328214Y-14671214D01*
X15299643Y-14685500D01*
X15285357Y-14699786D01*
X15271071Y-14728357D01*
X15271071Y-14799786D01*
X15285357Y-14828357D01*
X15299643Y-14842643D01*
X15328214Y-14856929D01*
X15385357Y-14856929D01*
X15413928Y-14842643D01*
X15428214Y-14828357D01*
X15442500Y-14799786D01*
X15556786Y-14671214D02*
X15556786Y-14728357D01*
X15671071Y-14671214D02*
X15671071Y-14728357D01*
X16113928Y-15085500D02*
X16099643Y-15071214D01*
X16071071Y-15028357D01*
X16056786Y-14999786D01*
X16042500Y-14956929D01*
X16028214Y-14885500D01*
X16028214Y-14828357D01*
X16042500Y-14756929D01*
X16056786Y-14714071D01*
X16071071Y-14685500D01*
X16099643Y-14642643D01*
X16113928Y-14628357D01*
X16199643Y-14671214D02*
X16385357Y-14671214D01*
X16285357Y-14785500D01*
X16328214Y-14785500D01*
X16356786Y-14799786D01*
X16371071Y-14814071D01*
X16385357Y-14842643D01*
X16385357Y-14914071D01*
X16371071Y-14942643D01*
X16356786Y-14956929D01*
X16328214Y-14971214D01*
X16242500Y-14971214D01*
X16213928Y-14956929D01*
X16199643Y-14942643D01*
X16499643Y-14699786D02*
X16513928Y-14685500D01*
X16542500Y-14671214D01*
X16613928Y-14671214D01*
X16642500Y-14685500D01*
X16656786Y-14699786D01*
X16671071Y-14728357D01*
X16671071Y-14756929D01*
X16656786Y-14799786D01*
X16485357Y-14971214D01*
X16671071Y-14971214D01*
X17028214Y-14971214D02*
X17028214Y-14671214D01*
X17156786Y-14971214D02*
X17156786Y-14814071D01*
X17142500Y-14785500D01*
X17113928Y-14771214D01*
X17071071Y-14771214D01*
X17042500Y-14785500D01*
X17028214Y-14799786D01*
X17342500Y-14971214D02*
X17313928Y-14956929D01*
X17299643Y-14942643D01*
X17285357Y-14914071D01*
X17285357Y-14828357D01*
X17299643Y-14799786D01*
X17313928Y-14785500D01*
X17342500Y-14771214D01*
X17385357Y-14771214D01*
X17413928Y-14785500D01*
X17428214Y-14799786D01*
X17442500Y-14828357D01*
X17442500Y-14914071D01*
X17428214Y-14942643D01*
X17413928Y-14956929D01*
X17385357Y-14971214D01*
X17342500Y-14971214D01*
X17613928Y-14971214D02*
X17585357Y-14956929D01*
X17571071Y-14928357D01*
X17571071Y-14671214D01*
X17842500Y-14956929D02*
X17813928Y-14971214D01*
X17756786Y-14971214D01*
X17728214Y-14956929D01*
X17713928Y-14928357D01*
X17713928Y-14814071D01*
X17728214Y-14785500D01*
X17756786Y-14771214D01*
X17813928Y-14771214D01*
X17842500Y-14785500D01*
X17856786Y-14814071D01*
X17856786Y-14842643D01*
X17713928Y-14871214D01*
X17971071Y-14956929D02*
X17999643Y-14971214D01*
X18056786Y-14971214D01*
X18085357Y-14956929D01*
X18099643Y-14928357D01*
X18099643Y-14914071D01*
X18085357Y-14885500D01*
X18056786Y-14871214D01*
X18013928Y-14871214D01*
X17985357Y-14856929D01*
X17971071Y-14828357D01*
X17971071Y-14814071D01*
X17985357Y-14785500D01*
X18013928Y-14771214D01*
X18056786Y-14771214D01*
X18085357Y-14785500D01*
X18199643Y-15085500D02*
X18213928Y-15071214D01*
X18242500Y-15028357D01*
X18256786Y-14999786D01*
X18271071Y-14956929D01*
X18285357Y-14885500D01*
X18285357Y-14828357D01*
X18271071Y-14756929D01*
X18256786Y-14714071D01*
X18242500Y-14685500D01*
X18213928Y-14642643D01*
X18199643Y-14628357D01*
X11408462Y-15277462D02*
X11408462Y-15185538D01*
X11316537Y-15185538D01*
X11316537Y-15277462D01*
X11408462Y-15277462D01*
X11871071Y-15367214D02*
X11699643Y-15367214D01*
X11785357Y-15367214D02*
X11785357Y-15067214D01*
X11756786Y-15110071D01*
X11728214Y-15138643D01*
X11699643Y-15152929D01*
X11999643Y-15338643D02*
X12013928Y-15352929D01*
X11999643Y-15367214D01*
X11985357Y-15352929D01*
X11999643Y-15338643D01*
X11999643Y-15367214D01*
X12113928Y-15067214D02*
X12299643Y-15067214D01*
X12199643Y-15181500D01*
X12242500Y-15181500D01*
X12271071Y-15195786D01*
X12285357Y-15210071D01*
X12299643Y-15238643D01*
X12299643Y-15310071D01*
X12285357Y-15338643D01*
X12271071Y-15352929D01*
X12242500Y-15367214D01*
X12156786Y-15367214D01*
X12128214Y-15352929D01*
X12113928Y-15338643D01*
X12485357Y-15067214D02*
X12513928Y-15067214D01*
X12542500Y-15081500D01*
X12556786Y-15095786D01*
X12571071Y-15124357D01*
X12585357Y-15181500D01*
X12585357Y-15252929D01*
X12571071Y-15310071D01*
X12556786Y-15338643D01*
X12542500Y-15352929D01*
X12513928Y-15367214D01*
X12485357Y-15367214D01*
X12456786Y-15352929D01*
X12442500Y-15338643D01*
X12428214Y-15310071D01*
X12413928Y-15252929D01*
X12413928Y-15181500D01*
X12428214Y-15124357D01*
X12442500Y-15095786D01*
X12456786Y-15081500D01*
X12485357Y-15067214D01*
X12713928Y-15367214D02*
X12713928Y-15167214D01*
X12713928Y-15195786D02*
X12728214Y-15181500D01*
X12756786Y-15167214D01*
X12799643Y-15167214D01*
X12828214Y-15181500D01*
X12842500Y-15210071D01*
X12842500Y-15367214D01*
X12842500Y-15210071D02*
X12856786Y-15181500D01*
X12885357Y-15167214D01*
X12928214Y-15167214D01*
X12956786Y-15181500D01*
X12971071Y-15210071D01*
X12971071Y-15367214D01*
X13113928Y-15367214D02*
X13113928Y-15167214D01*
X13113928Y-15195786D02*
X13128214Y-15181500D01*
X13156786Y-15167214D01*
X13199643Y-15167214D01*
X13228214Y-15181500D01*
X13242500Y-15210071D01*
X13242500Y-15367214D01*
X13242500Y-15210071D02*
X13256786Y-15181500D01*
X13285357Y-15167214D01*
X13328214Y-15167214D01*
X13356786Y-15181500D01*
X13371071Y-15210071D01*
X13371071Y-15367214D01*
X13956786Y-15052929D02*
X13699643Y-15438643D01*
X14342500Y-15067214D02*
X14371071Y-15067214D01*
X14399643Y-15081500D01*
X14413928Y-15095786D01*
X14428214Y-15124357D01*
X14442500Y-15181500D01*
X14442500Y-15252929D01*
X14428214Y-15310071D01*
X14413928Y-15338643D01*
X14399643Y-15352929D01*
X14371071Y-15367214D01*
X14342500Y-15367214D01*
X14313928Y-15352929D01*
X14299643Y-15338643D01*
X14285357Y-15310071D01*
X14271071Y-15252929D01*
X14271071Y-15181500D01*
X14285357Y-15124357D01*
X14299643Y-15095786D01*
X14313928Y-15081500D01*
X14342500Y-15067214D01*
X14571071Y-15338643D02*
X14585357Y-15352929D01*
X14571071Y-15367214D01*
X14556786Y-15352929D01*
X14571071Y-15338643D01*
X14571071Y-15367214D01*
X14771071Y-15067214D02*
X14799643Y-15067214D01*
X14828214Y-15081500D01*
X14842500Y-15095786D01*
X14856786Y-15124357D01*
X14871071Y-15181500D01*
X14871071Y-15252929D01*
X14856786Y-15310071D01*
X14842500Y-15338643D01*
X14828214Y-15352929D01*
X14799643Y-15367214D01*
X14771071Y-15367214D01*
X14742500Y-15352929D01*
X14728214Y-15338643D01*
X14713928Y-15310071D01*
X14699643Y-15252929D01*
X14699643Y-15181500D01*
X14713928Y-15124357D01*
X14728214Y-15095786D01*
X14742500Y-15081500D01*
X14771071Y-15067214D01*
X15142500Y-15067214D02*
X14999643Y-15067214D01*
X14985357Y-15210071D01*
X14999643Y-15195786D01*
X15028214Y-15181500D01*
X15099643Y-15181500D01*
X15128214Y-15195786D01*
X15142500Y-15210071D01*
X15156786Y-15238643D01*
X15156786Y-15310071D01*
X15142500Y-15338643D01*
X15128214Y-15352929D01*
X15099643Y-15367214D01*
X15028214Y-15367214D01*
X14999643Y-15352929D01*
X14985357Y-15338643D01*
X15442500Y-15367214D02*
X15271071Y-15367214D01*
X15356786Y-15367214D02*
X15356786Y-15067214D01*
X15328214Y-15110071D01*
X15299643Y-15138643D01*
X15271071Y-15152929D01*
X15556786Y-15067214D02*
X15556786Y-15124357D01*
X15671071Y-15067214D02*
X15671071Y-15124357D01*
X16113928Y-15481500D02*
X16099643Y-15467214D01*
X16071071Y-15424357D01*
X16056786Y-15395786D01*
X16042500Y-15352929D01*
X16028214Y-15281500D01*
X16028214Y-15224357D01*
X16042500Y-15152929D01*
X16056786Y-15110071D01*
X16071071Y-15081500D01*
X16099643Y-15038643D01*
X16113928Y-15024357D01*
X16213928Y-15095786D02*
X16228214Y-15081500D01*
X16256786Y-15067214D01*
X16328214Y-15067214D01*
X16356786Y-15081500D01*
X16371071Y-15095786D01*
X16385357Y-15124357D01*
X16385357Y-15152929D01*
X16371071Y-15195786D01*
X16199643Y-15367214D01*
X16385357Y-15367214D01*
X16742500Y-15367214D02*
X16742500Y-15067214D01*
X16871071Y-15367214D02*
X16871071Y-15210071D01*
X16856786Y-15181500D01*
X16828214Y-15167214D01*
X16785357Y-15167214D01*
X16756786Y-15181500D01*
X16742500Y-15195786D01*
X17056786Y-15367214D02*
X17028214Y-15352929D01*
X17013928Y-15338643D01*
X16999643Y-15310071D01*
X16999643Y-15224357D01*
X17013928Y-15195786D01*
X17028214Y-15181500D01*
X17056786Y-15167214D01*
X17099643Y-15167214D01*
X17128214Y-15181500D01*
X17142500Y-15195786D01*
X17156786Y-15224357D01*
X17156786Y-15310071D01*
X17142500Y-15338643D01*
X17128214Y-15352929D01*
X17099643Y-15367214D01*
X17056786Y-15367214D01*
X17328214Y-15367214D02*
X17299643Y-15352929D01*
X17285357Y-15324357D01*
X17285357Y-15067214D01*
X17556786Y-15352929D02*
X17528214Y-15367214D01*
X17471071Y-15367214D01*
X17442500Y-15352929D01*
X17428214Y-15324357D01*
X17428214Y-15210071D01*
X17442500Y-15181500D01*
X17471071Y-15167214D01*
X17528214Y-15167214D01*
X17556786Y-15181500D01*
X17571071Y-15210071D01*
X17571071Y-15238643D01*
X17428214Y-15267214D01*
X17685357Y-15352929D02*
X17713928Y-15367214D01*
X17771071Y-15367214D01*
X17799643Y-15352929D01*
X17813928Y-15324357D01*
X17813928Y-15310071D01*
X17799643Y-15281500D01*
X17771071Y-15267214D01*
X17728214Y-15267214D01*
X17699643Y-15252929D01*
X17685357Y-15224357D01*
X17685357Y-15210071D01*
X17699643Y-15181500D01*
X17728214Y-15167214D01*
X17771071Y-15167214D01*
X17799643Y-15181500D01*
X17913928Y-15481500D02*
X17928214Y-15467214D01*
X17956786Y-15424357D01*
X17971071Y-15395786D01*
X17985357Y-15352929D01*
X17999643Y-15281500D01*
X17999643Y-15224357D01*
X17985357Y-15152929D01*
X17971071Y-15110071D01*
X17956786Y-15081500D01*
X17928214Y-15038643D01*
X17913928Y-15024357D01*
M02*
