%TF.GenerationSoftware,KiCad,Pcbnew,(5.1.6)-1*%
%TF.CreationDate,2020-09-19T20:41:12-05:00*%
%TF.ProjectId,voltmeter,766f6c74-6d65-4746-9572-2e6b69636164,rev?*%
%TF.SameCoordinates,Original*%
%TF.FileFunction,Paste,Top*%
%TF.FilePolarity,Positive*%
%FSLAX46Y46*%
G04 Gerber Fmt 4.6, Leading zero omitted, Abs format (unit mm)*
G04 Created by KiCad (PCBNEW (5.1.6)-1) date 2020-09-19 20:41:12*
%MOMM*%
%LPD*%
G01*
G04 APERTURE LIST*
%ADD10R,1.300000X0.600000*%
%ADD11R,0.558800X1.981200*%
%ADD12R,0.558800X2.184400*%
%ADD13R,1.500000X1.800000*%
G04 APERTURE END LIST*
%TO.C,C3*%
G36*
G01*
X163808000Y-115765000D02*
X163808000Y-117915000D01*
G75*
G02*
X163558000Y-118165000I-250000J0D01*
G01*
X162633000Y-118165000D01*
G75*
G02*
X162383000Y-117915000I0J250000D01*
G01*
X162383000Y-115765000D01*
G75*
G02*
X162633000Y-115515000I250000J0D01*
G01*
X163558000Y-115515000D01*
G75*
G02*
X163808000Y-115765000I0J-250000D01*
G01*
G37*
G36*
G01*
X166783000Y-115765000D02*
X166783000Y-117915000D01*
G75*
G02*
X166533000Y-118165000I-250000J0D01*
G01*
X165608000Y-118165000D01*
G75*
G02*
X165358000Y-117915000I0J250000D01*
G01*
X165358000Y-115765000D01*
G75*
G02*
X165608000Y-115515000I250000J0D01*
G01*
X166533000Y-115515000D01*
G75*
G02*
X166783000Y-115765000I0J-250000D01*
G01*
G37*
%TD*%
%TO.C,C2*%
G36*
G01*
X135336001Y-115765000D02*
X135336001Y-117915000D01*
G75*
G02*
X135086001Y-118165000I-250000J0D01*
G01*
X134161001Y-118165000D01*
G75*
G02*
X133911001Y-117915000I0J250000D01*
G01*
X133911001Y-115765000D01*
G75*
G02*
X134161001Y-115515000I250000J0D01*
G01*
X135086001Y-115515000D01*
G75*
G02*
X135336001Y-115765000I0J-250000D01*
G01*
G37*
G36*
G01*
X138311001Y-115765000D02*
X138311001Y-117915000D01*
G75*
G02*
X138061001Y-118165000I-250000J0D01*
G01*
X137136001Y-118165000D01*
G75*
G02*
X136886001Y-117915000I0J250000D01*
G01*
X136886001Y-115765000D01*
G75*
G02*
X137136001Y-115515000I250000J0D01*
G01*
X138061001Y-115515000D01*
G75*
G02*
X138311001Y-115765000I0J-250000D01*
G01*
G37*
%TD*%
D10*
%TO.C,VR1*%
X137186001Y-122235000D03*
X137186001Y-120335000D03*
X135086001Y-121285000D03*
%TD*%
D11*
%TO.C,U2*%
X165735000Y-111683800D03*
X164465000Y-111683800D03*
X163195000Y-111683800D03*
X161925000Y-111683800D03*
X161925000Y-106756200D03*
X163195000Y-106756200D03*
X164465000Y-106756200D03*
X165735000Y-106756200D03*
%TD*%
D12*
%TO.C,U1*%
X154940000Y-109042200D03*
X153670000Y-109042200D03*
X152400000Y-109042200D03*
X151130000Y-109042200D03*
X149860000Y-109042200D03*
X148590000Y-109042200D03*
X147320000Y-109042200D03*
X146050000Y-109042200D03*
X146050000Y-104317800D03*
X147320000Y-104317800D03*
X148590000Y-104317800D03*
X149860000Y-104317800D03*
X151130000Y-104317800D03*
X152400000Y-104317800D03*
X153670000Y-104317800D03*
X154940000Y-104317800D03*
%TD*%
%TO.C,R16*%
G36*
G01*
X122985000Y-113881901D02*
X122985000Y-114781903D01*
G75*
G02*
X122735001Y-115031902I-249999J0D01*
G01*
X122084999Y-115031902D01*
G75*
G02*
X121835000Y-114781903I0J249999D01*
G01*
X121835000Y-113881901D01*
G75*
G02*
X122084999Y-113631902I249999J0D01*
G01*
X122735001Y-113631902D01*
G75*
G02*
X122985000Y-113881901I0J-249999D01*
G01*
G37*
G36*
G01*
X125035000Y-113881901D02*
X125035000Y-114781903D01*
G75*
G02*
X124785001Y-115031902I-249999J0D01*
G01*
X124134999Y-115031902D01*
G75*
G02*
X123885000Y-114781903I0J249999D01*
G01*
X123885000Y-113881901D01*
G75*
G02*
X124134999Y-113631902I249999J0D01*
G01*
X124785001Y-113631902D01*
G75*
G02*
X125035000Y-113881901I0J-249999D01*
G01*
G37*
%TD*%
%TO.C,R15*%
G36*
G01*
X122985000Y-109345076D02*
X122985000Y-110245078D01*
G75*
G02*
X122735001Y-110495077I-249999J0D01*
G01*
X122084999Y-110495077D01*
G75*
G02*
X121835000Y-110245078I0J249999D01*
G01*
X121835000Y-109345076D01*
G75*
G02*
X122084999Y-109095077I249999J0D01*
G01*
X122735001Y-109095077D01*
G75*
G02*
X122985000Y-109345076I0J-249999D01*
G01*
G37*
G36*
G01*
X125035000Y-109345076D02*
X125035000Y-110245078D01*
G75*
G02*
X124785001Y-110495077I-249999J0D01*
G01*
X124134999Y-110495077D01*
G75*
G02*
X123885000Y-110245078I0J249999D01*
G01*
X123885000Y-109345076D01*
G75*
G02*
X124134999Y-109095077I249999J0D01*
G01*
X124785001Y-109095077D01*
G75*
G02*
X125035000Y-109345076I0J-249999D01*
G01*
G37*
%TD*%
%TO.C,R14*%
G36*
G01*
X122985000Y-100271426D02*
X122985000Y-101171428D01*
G75*
G02*
X122735001Y-101421427I-249999J0D01*
G01*
X122084999Y-101421427D01*
G75*
G02*
X121835000Y-101171428I0J249999D01*
G01*
X121835000Y-100271426D01*
G75*
G02*
X122084999Y-100021427I249999J0D01*
G01*
X122735001Y-100021427D01*
G75*
G02*
X122985000Y-100271426I0J-249999D01*
G01*
G37*
G36*
G01*
X125035000Y-100271426D02*
X125035000Y-101171428D01*
G75*
G02*
X124785001Y-101421427I-249999J0D01*
G01*
X124134999Y-101421427D01*
G75*
G02*
X123885000Y-101171428I0J249999D01*
G01*
X123885000Y-100271426D01*
G75*
G02*
X124134999Y-100021427I249999J0D01*
G01*
X124785001Y-100021427D01*
G75*
G02*
X125035000Y-100271426I0J-249999D01*
G01*
G37*
%TD*%
%TO.C,R13*%
G36*
G01*
X122985000Y-104808251D02*
X122985000Y-105708253D01*
G75*
G02*
X122735001Y-105958252I-249999J0D01*
G01*
X122084999Y-105958252D01*
G75*
G02*
X121835000Y-105708253I0J249999D01*
G01*
X121835000Y-104808251D01*
G75*
G02*
X122084999Y-104558252I249999J0D01*
G01*
X122735001Y-104558252D01*
G75*
G02*
X122985000Y-104808251I0J-249999D01*
G01*
G37*
G36*
G01*
X125035000Y-104808251D02*
X125035000Y-105708253D01*
G75*
G02*
X124785001Y-105958252I-249999J0D01*
G01*
X124134999Y-105958252D01*
G75*
G02*
X123885000Y-105708253I0J249999D01*
G01*
X123885000Y-104808251D01*
G75*
G02*
X124134999Y-104558252I249999J0D01*
G01*
X124785001Y-104558252D01*
G75*
G02*
X125035000Y-104808251I0J-249999D01*
G01*
G37*
%TD*%
%TO.C,R12*%
G36*
G01*
X158299999Y-119830000D02*
X159200001Y-119830000D01*
G75*
G02*
X159450000Y-120079999I0J-249999D01*
G01*
X159450000Y-120730001D01*
G75*
G02*
X159200001Y-120980000I-249999J0D01*
G01*
X158299999Y-120980000D01*
G75*
G02*
X158050000Y-120730001I0J249999D01*
G01*
X158050000Y-120079999D01*
G75*
G02*
X158299999Y-119830000I249999J0D01*
G01*
G37*
G36*
G01*
X158299999Y-117780000D02*
X159200001Y-117780000D01*
G75*
G02*
X159450000Y-118029999I0J-249999D01*
G01*
X159450000Y-118680001D01*
G75*
G02*
X159200001Y-118930000I-249999J0D01*
G01*
X158299999Y-118930000D01*
G75*
G02*
X158050000Y-118680001I0J249999D01*
G01*
X158050000Y-118029999D01*
G75*
G02*
X158299999Y-117780000I249999J0D01*
G01*
G37*
%TD*%
%TO.C,R11*%
G36*
G01*
X160225000Y-116020001D02*
X160225000Y-115119999D01*
G75*
G02*
X160474999Y-114870000I249999J0D01*
G01*
X161125001Y-114870000D01*
G75*
G02*
X161375000Y-115119999I0J-249999D01*
G01*
X161375000Y-116020001D01*
G75*
G02*
X161125001Y-116270000I-249999J0D01*
G01*
X160474999Y-116270000D01*
G75*
G02*
X160225000Y-116020001I0J249999D01*
G01*
G37*
G36*
G01*
X158175000Y-116020001D02*
X158175000Y-115119999D01*
G75*
G02*
X158424999Y-114870000I249999J0D01*
G01*
X159075001Y-114870000D01*
G75*
G02*
X159325000Y-115119999I0J-249999D01*
G01*
X159325000Y-116020001D01*
G75*
G02*
X159075001Y-116270000I-249999J0D01*
G01*
X158424999Y-116270000D01*
G75*
G02*
X158175000Y-116020001I0J249999D01*
G01*
G37*
%TD*%
%TO.C,R10*%
G36*
G01*
X159207139Y-99735000D02*
X160107141Y-99735000D01*
G75*
G02*
X160357140Y-99984999I0J-249999D01*
G01*
X160357140Y-100635001D01*
G75*
G02*
X160107141Y-100885000I-249999J0D01*
G01*
X159207139Y-100885000D01*
G75*
G02*
X158957140Y-100635001I0J249999D01*
G01*
X158957140Y-99984999D01*
G75*
G02*
X159207139Y-99735000I249999J0D01*
G01*
G37*
G36*
G01*
X159207139Y-97685000D02*
X160107141Y-97685000D01*
G75*
G02*
X160357140Y-97934999I0J-249999D01*
G01*
X160357140Y-98585001D01*
G75*
G02*
X160107141Y-98835000I-249999J0D01*
G01*
X159207139Y-98835000D01*
G75*
G02*
X158957140Y-98585001I0J249999D01*
G01*
X158957140Y-97934999D01*
G75*
G02*
X159207139Y-97685000I249999J0D01*
G01*
G37*
%TD*%
%TO.C,R9*%
G36*
G01*
X161928567Y-99735000D02*
X162828569Y-99735000D01*
G75*
G02*
X163078568Y-99984999I0J-249999D01*
G01*
X163078568Y-100635001D01*
G75*
G02*
X162828569Y-100885000I-249999J0D01*
G01*
X161928567Y-100885000D01*
G75*
G02*
X161678568Y-100635001I0J249999D01*
G01*
X161678568Y-99984999D01*
G75*
G02*
X161928567Y-99735000I249999J0D01*
G01*
G37*
G36*
G01*
X161928567Y-97685000D02*
X162828569Y-97685000D01*
G75*
G02*
X163078568Y-97934999I0J-249999D01*
G01*
X163078568Y-98585001D01*
G75*
G02*
X162828569Y-98835000I-249999J0D01*
G01*
X161928567Y-98835000D01*
G75*
G02*
X161678568Y-98585001I0J249999D01*
G01*
X161678568Y-97934999D01*
G75*
G02*
X161928567Y-97685000I249999J0D01*
G01*
G37*
%TD*%
%TO.C,R8*%
G36*
G01*
X164649999Y-99735000D02*
X165550001Y-99735000D01*
G75*
G02*
X165800000Y-99984999I0J-249999D01*
G01*
X165800000Y-100635001D01*
G75*
G02*
X165550001Y-100885000I-249999J0D01*
G01*
X164649999Y-100885000D01*
G75*
G02*
X164400000Y-100635001I0J249999D01*
G01*
X164400000Y-99984999D01*
G75*
G02*
X164649999Y-99735000I249999J0D01*
G01*
G37*
G36*
G01*
X164649999Y-97685000D02*
X165550001Y-97685000D01*
G75*
G02*
X165800000Y-97934999I0J-249999D01*
G01*
X165800000Y-98585001D01*
G75*
G02*
X165550001Y-98835000I-249999J0D01*
G01*
X164649999Y-98835000D01*
G75*
G02*
X164400000Y-98585001I0J249999D01*
G01*
X164400000Y-97934999D01*
G75*
G02*
X164649999Y-97685000I249999J0D01*
G01*
G37*
%TD*%
%TO.C,R7*%
G36*
G01*
X156485711Y-99735000D02*
X157385713Y-99735000D01*
G75*
G02*
X157635712Y-99984999I0J-249999D01*
G01*
X157635712Y-100635001D01*
G75*
G02*
X157385713Y-100885000I-249999J0D01*
G01*
X156485711Y-100885000D01*
G75*
G02*
X156235712Y-100635001I0J249999D01*
G01*
X156235712Y-99984999D01*
G75*
G02*
X156485711Y-99735000I249999J0D01*
G01*
G37*
G36*
G01*
X156485711Y-97685000D02*
X157385713Y-97685000D01*
G75*
G02*
X157635712Y-97934999I0J-249999D01*
G01*
X157635712Y-98585001D01*
G75*
G02*
X157385713Y-98835000I-249999J0D01*
G01*
X156485711Y-98835000D01*
G75*
G02*
X156235712Y-98585001I0J249999D01*
G01*
X156235712Y-97934999D01*
G75*
G02*
X156485711Y-97685000I249999J0D01*
G01*
G37*
%TD*%
%TO.C,R6*%
G36*
G01*
X153764283Y-99735000D02*
X154664285Y-99735000D01*
G75*
G02*
X154914284Y-99984999I0J-249999D01*
G01*
X154914284Y-100635001D01*
G75*
G02*
X154664285Y-100885000I-249999J0D01*
G01*
X153764283Y-100885000D01*
G75*
G02*
X153514284Y-100635001I0J249999D01*
G01*
X153514284Y-99984999D01*
G75*
G02*
X153764283Y-99735000I249999J0D01*
G01*
G37*
G36*
G01*
X153764283Y-97685000D02*
X154664285Y-97685000D01*
G75*
G02*
X154914284Y-97934999I0J-249999D01*
G01*
X154914284Y-98585001D01*
G75*
G02*
X154664285Y-98835000I-249999J0D01*
G01*
X153764283Y-98835000D01*
G75*
G02*
X153514284Y-98585001I0J249999D01*
G01*
X153514284Y-97934999D01*
G75*
G02*
X153764283Y-97685000I249999J0D01*
G01*
G37*
%TD*%
%TO.C,R5*%
G36*
G01*
X151042855Y-99735000D02*
X151942857Y-99735000D01*
G75*
G02*
X152192856Y-99984999I0J-249999D01*
G01*
X152192856Y-100635001D01*
G75*
G02*
X151942857Y-100885000I-249999J0D01*
G01*
X151042855Y-100885000D01*
G75*
G02*
X150792856Y-100635001I0J249999D01*
G01*
X150792856Y-99984999D01*
G75*
G02*
X151042855Y-99735000I249999J0D01*
G01*
G37*
G36*
G01*
X151042855Y-97685000D02*
X151942857Y-97685000D01*
G75*
G02*
X152192856Y-97934999I0J-249999D01*
G01*
X152192856Y-98585001D01*
G75*
G02*
X151942857Y-98835000I-249999J0D01*
G01*
X151042855Y-98835000D01*
G75*
G02*
X150792856Y-98585001I0J249999D01*
G01*
X150792856Y-97934999D01*
G75*
G02*
X151042855Y-97685000I249999J0D01*
G01*
G37*
%TD*%
%TO.C,R4*%
G36*
G01*
X148321427Y-99735000D02*
X149221429Y-99735000D01*
G75*
G02*
X149471428Y-99984999I0J-249999D01*
G01*
X149471428Y-100635001D01*
G75*
G02*
X149221429Y-100885000I-249999J0D01*
G01*
X148321427Y-100885000D01*
G75*
G02*
X148071428Y-100635001I0J249999D01*
G01*
X148071428Y-99984999D01*
G75*
G02*
X148321427Y-99735000I249999J0D01*
G01*
G37*
G36*
G01*
X148321427Y-97685000D02*
X149221429Y-97685000D01*
G75*
G02*
X149471428Y-97934999I0J-249999D01*
G01*
X149471428Y-98585001D01*
G75*
G02*
X149221429Y-98835000I-249999J0D01*
G01*
X148321427Y-98835000D01*
G75*
G02*
X148071428Y-98585001I0J249999D01*
G01*
X148071428Y-97934999D01*
G75*
G02*
X148321427Y-97685000I249999J0D01*
G01*
G37*
%TD*%
%TO.C,R3*%
G36*
G01*
X145599999Y-99735000D02*
X146500001Y-99735000D01*
G75*
G02*
X146750000Y-99984999I0J-249999D01*
G01*
X146750000Y-100635001D01*
G75*
G02*
X146500001Y-100885000I-249999J0D01*
G01*
X145599999Y-100885000D01*
G75*
G02*
X145350000Y-100635001I0J249999D01*
G01*
X145350000Y-99984999D01*
G75*
G02*
X145599999Y-99735000I249999J0D01*
G01*
G37*
G36*
G01*
X145599999Y-97685000D02*
X146500001Y-97685000D01*
G75*
G02*
X146750000Y-97934999I0J-249999D01*
G01*
X146750000Y-98585001D01*
G75*
G02*
X146500001Y-98835000I-249999J0D01*
G01*
X145599999Y-98835000D01*
G75*
G02*
X145350000Y-98585001I0J249999D01*
G01*
X145350000Y-97934999D01*
G75*
G02*
X145599999Y-97685000I249999J0D01*
G01*
G37*
%TD*%
%TO.C,R2*%
G36*
G01*
X123640000Y-86810001D02*
X123640000Y-85909999D01*
G75*
G02*
X123889999Y-85660000I249999J0D01*
G01*
X124540001Y-85660000D01*
G75*
G02*
X124790000Y-85909999I0J-249999D01*
G01*
X124790000Y-86810001D01*
G75*
G02*
X124540001Y-87060000I-249999J0D01*
G01*
X123889999Y-87060000D01*
G75*
G02*
X123640000Y-86810001I0J249999D01*
G01*
G37*
G36*
G01*
X121590000Y-86810001D02*
X121590000Y-85909999D01*
G75*
G02*
X121839999Y-85660000I249999J0D01*
G01*
X122490001Y-85660000D01*
G75*
G02*
X122740000Y-85909999I0J-249999D01*
G01*
X122740000Y-86810001D01*
G75*
G02*
X122490001Y-87060000I-249999J0D01*
G01*
X121839999Y-87060000D01*
G75*
G02*
X121590000Y-86810001I0J249999D01*
G01*
G37*
%TD*%
%TO.C,R1*%
G36*
G01*
X123640000Y-94430001D02*
X123640000Y-93529999D01*
G75*
G02*
X123889999Y-93280000I249999J0D01*
G01*
X124540001Y-93280000D01*
G75*
G02*
X124790000Y-93529999I0J-249999D01*
G01*
X124790000Y-94430001D01*
G75*
G02*
X124540001Y-94680000I-249999J0D01*
G01*
X123889999Y-94680000D01*
G75*
G02*
X123640000Y-94430001I0J249999D01*
G01*
G37*
G36*
G01*
X121590000Y-94430001D02*
X121590000Y-93529999D01*
G75*
G02*
X121839999Y-93280000I249999J0D01*
G01*
X122490001Y-93280000D01*
G75*
G02*
X122740000Y-93529999I0J-249999D01*
G01*
X122740000Y-94430001D01*
G75*
G02*
X122490001Y-94680000I-249999J0D01*
G01*
X121839999Y-94680000D01*
G75*
G02*
X121590000Y-94430001I0J249999D01*
G01*
G37*
%TD*%
%TO.C,R0*%
G36*
G01*
X123640000Y-90620001D02*
X123640000Y-89719999D01*
G75*
G02*
X123889999Y-89470000I249999J0D01*
G01*
X124540001Y-89470000D01*
G75*
G02*
X124790000Y-89719999I0J-249999D01*
G01*
X124790000Y-90620001D01*
G75*
G02*
X124540001Y-90870000I-249999J0D01*
G01*
X123889999Y-90870000D01*
G75*
G02*
X123640000Y-90620001I0J249999D01*
G01*
G37*
G36*
G01*
X121590000Y-90620001D02*
X121590000Y-89719999D01*
G75*
G02*
X121839999Y-89470000I249999J0D01*
G01*
X122490001Y-89470000D01*
G75*
G02*
X122740000Y-89719999I0J-249999D01*
G01*
X122740000Y-90620001D01*
G75*
G02*
X122490001Y-90870000I-249999J0D01*
G01*
X121839999Y-90870000D01*
G75*
G02*
X121590000Y-90620001I0J249999D01*
G01*
G37*
%TD*%
D10*
%TO.C,Q2*%
X129540000Y-87630000D03*
X129540000Y-85730000D03*
X127440000Y-86680000D03*
%TD*%
%TO.C,Q1*%
X129540000Y-93660000D03*
X129540000Y-91760000D03*
X127440000Y-92710000D03*
%TD*%
D13*
%TO.C,D4*%
X128270000Y-114331902D03*
X131870000Y-114331902D03*
%TD*%
%TO.C,D3*%
X128270000Y-109795077D03*
X131870000Y-109795077D03*
%TD*%
%TO.C,D2*%
X128270000Y-100721427D03*
X131870000Y-100721427D03*
%TD*%
%TO.C,D1*%
X128270000Y-105258252D03*
X131870000Y-105258252D03*
%TD*%
%TO.C,C1*%
G36*
G01*
X135661001Y-125279999D02*
X135661001Y-126180001D01*
G75*
G02*
X135411002Y-126430000I-249999J0D01*
G01*
X134761000Y-126430000D01*
G75*
G02*
X134511001Y-126180001I0J249999D01*
G01*
X134511001Y-125279999D01*
G75*
G02*
X134761000Y-125030000I249999J0D01*
G01*
X135411002Y-125030000D01*
G75*
G02*
X135661001Y-125279999I0J-249999D01*
G01*
G37*
G36*
G01*
X137711001Y-125279999D02*
X137711001Y-126180001D01*
G75*
G02*
X137461002Y-126430000I-249999J0D01*
G01*
X136811000Y-126430000D01*
G75*
G02*
X136561001Y-126180001I0J249999D01*
G01*
X136561001Y-125279999D01*
G75*
G02*
X136811000Y-125030000I249999J0D01*
G01*
X137461002Y-125030000D01*
G75*
G02*
X137711001Y-125279999I0J-249999D01*
G01*
G37*
%TD*%
M02*
