%TF.GenerationSoftware,KiCad,Pcbnew,(5.1.6)-1*%
%TF.CreationDate,2020-09-19T20:41:12-05:00*%
%TF.ProjectId,voltmeter,766f6c74-6d65-4746-9572-2e6b69636164,rev?*%
%TF.SameCoordinates,Original*%
%TF.FileFunction,Soldermask,Top*%
%TF.FilePolarity,Negative*%
%FSLAX46Y46*%
G04 Gerber Fmt 4.6, Leading zero omitted, Abs format (unit mm)*
G04 Created by KiCad (PCBNEW (5.1.6)-1) date 2020-09-19 20:41:12*
%MOMM*%
%LPD*%
G01*
G04 APERTURE LIST*
%ADD10C,0.150000*%
%ADD11C,1.371600*%
%ADD12R,1.371600X1.371600*%
%ADD13O,1.701600X1.701600*%
%ADD14R,1.701600X1.701600*%
%ADD15R,1.440000X0.740000*%
%ADD16R,0.660400X2.082800*%
%ADD17R,0.660400X2.286000*%
%ADD18C,2.401600*%
%ADD19R,2.401600X2.401600*%
%ADD20R,1.601600X1.901600*%
G04 APERTURE END LIST*
D10*
X143859904Y-123102666D02*
X144336095Y-123102666D01*
X143764666Y-123388380D02*
X144098000Y-122388380D01*
X144431333Y-123388380D01*
X144764666Y-123388380D02*
X144764666Y-122388380D01*
X145098000Y-123102666D01*
X145431333Y-122388380D01*
X145431333Y-123388380D01*
X145812285Y-122388380D02*
X146050380Y-123388380D01*
X146240857Y-122674095D01*
X146431333Y-123388380D01*
X146669428Y-122388380D01*
X147812285Y-123388380D02*
X147812285Y-122388380D01*
X148383714Y-123388380D01*
X148383714Y-122388380D01*
X149431333Y-123388380D02*
X149098000Y-122912190D01*
X148859904Y-123388380D02*
X148859904Y-122388380D01*
X149240857Y-122388380D01*
X149336095Y-122436000D01*
X149383714Y-122483619D01*
X149431333Y-122578857D01*
X149431333Y-122721714D01*
X149383714Y-122816952D01*
X149336095Y-122864571D01*
X149240857Y-122912190D01*
X148859904Y-122912190D01*
X150431333Y-123388380D02*
X150098000Y-122912190D01*
X149859904Y-123388380D02*
X149859904Y-122388380D01*
X150240857Y-122388380D01*
X150336095Y-122436000D01*
X150383714Y-122483619D01*
X150431333Y-122578857D01*
X150431333Y-122721714D01*
X150383714Y-122816952D01*
X150336095Y-122864571D01*
X150240857Y-122912190D01*
X149859904Y-122912190D01*
X151621809Y-123388380D02*
X151621809Y-122388380D01*
X151955142Y-123102666D01*
X152288476Y-122388380D01*
X152288476Y-123388380D01*
X152764666Y-123388380D02*
X152764666Y-122388380D01*
X153098000Y-123102666D01*
X153431333Y-122388380D01*
X153431333Y-123388380D01*
X153859904Y-123102666D02*
X154336095Y-123102666D01*
X153764666Y-123388380D02*
X154098000Y-122388380D01*
X154431333Y-123388380D01*
%TO.C,C3*%
G36*
G01*
X163858800Y-115732025D02*
X163858800Y-117947975D01*
G75*
G02*
X163590975Y-118215800I-267825J0D01*
G01*
X162600025Y-118215800D01*
G75*
G02*
X162332200Y-117947975I0J267825D01*
G01*
X162332200Y-115732025D01*
G75*
G02*
X162600025Y-115464200I267825J0D01*
G01*
X163590975Y-115464200D01*
G75*
G02*
X163858800Y-115732025I0J-267825D01*
G01*
G37*
G36*
G01*
X166833800Y-115732025D02*
X166833800Y-117947975D01*
G75*
G02*
X166565975Y-118215800I-267825J0D01*
G01*
X165575025Y-118215800D01*
G75*
G02*
X165307200Y-117947975I0J267825D01*
G01*
X165307200Y-115732025D01*
G75*
G02*
X165575025Y-115464200I267825J0D01*
G01*
X166565975Y-115464200D01*
G75*
G02*
X166833800Y-115732025I0J-267825D01*
G01*
G37*
%TD*%
%TO.C,C2*%
G36*
G01*
X135386801Y-115732025D02*
X135386801Y-117947975D01*
G75*
G02*
X135118976Y-118215800I-267825J0D01*
G01*
X134128026Y-118215800D01*
G75*
G02*
X133860201Y-117947975I0J267825D01*
G01*
X133860201Y-115732025D01*
G75*
G02*
X134128026Y-115464200I267825J0D01*
G01*
X135118976Y-115464200D01*
G75*
G02*
X135386801Y-115732025I0J-267825D01*
G01*
G37*
G36*
G01*
X138361801Y-115732025D02*
X138361801Y-117947975D01*
G75*
G02*
X138093976Y-118215800I-267825J0D01*
G01*
X137103026Y-118215800D01*
G75*
G02*
X136835201Y-117947975I0J267825D01*
G01*
X136835201Y-115732025D01*
G75*
G02*
X137103026Y-115464200I267825J0D01*
G01*
X138093976Y-115464200D01*
G75*
G02*
X138361801Y-115732025I0J-267825D01*
G01*
G37*
%TD*%
D11*
%TO.C,LED0*%
X144272000Y-86360000D03*
X146812000Y-86360000D03*
X149352000Y-86360000D03*
X151892000Y-86360000D03*
X154432000Y-86360000D03*
X156972000Y-86360000D03*
X156972000Y-93980000D03*
X154432000Y-93980000D03*
X151892000Y-93980000D03*
X149352000Y-93980000D03*
X146812000Y-93980000D03*
D12*
X144272000Y-93980000D03*
%TD*%
D13*
%TO.C,A0*%
X158750000Y-80010000D03*
X161290000Y-80010000D03*
X121670000Y-80010000D03*
X161290000Y-128270000D03*
X124210000Y-80010000D03*
X158750000Y-128270000D03*
X126750000Y-80010000D03*
X156210000Y-128270000D03*
X129290000Y-80010000D03*
X153670000Y-128270000D03*
X131830000Y-80010000D03*
X151130000Y-128270000D03*
X134370000Y-80010000D03*
X148590000Y-128270000D03*
X136910000Y-80010000D03*
X143510000Y-128270000D03*
X139450000Y-80010000D03*
X140970000Y-128270000D03*
X143510000Y-80010000D03*
X138430000Y-128270000D03*
X146050000Y-80010000D03*
X135890000Y-128270000D03*
X148590000Y-80010000D03*
X133350000Y-128270000D03*
X151130000Y-80010000D03*
X130810000Y-128270000D03*
X153670000Y-80010000D03*
X128270000Y-128270000D03*
X156210000Y-80010000D03*
D14*
X125730000Y-128270000D03*
D13*
X119130000Y-80010000D03*
X116590000Y-80010000D03*
%TD*%
D15*
%TO.C,VR1*%
X137186001Y-122235000D03*
X137186001Y-120335000D03*
X135086001Y-121285000D03*
%TD*%
D16*
%TO.C,U2*%
X165735000Y-111683800D03*
X164465000Y-111683800D03*
X163195000Y-111683800D03*
X161925000Y-111683800D03*
X161925000Y-106756200D03*
X163195000Y-106756200D03*
X164465000Y-106756200D03*
X165735000Y-106756200D03*
%TD*%
D17*
%TO.C,U1*%
X154940000Y-109042200D03*
X153670000Y-109042200D03*
X152400000Y-109042200D03*
X151130000Y-109042200D03*
X149860000Y-109042200D03*
X148590000Y-109042200D03*
X147320000Y-109042200D03*
X146050000Y-109042200D03*
X146050000Y-104317800D03*
X147320000Y-104317800D03*
X148590000Y-104317800D03*
X149860000Y-104317800D03*
X151130000Y-104317800D03*
X152400000Y-104317800D03*
X153670000Y-104317800D03*
X154940000Y-104317800D03*
%TD*%
%TO.C,R16*%
G36*
G01*
X123035800Y-113853188D02*
X123035800Y-114810616D01*
G75*
G02*
X122763714Y-115082702I-272086J0D01*
G01*
X122056286Y-115082702D01*
G75*
G02*
X121784200Y-114810616I0J272086D01*
G01*
X121784200Y-113853188D01*
G75*
G02*
X122056286Y-113581102I272086J0D01*
G01*
X122763714Y-113581102D01*
G75*
G02*
X123035800Y-113853188I0J-272086D01*
G01*
G37*
G36*
G01*
X125085800Y-113853188D02*
X125085800Y-114810616D01*
G75*
G02*
X124813714Y-115082702I-272086J0D01*
G01*
X124106286Y-115082702D01*
G75*
G02*
X123834200Y-114810616I0J272086D01*
G01*
X123834200Y-113853188D01*
G75*
G02*
X124106286Y-113581102I272086J0D01*
G01*
X124813714Y-113581102D01*
G75*
G02*
X125085800Y-113853188I0J-272086D01*
G01*
G37*
%TD*%
%TO.C,R15*%
G36*
G01*
X123035800Y-109316363D02*
X123035800Y-110273791D01*
G75*
G02*
X122763714Y-110545877I-272086J0D01*
G01*
X122056286Y-110545877D01*
G75*
G02*
X121784200Y-110273791I0J272086D01*
G01*
X121784200Y-109316363D01*
G75*
G02*
X122056286Y-109044277I272086J0D01*
G01*
X122763714Y-109044277D01*
G75*
G02*
X123035800Y-109316363I0J-272086D01*
G01*
G37*
G36*
G01*
X125085800Y-109316363D02*
X125085800Y-110273791D01*
G75*
G02*
X124813714Y-110545877I-272086J0D01*
G01*
X124106286Y-110545877D01*
G75*
G02*
X123834200Y-110273791I0J272086D01*
G01*
X123834200Y-109316363D01*
G75*
G02*
X124106286Y-109044277I272086J0D01*
G01*
X124813714Y-109044277D01*
G75*
G02*
X125085800Y-109316363I0J-272086D01*
G01*
G37*
%TD*%
%TO.C,R14*%
G36*
G01*
X123035800Y-100242713D02*
X123035800Y-101200141D01*
G75*
G02*
X122763714Y-101472227I-272086J0D01*
G01*
X122056286Y-101472227D01*
G75*
G02*
X121784200Y-101200141I0J272086D01*
G01*
X121784200Y-100242713D01*
G75*
G02*
X122056286Y-99970627I272086J0D01*
G01*
X122763714Y-99970627D01*
G75*
G02*
X123035800Y-100242713I0J-272086D01*
G01*
G37*
G36*
G01*
X125085800Y-100242713D02*
X125085800Y-101200141D01*
G75*
G02*
X124813714Y-101472227I-272086J0D01*
G01*
X124106286Y-101472227D01*
G75*
G02*
X123834200Y-101200141I0J272086D01*
G01*
X123834200Y-100242713D01*
G75*
G02*
X124106286Y-99970627I272086J0D01*
G01*
X124813714Y-99970627D01*
G75*
G02*
X125085800Y-100242713I0J-272086D01*
G01*
G37*
%TD*%
%TO.C,R13*%
G36*
G01*
X123035800Y-104779538D02*
X123035800Y-105736966D01*
G75*
G02*
X122763714Y-106009052I-272086J0D01*
G01*
X122056286Y-106009052D01*
G75*
G02*
X121784200Y-105736966I0J272086D01*
G01*
X121784200Y-104779538D01*
G75*
G02*
X122056286Y-104507452I272086J0D01*
G01*
X122763714Y-104507452D01*
G75*
G02*
X123035800Y-104779538I0J-272086D01*
G01*
G37*
G36*
G01*
X125085800Y-104779538D02*
X125085800Y-105736966D01*
G75*
G02*
X124813714Y-106009052I-272086J0D01*
G01*
X124106286Y-106009052D01*
G75*
G02*
X123834200Y-105736966I0J272086D01*
G01*
X123834200Y-104779538D01*
G75*
G02*
X124106286Y-104507452I272086J0D01*
G01*
X124813714Y-104507452D01*
G75*
G02*
X125085800Y-104779538I0J-272086D01*
G01*
G37*
%TD*%
%TO.C,R12*%
G36*
G01*
X158271286Y-119779200D02*
X159228714Y-119779200D01*
G75*
G02*
X159500800Y-120051286I0J-272086D01*
G01*
X159500800Y-120758714D01*
G75*
G02*
X159228714Y-121030800I-272086J0D01*
G01*
X158271286Y-121030800D01*
G75*
G02*
X157999200Y-120758714I0J272086D01*
G01*
X157999200Y-120051286D01*
G75*
G02*
X158271286Y-119779200I272086J0D01*
G01*
G37*
G36*
G01*
X158271286Y-117729200D02*
X159228714Y-117729200D01*
G75*
G02*
X159500800Y-118001286I0J-272086D01*
G01*
X159500800Y-118708714D01*
G75*
G02*
X159228714Y-118980800I-272086J0D01*
G01*
X158271286Y-118980800D01*
G75*
G02*
X157999200Y-118708714I0J272086D01*
G01*
X157999200Y-118001286D01*
G75*
G02*
X158271286Y-117729200I272086J0D01*
G01*
G37*
%TD*%
%TO.C,R11*%
G36*
G01*
X160174200Y-116048714D02*
X160174200Y-115091286D01*
G75*
G02*
X160446286Y-114819200I272086J0D01*
G01*
X161153714Y-114819200D01*
G75*
G02*
X161425800Y-115091286I0J-272086D01*
G01*
X161425800Y-116048714D01*
G75*
G02*
X161153714Y-116320800I-272086J0D01*
G01*
X160446286Y-116320800D01*
G75*
G02*
X160174200Y-116048714I0J272086D01*
G01*
G37*
G36*
G01*
X158124200Y-116048714D02*
X158124200Y-115091286D01*
G75*
G02*
X158396286Y-114819200I272086J0D01*
G01*
X159103714Y-114819200D01*
G75*
G02*
X159375800Y-115091286I0J-272086D01*
G01*
X159375800Y-116048714D01*
G75*
G02*
X159103714Y-116320800I-272086J0D01*
G01*
X158396286Y-116320800D01*
G75*
G02*
X158124200Y-116048714I0J272086D01*
G01*
G37*
%TD*%
%TO.C,R10*%
G36*
G01*
X159178426Y-99684200D02*
X160135854Y-99684200D01*
G75*
G02*
X160407940Y-99956286I0J-272086D01*
G01*
X160407940Y-100663714D01*
G75*
G02*
X160135854Y-100935800I-272086J0D01*
G01*
X159178426Y-100935800D01*
G75*
G02*
X158906340Y-100663714I0J272086D01*
G01*
X158906340Y-99956286D01*
G75*
G02*
X159178426Y-99684200I272086J0D01*
G01*
G37*
G36*
G01*
X159178426Y-97634200D02*
X160135854Y-97634200D01*
G75*
G02*
X160407940Y-97906286I0J-272086D01*
G01*
X160407940Y-98613714D01*
G75*
G02*
X160135854Y-98885800I-272086J0D01*
G01*
X159178426Y-98885800D01*
G75*
G02*
X158906340Y-98613714I0J272086D01*
G01*
X158906340Y-97906286D01*
G75*
G02*
X159178426Y-97634200I272086J0D01*
G01*
G37*
%TD*%
%TO.C,R9*%
G36*
G01*
X161899854Y-99684200D02*
X162857282Y-99684200D01*
G75*
G02*
X163129368Y-99956286I0J-272086D01*
G01*
X163129368Y-100663714D01*
G75*
G02*
X162857282Y-100935800I-272086J0D01*
G01*
X161899854Y-100935800D01*
G75*
G02*
X161627768Y-100663714I0J272086D01*
G01*
X161627768Y-99956286D01*
G75*
G02*
X161899854Y-99684200I272086J0D01*
G01*
G37*
G36*
G01*
X161899854Y-97634200D02*
X162857282Y-97634200D01*
G75*
G02*
X163129368Y-97906286I0J-272086D01*
G01*
X163129368Y-98613714D01*
G75*
G02*
X162857282Y-98885800I-272086J0D01*
G01*
X161899854Y-98885800D01*
G75*
G02*
X161627768Y-98613714I0J272086D01*
G01*
X161627768Y-97906286D01*
G75*
G02*
X161899854Y-97634200I272086J0D01*
G01*
G37*
%TD*%
%TO.C,R8*%
G36*
G01*
X164621286Y-99684200D02*
X165578714Y-99684200D01*
G75*
G02*
X165850800Y-99956286I0J-272086D01*
G01*
X165850800Y-100663714D01*
G75*
G02*
X165578714Y-100935800I-272086J0D01*
G01*
X164621286Y-100935800D01*
G75*
G02*
X164349200Y-100663714I0J272086D01*
G01*
X164349200Y-99956286D01*
G75*
G02*
X164621286Y-99684200I272086J0D01*
G01*
G37*
G36*
G01*
X164621286Y-97634200D02*
X165578714Y-97634200D01*
G75*
G02*
X165850800Y-97906286I0J-272086D01*
G01*
X165850800Y-98613714D01*
G75*
G02*
X165578714Y-98885800I-272086J0D01*
G01*
X164621286Y-98885800D01*
G75*
G02*
X164349200Y-98613714I0J272086D01*
G01*
X164349200Y-97906286D01*
G75*
G02*
X164621286Y-97634200I272086J0D01*
G01*
G37*
%TD*%
%TO.C,R7*%
G36*
G01*
X156456998Y-99684200D02*
X157414426Y-99684200D01*
G75*
G02*
X157686512Y-99956286I0J-272086D01*
G01*
X157686512Y-100663714D01*
G75*
G02*
X157414426Y-100935800I-272086J0D01*
G01*
X156456998Y-100935800D01*
G75*
G02*
X156184912Y-100663714I0J272086D01*
G01*
X156184912Y-99956286D01*
G75*
G02*
X156456998Y-99684200I272086J0D01*
G01*
G37*
G36*
G01*
X156456998Y-97634200D02*
X157414426Y-97634200D01*
G75*
G02*
X157686512Y-97906286I0J-272086D01*
G01*
X157686512Y-98613714D01*
G75*
G02*
X157414426Y-98885800I-272086J0D01*
G01*
X156456998Y-98885800D01*
G75*
G02*
X156184912Y-98613714I0J272086D01*
G01*
X156184912Y-97906286D01*
G75*
G02*
X156456998Y-97634200I272086J0D01*
G01*
G37*
%TD*%
%TO.C,R6*%
G36*
G01*
X153735570Y-99684200D02*
X154692998Y-99684200D01*
G75*
G02*
X154965084Y-99956286I0J-272086D01*
G01*
X154965084Y-100663714D01*
G75*
G02*
X154692998Y-100935800I-272086J0D01*
G01*
X153735570Y-100935800D01*
G75*
G02*
X153463484Y-100663714I0J272086D01*
G01*
X153463484Y-99956286D01*
G75*
G02*
X153735570Y-99684200I272086J0D01*
G01*
G37*
G36*
G01*
X153735570Y-97634200D02*
X154692998Y-97634200D01*
G75*
G02*
X154965084Y-97906286I0J-272086D01*
G01*
X154965084Y-98613714D01*
G75*
G02*
X154692998Y-98885800I-272086J0D01*
G01*
X153735570Y-98885800D01*
G75*
G02*
X153463484Y-98613714I0J272086D01*
G01*
X153463484Y-97906286D01*
G75*
G02*
X153735570Y-97634200I272086J0D01*
G01*
G37*
%TD*%
%TO.C,R5*%
G36*
G01*
X151014142Y-99684200D02*
X151971570Y-99684200D01*
G75*
G02*
X152243656Y-99956286I0J-272086D01*
G01*
X152243656Y-100663714D01*
G75*
G02*
X151971570Y-100935800I-272086J0D01*
G01*
X151014142Y-100935800D01*
G75*
G02*
X150742056Y-100663714I0J272086D01*
G01*
X150742056Y-99956286D01*
G75*
G02*
X151014142Y-99684200I272086J0D01*
G01*
G37*
G36*
G01*
X151014142Y-97634200D02*
X151971570Y-97634200D01*
G75*
G02*
X152243656Y-97906286I0J-272086D01*
G01*
X152243656Y-98613714D01*
G75*
G02*
X151971570Y-98885800I-272086J0D01*
G01*
X151014142Y-98885800D01*
G75*
G02*
X150742056Y-98613714I0J272086D01*
G01*
X150742056Y-97906286D01*
G75*
G02*
X151014142Y-97634200I272086J0D01*
G01*
G37*
%TD*%
%TO.C,R4*%
G36*
G01*
X148292714Y-99684200D02*
X149250142Y-99684200D01*
G75*
G02*
X149522228Y-99956286I0J-272086D01*
G01*
X149522228Y-100663714D01*
G75*
G02*
X149250142Y-100935800I-272086J0D01*
G01*
X148292714Y-100935800D01*
G75*
G02*
X148020628Y-100663714I0J272086D01*
G01*
X148020628Y-99956286D01*
G75*
G02*
X148292714Y-99684200I272086J0D01*
G01*
G37*
G36*
G01*
X148292714Y-97634200D02*
X149250142Y-97634200D01*
G75*
G02*
X149522228Y-97906286I0J-272086D01*
G01*
X149522228Y-98613714D01*
G75*
G02*
X149250142Y-98885800I-272086J0D01*
G01*
X148292714Y-98885800D01*
G75*
G02*
X148020628Y-98613714I0J272086D01*
G01*
X148020628Y-97906286D01*
G75*
G02*
X148292714Y-97634200I272086J0D01*
G01*
G37*
%TD*%
%TO.C,R3*%
G36*
G01*
X145571286Y-99684200D02*
X146528714Y-99684200D01*
G75*
G02*
X146800800Y-99956286I0J-272086D01*
G01*
X146800800Y-100663714D01*
G75*
G02*
X146528714Y-100935800I-272086J0D01*
G01*
X145571286Y-100935800D01*
G75*
G02*
X145299200Y-100663714I0J272086D01*
G01*
X145299200Y-99956286D01*
G75*
G02*
X145571286Y-99684200I272086J0D01*
G01*
G37*
G36*
G01*
X145571286Y-97634200D02*
X146528714Y-97634200D01*
G75*
G02*
X146800800Y-97906286I0J-272086D01*
G01*
X146800800Y-98613714D01*
G75*
G02*
X146528714Y-98885800I-272086J0D01*
G01*
X145571286Y-98885800D01*
G75*
G02*
X145299200Y-98613714I0J272086D01*
G01*
X145299200Y-97906286D01*
G75*
G02*
X145571286Y-97634200I272086J0D01*
G01*
G37*
%TD*%
%TO.C,R2*%
G36*
G01*
X123589200Y-86838714D02*
X123589200Y-85881286D01*
G75*
G02*
X123861286Y-85609200I272086J0D01*
G01*
X124568714Y-85609200D01*
G75*
G02*
X124840800Y-85881286I0J-272086D01*
G01*
X124840800Y-86838714D01*
G75*
G02*
X124568714Y-87110800I-272086J0D01*
G01*
X123861286Y-87110800D01*
G75*
G02*
X123589200Y-86838714I0J272086D01*
G01*
G37*
G36*
G01*
X121539200Y-86838714D02*
X121539200Y-85881286D01*
G75*
G02*
X121811286Y-85609200I272086J0D01*
G01*
X122518714Y-85609200D01*
G75*
G02*
X122790800Y-85881286I0J-272086D01*
G01*
X122790800Y-86838714D01*
G75*
G02*
X122518714Y-87110800I-272086J0D01*
G01*
X121811286Y-87110800D01*
G75*
G02*
X121539200Y-86838714I0J272086D01*
G01*
G37*
%TD*%
%TO.C,R1*%
G36*
G01*
X123589200Y-94458714D02*
X123589200Y-93501286D01*
G75*
G02*
X123861286Y-93229200I272086J0D01*
G01*
X124568714Y-93229200D01*
G75*
G02*
X124840800Y-93501286I0J-272086D01*
G01*
X124840800Y-94458714D01*
G75*
G02*
X124568714Y-94730800I-272086J0D01*
G01*
X123861286Y-94730800D01*
G75*
G02*
X123589200Y-94458714I0J272086D01*
G01*
G37*
G36*
G01*
X121539200Y-94458714D02*
X121539200Y-93501286D01*
G75*
G02*
X121811286Y-93229200I272086J0D01*
G01*
X122518714Y-93229200D01*
G75*
G02*
X122790800Y-93501286I0J-272086D01*
G01*
X122790800Y-94458714D01*
G75*
G02*
X122518714Y-94730800I-272086J0D01*
G01*
X121811286Y-94730800D01*
G75*
G02*
X121539200Y-94458714I0J272086D01*
G01*
G37*
%TD*%
%TO.C,R0*%
G36*
G01*
X123589200Y-90648714D02*
X123589200Y-89691286D01*
G75*
G02*
X123861286Y-89419200I272086J0D01*
G01*
X124568714Y-89419200D01*
G75*
G02*
X124840800Y-89691286I0J-272086D01*
G01*
X124840800Y-90648714D01*
G75*
G02*
X124568714Y-90920800I-272086J0D01*
G01*
X123861286Y-90920800D01*
G75*
G02*
X123589200Y-90648714I0J272086D01*
G01*
G37*
G36*
G01*
X121539200Y-90648714D02*
X121539200Y-89691286D01*
G75*
G02*
X121811286Y-89419200I272086J0D01*
G01*
X122518714Y-89419200D01*
G75*
G02*
X122790800Y-89691286I0J-272086D01*
G01*
X122790800Y-90648714D01*
G75*
G02*
X122518714Y-90920800I-272086J0D01*
G01*
X121811286Y-90920800D01*
G75*
G02*
X121539200Y-90648714I0J272086D01*
G01*
G37*
%TD*%
D15*
%TO.C,Q2*%
X129540000Y-87630000D03*
X129540000Y-85730000D03*
X127440000Y-86680000D03*
%TD*%
%TO.C,Q1*%
X129540000Y-93660000D03*
X129540000Y-91760000D03*
X127440000Y-92710000D03*
%TD*%
D18*
%TO.C,J0*%
X118110000Y-90250000D03*
D19*
X118110000Y-95250000D03*
%TD*%
D20*
%TO.C,D4*%
X128270000Y-114331902D03*
X131870000Y-114331902D03*
%TD*%
%TO.C,D3*%
X128270000Y-109795077D03*
X131870000Y-109795077D03*
%TD*%
%TO.C,D2*%
X128270000Y-100721427D03*
X131870000Y-100721427D03*
%TD*%
%TO.C,D1*%
X128270000Y-105258252D03*
X131870000Y-105258252D03*
%TD*%
%TO.C,C1*%
G36*
G01*
X135711801Y-125251286D02*
X135711801Y-126208714D01*
G75*
G02*
X135439715Y-126480800I-272086J0D01*
G01*
X134732287Y-126480800D01*
G75*
G02*
X134460201Y-126208714I0J272086D01*
G01*
X134460201Y-125251286D01*
G75*
G02*
X134732287Y-124979200I272086J0D01*
G01*
X135439715Y-124979200D01*
G75*
G02*
X135711801Y-125251286I0J-272086D01*
G01*
G37*
G36*
G01*
X137761801Y-125251286D02*
X137761801Y-126208714D01*
G75*
G02*
X137489715Y-126480800I-272086J0D01*
G01*
X136782287Y-126480800D01*
G75*
G02*
X136510201Y-126208714I0J272086D01*
G01*
X136510201Y-125251286D01*
G75*
G02*
X136782287Y-124979200I272086J0D01*
G01*
X137489715Y-124979200D01*
G75*
G02*
X137761801Y-125251286I0J-272086D01*
G01*
G37*
%TD*%
M02*
