%TF.GenerationSoftware,KiCad,Pcbnew,(5.1.6)-1*%
%TF.CreationDate,2020-09-19T20:41:12-05:00*%
%TF.ProjectId,voltmeter,766f6c74-6d65-4746-9572-2e6b69636164,rev?*%
%TF.SameCoordinates,Original*%
%TF.FileFunction,Soldermask,Bot*%
%TF.FilePolarity,Negative*%
%FSLAX46Y46*%
G04 Gerber Fmt 4.6, Leading zero omitted, Abs format (unit mm)*
G04 Created by KiCad (PCBNEW (5.1.6)-1) date 2020-09-19 20:41:12*
%MOMM*%
%LPD*%
G01*
G04 APERTURE LIST*
%ADD10C,1.371600*%
%ADD11R,1.371600X1.371600*%
%ADD12O,1.701600X1.701600*%
%ADD13R,1.701600X1.701600*%
%ADD14C,2.401600*%
%ADD15R,2.401600X2.401600*%
G04 APERTURE END LIST*
D10*
%TO.C,LED0*%
X144272000Y-86360000D03*
X146812000Y-86360000D03*
X149352000Y-86360000D03*
X151892000Y-86360000D03*
X154432000Y-86360000D03*
X156972000Y-86360000D03*
X156972000Y-93980000D03*
X154432000Y-93980000D03*
X151892000Y-93980000D03*
X149352000Y-93980000D03*
X146812000Y-93980000D03*
D11*
X144272000Y-93980000D03*
%TD*%
D12*
%TO.C,A0*%
X158750000Y-80010000D03*
X161290000Y-80010000D03*
X121670000Y-80010000D03*
X161290000Y-128270000D03*
X124210000Y-80010000D03*
X158750000Y-128270000D03*
X126750000Y-80010000D03*
X156210000Y-128270000D03*
X129290000Y-80010000D03*
X153670000Y-128270000D03*
X131830000Y-80010000D03*
X151130000Y-128270000D03*
X134370000Y-80010000D03*
X148590000Y-128270000D03*
X136910000Y-80010000D03*
X143510000Y-128270000D03*
X139450000Y-80010000D03*
X140970000Y-128270000D03*
X143510000Y-80010000D03*
X138430000Y-128270000D03*
X146050000Y-80010000D03*
X135890000Y-128270000D03*
X148590000Y-80010000D03*
X133350000Y-128270000D03*
X151130000Y-80010000D03*
X130810000Y-128270000D03*
X153670000Y-80010000D03*
X128270000Y-128270000D03*
X156210000Y-80010000D03*
D13*
X125730000Y-128270000D03*
D12*
X119130000Y-80010000D03*
X116590000Y-80010000D03*
%TD*%
D14*
%TO.C,J0*%
X118110000Y-90250000D03*
D15*
X118110000Y-95250000D03*
%TD*%
M02*
